<svg xmlns="http://www.w3.org/2000/svg" viewBox="0 0 303.31 667.66"><defs><style>.cls-1{fill:#fcf5f2;}.cls-2{fill:#e94448;}</style></defs><g id="Livello_2" data-name="Livello 2"><g id="Livello_1-2" data-name="Livello 1"><rect class="cls-1" width="303.31" height="667.66"/><path class="cls-2" d="M72.21,361.34a13,13,0,0,1,9.08-12.47c5.18-1.79,13.17-2.16,21.69,6.36,7.3,7.3,7.64,13.54,6.15,17.95a13.69,13.69,0,0,1-11.34,8.88c-5.23.71-12.79-.08-19.48-7.6C73.81,369.4,72.33,364.92,72.21,361.34Z"/><path class="cls-2" d="M39,341.62a5.77,5.77,0,0,1,3.46-4.22c2.63-1.17,7.39-2,13,2.78,8.52,7.34,1.36,14.24,1.36,14.24s-8.19,6.1-15.06-3.9C39.05,346.56,38.71,343.59,39,341.62Z"/><path class="cls-2" d="M135,73.44a16,16,0,0,1,15.18-12c6.07-.17,14,2.29,21.4,12.78,14.87,21-.73,30.48-3.27,31.2s-23.86,3.41-31.92-16.5A24.5,24.5,0,0,1,135,73.44Z"/><path class="cls-2" d="M269.26,135.67S252.57,119,186.55,121.89s-55.14-8.71-107.38-47.16c-41-30.16-69-24.62-79.17-20.82v261c9.09,4,26.63,3.16,32.24,2.09,6.39-1.22,21.18-1,21.18-1,82-1.45,82.34,87.43,136.76,90.69,34.41,2.07,38.81-32.65,61.67-67.83,10.25-15.79,26.44-30.8,50.06-35.3.46-.09.93-.16,1.4-.24v-150C285.13,148.3,269.26,135.67,269.26,135.67Z"/></g></g></svg>