<svg width="414" height="896" viewBox="0 0 414 896" fill="none" xmlns="http://www.w3.org/2000/svg">
<g clip-path="url(#clip0_943_2263)">
<rect width="414" height="896" rx="40" fill="#FCF5F2"/>
<path d="M352.523 228.815C343.404 133.284 291.048 113.038 261.687 112.487C222.84 111.759 197.02 100.074 182.332 92.3341C120.007 59.4911 97.588 107.2 83.2842 132.24C45.776 214.663 52.8858 305.117 155.773 343.489C256.82 381.175 363.579 344.63 352.523 228.815Z" fill="#FF8730"/>
<path d="M256.773 90.6234C257.604 104.461 240.35 102.123 233.08 99.9841C228.57 99.0315 194.147 89.8198 195.365 81.4251C196.583 73.0303 208.722 74.2011 224.818 74.3029C240.914 74.4048 255.735 73.3266 256.773 90.6234Z" fill="#FF8730"/>
<path d="M273.802 100.299C270.515 96.6777 266.322 92.2637 269.254 89.603C272.185 86.9424 281.131 87.0426 284.418 90.664C287.705 94.2855 287.993 99.3781 285.061 102.039C282.129 104.699 277.088 103.921 273.802 100.299Z" fill="#FF8730"/>
<path d="M343.108 166.264C350.227 179.233 353.103 183.418 357.228 195.79C361.53 208.693 367.699 204.571 368.939 201.007C384.869 169.125 346.675 150.643 342.227 149.178C337.78 147.712 335.812 152.975 343.108 166.264Z" fill="#FF8730"/>
<circle cx="365.13" cy="216.368" r="3.79502" transform="rotate(97.1306 365.13 216.368)" fill="#FF8730"/>
<circle cx="182.714" cy="77.9606" r="3.79502" transform="rotate(97.1306 182.714 77.9606)" fill="#FF8730"/>
<path d="M116.947 345.381C121.241 347.722 125.628 350.84 123.732 354.316C121.837 357.792 116.82 358.711 112.526 356.37C108.233 354.029 106.288 349.313 108.184 345.837C110.079 342.361 112.653 343.04 116.947 345.381Z" fill="#FF8730"/>
<path d="M332.633 326.867C322.407 338.977 319.494 344.841 307.311 347.601C295.129 350.361 301.12 359.662 304.806 359.926C338.81 366.838 348.388 326.271 348.845 321.72C349.301 317.17 342.395 315.306 332.633 326.867Z" fill="#FF8730"/>
<path d="M327 363C338 354.5 348.667 342.167 351.5 338L349 356L327 363Z" fill="#FCF5F2"/>
<path d="M112.5 362.5C96 354.5 70.3333 330.833 60 320L63.5 346L74 357.5L112.5 362.5Z" fill="#FCF5F2"/>
<path d="M92.6788 324.444C81.6971 314.141 73.0468 298.263 70.0943 291.612C64.3287 275.853 56.8892 283.659 53.8901 289.531C42.1058 322.092 83.1648 348.969 91.5715 348.17C99.9782 347.371 106.406 337.322 92.6788 324.444Z" fill="#FF8730"/>
</g>
<defs>
<clipPath id="clip0_943_2263">
<rect width="414" height="896" rx="40" fill="white"/>
</clipPath>
</defs>
</svg>
