<svg width="414" height="896" viewBox="0 0 414 896" fill="none" xmlns="http://www.w3.org/2000/svg">
<g clip-path="url(#clip0_916_1715)">
<rect width="414" height="896" rx="40" fill="#FCF5F2"/>
<path d="M347.36 121.144C305.308 54.3925 240.776 80.3763 209.329 100.659C149.273 132.536 162.252 125.647 124.935 121.8C88.8736 118.082 22.326 159.496 66.8438 247.588C135.726 383.894 216.19 384.338 280.648 354.999C354.742 321.273 399.925 204.583 347.36 121.144Z" fill="#FE5B3B"/>
<path d="M102.361 319.082C89.342 309.998 77.9104 294.743 73.8219 288.252C65.4179 272.685 58.8393 281.956 56.6006 288.537C49.2414 324.293 96.1526 346.111 104.802 344.003C113.452 341.895 118.634 330.437 102.361 319.082Z" fill="#FE5B3B"/>
<path d="M340.034 322.323C328.808 334.701 325.519 340.769 312.581 343.222C299.642 345.675 305.607 355.698 309.481 356.114C345.049 364.667 356.656 322.284 357.307 317.507C357.958 312.729 350.752 310.508 340.034 322.323Z" fill="#FE5B3B"/>
<path d="M211.625 68.6022C222.302 78.3343 211.182 89.4295 204.287 93.7607C200.282 96.7288 161.998 115.343 156.784 108.032C151.571 100.721 157.149 86.6305 169.043 73.5549C180.937 60.4793 198.277 56.437 211.625 68.6022Z" fill="#FE5B3B"/>
<circle cx="291.287" cy="358.162" r="4" fill="#FE5B3B"/>
<circle cx="63.2871" cy="261.162" r="4" fill="#FE5B3B"/>
<circle cx="142.287" cy="109.162" r="4" fill="#FE5B3B"/>
<path d="M113.086 112.732C107.931 112.739 101.514 112.893 101.509 108.719C101.503 104.546 107.911 97.6244 113.067 97.6177C118.223 97.6111 122.407 100.989 122.412 105.163C122.417 109.337 118.242 112.726 113.086 112.732Z" fill="#FE5B3B"/>
</g>
<defs>
<clipPath id="clip0_916_1715">
<rect width="414" height="896" rx="40" fill="white"/>
</clipPath>
</defs>
</svg>
