<svg width="390" height="844" viewBox="0 0 390 844" fill="none" xmlns="http://www.w3.org/2000/svg">
<rect width="390" height="844" fill="#FCF5F2"/>
<path d="M212.893 345.105C173.756 344.541 121.559 403.686 88.686 363.231C49.5492 315.047 137.504 291.589 157.57 257.068C185.859 208.37 255.523 243.456 285.486 300.306C296.657 321.495 286.621 357.366 260.963 360.27C232.965 363.459 235.318 345.428 212.893 345.105Z" fill="#FF5000"/>
<path opacity="0.9" d="M212.893 345.105C173.756 344.541 121.559 403.686 88.686 363.231C49.5492 315.047 137.504 291.589 157.57 257.068C185.859 208.37 255.523 243.456 285.486 300.306C296.657 321.495 286.621 357.366 260.963 360.27C232.965 363.459 235.318 345.428 212.893 345.105Z" fill="white"/>
<path d="M194.926 459.199C262.817 459.199 317.853 455.986 317.853 452.023C317.853 448.059 262.817 444.846 194.926 444.846C127.036 444.846 72 448.059 72 452.023C72 455.986 127.036 459.199 194.926 459.199Z" fill="#F5F5F5"/>
<path d="M281.641 374.583L280.822 389.51L281.455 389.545L282.274 374.618L281.641 374.583Z" fill="#FF5000"/>
<path d="M282.34 361.92L281.918 369.612L282.551 369.647L282.973 361.955L282.34 361.92Z" fill="#FF5000"/>
<path d="M268.977 417.964H194.659C193.535 417.978 192.42 417.759 191.385 417.322C190.349 416.884 189.415 416.237 188.641 415.422C187.867 414.606 187.27 413.639 186.888 412.582C186.505 411.525 186.345 410.4 186.417 409.278L194.976 253.238C195.136 250.9 196.17 248.707 197.874 247.097C199.578 245.488 201.826 244.579 204.169 244.552H278.493C279.615 244.544 280.725 244.767 281.757 245.207C282.788 245.646 283.718 246.294 284.489 247.109C285.259 247.924 285.853 248.888 286.234 249.943C286.615 250.997 286.775 252.119 286.704 253.238L278.138 409.278C277.981 411.612 276.951 413.801 275.254 415.41C273.556 417.02 271.316 417.931 268.977 417.964Z" fill="#FF5000"/>
<path opacity="0.8" d="M264.482 417.964H194.659C193.535 417.978 192.42 417.759 191.385 417.322C190.349 416.884 189.415 416.237 188.641 415.422C187.867 414.606 187.27 413.64 186.888 412.582C186.505 411.525 186.345 410.4 186.417 409.278L194.976 253.238C195.136 250.9 196.17 248.707 197.874 247.097C199.578 245.488 201.826 244.579 204.169 244.553H273.998C275.12 244.543 276.231 244.765 277.263 245.205C278.295 245.644 279.225 246.292 279.996 247.107C280.766 247.922 281.36 248.887 281.741 249.942C282.122 250.997 282.281 252.119 282.208 253.238L273.649 409.278C273.489 411.612 272.458 413.8 270.76 415.409C269.061 417.018 266.821 417.93 264.482 417.964Z" fill="white"/>
<path d="M229.878 272.841H209.825C209.351 272.845 208.882 272.751 208.446 272.565C208.011 272.379 207.618 272.105 207.293 271.761C206.969 271.416 206.718 271.008 206.558 270.563C206.398 270.117 206.332 269.643 206.363 269.171C206.43 268.186 206.865 267.262 207.581 266.583C208.298 265.904 209.243 265.52 210.23 265.506H230.284C230.757 265.501 231.226 265.595 231.662 265.78C232.097 265.965 232.49 266.238 232.815 266.582C233.14 266.926 233.39 267.334 233.55 267.779C233.711 268.225 233.777 268.698 233.746 269.171C233.679 270.156 233.244 271.08 232.528 271.76C231.811 272.44 230.866 272.826 229.878 272.841Z" fill="white"/>
<path d="M233.746 269.171C233.633 270.948 232.85 272.617 231.557 273.841C230.263 275.066 228.553 275.755 226.772 275.771C225.919 275.78 225.073 275.614 224.288 275.281C223.503 274.948 222.795 274.456 222.209 273.836C221.623 273.216 221.171 272.481 220.883 271.678C220.595 270.876 220.476 270.022 220.534 269.171C220.647 267.393 221.43 265.724 222.724 264.5C224.017 263.276 225.727 262.586 227.508 262.571C228.361 262.561 229.207 262.728 229.992 263.061C230.777 263.394 231.485 263.886 232.071 264.506C232.657 265.125 233.109 265.86 233.397 266.663C233.685 267.466 233.804 268.32 233.746 269.171Z" fill="#FF5000"/>
<path d="M228.591 296.306H208.538C208.064 296.309 207.595 296.215 207.159 296.029C206.724 295.843 206.331 295.57 206.006 295.225C205.681 294.881 205.431 294.473 205.271 294.027C205.111 293.581 205.045 293.107 205.076 292.635C205.143 291.65 205.578 290.726 206.294 290.047C207.011 289.369 207.956 288.984 208.943 288.97H228.997C229.47 288.966 229.939 289.059 230.375 289.244C230.81 289.43 231.203 289.703 231.528 290.047C231.853 290.391 232.103 290.798 232.263 291.244C232.423 291.689 232.49 292.163 232.458 292.635C232.392 293.62 231.957 294.545 231.241 295.225C230.524 295.905 229.579 296.291 228.591 296.306Z" fill="white"/>
<path d="M221.485 297.254C224.171 294.641 224.343 290.462 221.869 287.92C219.396 285.377 215.214 285.434 212.529 288.047C209.843 290.659 209.671 294.838 212.144 297.38C214.618 299.923 218.8 299.866 221.485 297.254Z" fill="#FF5000"/>
<path opacity="0.3" d="M221.485 297.254C224.171 294.641 224.343 290.462 221.869 287.92C219.396 285.377 215.214 285.434 212.529 288.047C209.843 290.659 209.671 294.838 212.144 297.38C214.618 299.923 218.8 299.866 221.485 297.254Z" fill="#FAFAFA"/>
<path d="M205.963 343.235H225.991C226.979 343.219 227.925 342.833 228.641 342.153C229.358 341.473 229.792 340.549 229.859 339.564C229.89 339.091 229.824 338.617 229.663 338.171C229.503 337.725 229.252 337.317 228.926 336.973C228.6 336.629 228.207 336.356 227.771 336.171C227.334 335.986 226.865 335.894 226.391 335.899H206.369C205.382 335.913 204.435 336.297 203.717 336.976C203 337.655 202.564 338.578 202.495 339.564C202.465 340.037 202.532 340.511 202.693 340.956C202.854 341.402 203.105 341.81 203.43 342.154C203.756 342.499 204.148 342.772 204.584 342.958C205.02 343.144 205.49 343.238 205.963 343.235Z" fill="white"/>
<path d="M213.579 344.173C216.264 341.56 216.436 337.381 213.963 334.839C211.49 332.296 207.308 332.353 204.622 334.966C201.937 337.578 201.765 341.757 204.238 344.299C206.711 346.842 210.893 346.785 213.579 344.173Z" fill="#FF5000"/>
<path opacity="0.7" d="M213.579 344.173C216.264 341.56 216.436 337.381 213.963 334.839C211.49 332.296 207.308 332.353 204.622 334.966C201.937 337.578 201.765 341.757 204.238 344.299C206.711 346.842 210.893 346.785 213.579 344.173Z" fill="#FAFAFA"/>
<path d="M224.723 366.699H204.676C204.202 366.702 203.733 366.608 203.297 366.423C202.861 366.237 202.468 365.963 202.143 365.619C201.818 365.274 201.567 364.866 201.406 364.421C201.245 363.975 201.178 363.501 201.208 363.028C201.277 362.043 201.713 361.119 202.43 360.44C203.148 359.761 204.094 359.377 205.082 359.364H225.129C225.603 359.358 226.073 359.451 226.509 359.636C226.945 359.82 227.339 360.093 227.664 360.438C227.99 360.782 228.241 361.19 228.401 361.635C228.562 362.081 228.629 362.555 228.597 363.028C228.53 364.015 228.095 364.94 227.377 365.62C226.659 366.3 225.712 366.685 224.723 366.699Z" fill="white"/>
<path d="M228.598 363.028C228.484 364.806 227.702 366.475 226.408 367.699C225.114 368.923 223.405 369.613 221.624 369.628C220.771 369.638 219.925 369.471 219.139 369.138C218.353 368.805 217.645 368.313 217.058 367.694C216.472 367.074 216.02 366.339 215.731 365.536C215.442 364.734 215.322 363.88 215.379 363.028C215.496 361.252 216.279 359.585 217.572 358.361C218.865 357.137 220.573 356.447 222.353 356.428C223.207 356.418 224.053 356.584 224.839 356.916C225.625 357.249 226.334 357.741 226.921 358.361C227.507 358.981 227.959 359.716 228.248 360.519C228.537 361.322 228.656 362.177 228.598 363.028Z" fill="#FF5000"/>
<path d="M207.25 319.77H227.304C228.291 319.755 229.237 319.369 229.954 318.689C230.67 318.009 231.105 317.085 231.171 316.099C231.203 315.627 231.136 315.152 230.976 314.707C230.815 314.261 230.564 313.853 230.238 313.509C229.913 313.165 229.519 312.892 229.083 312.707C228.647 312.522 228.177 312.429 227.703 312.435H207.656C206.669 312.448 205.723 312.833 205.007 313.512C204.29 314.191 203.856 315.114 203.789 316.099C203.757 316.572 203.824 317.046 203.984 317.491C204.144 317.937 204.394 318.345 204.719 318.69C205.044 319.034 205.437 319.308 205.872 319.494C206.308 319.68 206.777 319.774 207.25 319.77Z" fill="white"/>
<path d="M203.801 316.099C203.744 316.95 203.863 317.804 204.151 318.607C204.439 319.41 204.89 320.145 205.476 320.764C206.062 321.384 206.77 321.876 207.556 322.209C208.341 322.542 209.187 322.709 210.04 322.699C211.821 322.684 213.53 321.994 214.824 320.77C216.118 319.546 216.9 317.877 217.014 316.099C217.072 315.248 216.953 314.394 216.664 313.592C216.376 312.789 215.925 312.054 215.339 311.434C214.753 310.814 214.045 310.322 213.259 309.989C212.474 309.656 211.628 309.49 210.775 309.499C208.994 309.515 207.285 310.204 205.991 311.429C204.697 312.653 203.915 314.322 203.801 316.099Z" fill="#FF5000"/>
<path opacity="0.7" d="M203.801 316.099C203.744 316.95 203.863 317.804 204.151 318.607C204.439 319.41 204.89 320.145 205.476 320.764C206.062 321.384 206.77 321.876 207.556 322.209C208.341 322.542 209.187 322.709 210.04 322.699C211.821 322.684 213.53 321.994 214.824 320.77C216.118 319.546 216.9 317.877 217.014 316.099C217.072 315.248 216.953 314.394 216.664 313.592C216.376 312.789 215.925 312.054 215.339 311.434C214.753 310.814 214.045 310.322 213.259 309.989C212.474 309.656 211.628 309.49 210.775 309.499C208.994 309.515 207.285 310.204 205.991 311.429C204.697 312.653 203.915 314.322 203.801 316.099Z" fill="#FAFAFA"/>
<path d="M273.802 268.074H244.08C243.891 268.075 243.704 268.036 243.53 267.961C243.356 267.886 243.2 267.776 243.07 267.638C242.941 267.501 242.841 267.338 242.777 267.159C242.713 266.981 242.686 266.792 242.698 266.603C242.725 266.21 242.899 265.84 243.186 265.569C243.472 265.298 243.851 265.144 244.245 265.139H273.967C274.156 265.137 274.343 265.175 274.517 265.249C274.691 265.324 274.847 265.433 274.977 265.57C275.106 265.708 275.206 265.87 275.271 266.048C275.335 266.226 275.361 266.415 275.349 266.603C275.324 266.998 275.15 267.369 274.864 267.641C274.577 267.914 274.198 268.069 273.802 268.074Z" fill="white"/>
<path d="M263.899 273.209H243.801C243.612 273.211 243.424 273.173 243.249 273.098C243.075 273.024 242.917 272.914 242.787 272.776C242.657 272.638 242.557 272.475 242.492 272.296C242.428 272.118 242.401 271.928 242.413 271.738C242.44 271.345 242.614 270.976 242.901 270.704C243.187 270.433 243.565 270.279 243.96 270.274H264.064C264.253 270.273 264.441 270.31 264.615 270.385C264.789 270.459 264.946 270.568 265.076 270.705C265.206 270.842 265.307 271.005 265.371 271.183C265.436 271.36 265.464 271.55 265.453 271.738C265.426 272.134 265.251 272.505 264.963 272.777C264.675 273.05 264.296 273.204 263.899 273.209Z" fill="white"/>
<path d="M264.9 361.932H238.906C238.717 361.932 238.53 361.893 238.356 361.819C238.182 361.744 238.026 361.634 237.896 361.496C237.767 361.358 237.667 361.195 237.603 361.017C237.539 360.839 237.512 360.649 237.524 360.461C237.55 360.066 237.724 359.696 238.01 359.425C238.297 359.153 238.676 359 239.071 358.996H265.034C265.223 358.995 265.41 359.033 265.584 359.107C265.758 359.181 265.915 359.29 266.045 359.427C266.176 359.565 266.276 359.727 266.341 359.905C266.406 360.083 266.433 360.272 266.422 360.461C266.396 360.851 266.225 361.217 265.944 361.489C265.663 361.761 265.291 361.918 264.9 361.932Z" fill="white"/>
<path d="M251.485 367.06H238.672C238.483 367.062 238.296 367.024 238.122 366.95C237.947 366.876 237.791 366.767 237.66 366.629C237.53 366.492 237.43 366.329 237.365 366.152C237.3 365.974 237.272 365.785 237.284 365.596C237.311 365.202 237.485 364.833 237.771 364.562C238.058 364.29 238.436 364.137 238.831 364.131H251.663C251.852 364.13 252.039 364.168 252.213 364.242C252.388 364.316 252.544 364.425 252.675 364.563C252.805 364.7 252.905 364.862 252.97 365.04C253.035 365.218 253.063 365.407 253.051 365.596C253.024 365.993 252.847 366.365 252.557 366.637C252.266 366.908 251.883 367.06 251.485 367.06Z" fill="white"/>
<path d="M272.394 293.738H242.672C242.278 293.744 241.9 293.897 241.613 294.169C241.327 294.44 241.153 294.809 241.126 295.203C241.114 295.392 241.142 295.581 241.207 295.759C241.271 295.936 241.372 296.099 241.502 296.236C241.632 296.373 241.789 296.483 241.963 296.557C242.137 296.631 242.325 296.669 242.514 296.667H272.236C272.63 296.662 273.009 296.508 273.295 296.237C273.582 295.966 273.756 295.597 273.783 295.203C273.794 295.014 273.767 294.825 273.702 294.647C273.637 294.469 273.536 294.307 273.406 294.169C273.276 294.032 273.119 293.923 272.945 293.849C272.771 293.775 272.584 293.737 272.394 293.738Z" fill="white"/>
<path d="M263.056 288.603H242.958C242.563 288.608 242.185 288.762 241.899 289.033C241.612 289.304 241.438 289.673 241.411 290.067C241.399 290.256 241.426 290.445 241.49 290.623C241.554 290.801 241.654 290.964 241.783 291.102C241.913 291.24 242.069 291.35 242.243 291.425C242.417 291.5 242.604 291.538 242.793 291.538H262.897C263.292 291.531 263.671 291.376 263.957 291.104C264.244 290.831 264.417 290.461 264.444 290.067C264.457 289.878 264.43 289.689 264.365 289.51C264.301 289.332 264.2 289.169 264.07 289.032C263.939 288.894 263.782 288.785 263.608 288.711C263.433 288.637 263.245 288.6 263.056 288.603Z" fill="white"/>
<path d="M256.753 315.003H241.537C241.348 315.003 241.161 314.965 240.987 314.89C240.813 314.815 240.657 314.705 240.527 314.567C240.398 314.429 240.298 314.266 240.234 314.088C240.17 313.91 240.143 313.721 240.155 313.532C240.181 313.137 240.354 312.767 240.641 312.496C240.928 312.224 241.307 312.071 241.702 312.067H256.918C257.109 312.063 257.298 312.099 257.475 312.172C257.651 312.245 257.81 312.354 257.943 312.491C258.075 312.629 258.177 312.792 258.243 312.971C258.309 313.15 258.337 313.341 258.326 313.532C258.298 313.93 258.121 314.304 257.829 314.577C257.537 314.85 257.153 315.002 256.753 315.003Z" fill="white"/>
<path d="M271.228 315.003H262.251C262.061 315.004 261.873 314.966 261.698 314.892C261.524 314.817 261.367 314.707 261.236 314.569C261.106 314.431 261.006 314.268 260.941 314.09C260.877 313.911 260.85 313.721 260.862 313.532C260.889 313.138 261.063 312.769 261.35 312.498C261.636 312.226 262.015 312.073 262.409 312.067H271.393C271.582 312.066 271.769 312.104 271.943 312.178C272.117 312.252 272.273 312.361 272.403 312.499C272.532 312.636 272.632 312.799 272.696 312.977C272.761 313.154 272.787 313.343 272.775 313.532C272.748 313.926 272.574 314.296 272.288 314.568C272.001 314.841 271.623 314.996 271.228 315.003Z" fill="white"/>
<path d="M261.324 320.132H241.207C241.018 320.133 240.831 320.095 240.657 320.021C240.483 319.947 240.326 319.838 240.196 319.701C240.065 319.563 239.965 319.401 239.9 319.223C239.835 319.045 239.808 318.856 239.819 318.667C239.846 318.273 240.02 317.904 240.307 317.633C240.593 317.362 240.971 317.208 241.366 317.203H261.495C261.685 317.201 261.872 317.239 262.046 317.313C262.22 317.387 262.377 317.497 262.507 317.634C262.637 317.771 262.738 317.934 262.803 318.111C262.867 318.289 262.895 318.478 262.884 318.667C262.857 319.063 262.681 319.434 262.391 319.706C262.102 319.977 261.721 320.129 261.324 320.132Z" fill="white"/>
<path d="M236.135 387.646H201.899C201.633 387.653 201.368 387.603 201.123 387.5C200.877 387.398 200.655 387.245 200.472 387.051C200.289 386.857 200.149 386.627 200.061 386.376C199.973 386.125 199.938 385.858 199.959 385.592C199.997 385.04 200.241 384.523 200.643 384.143C201.045 383.762 201.574 383.546 202.128 383.538H236.364C236.63 383.532 236.894 383.582 237.14 383.684C237.386 383.787 237.608 383.94 237.79 384.134C237.973 384.327 238.114 384.557 238.202 384.808C238.29 385.06 238.325 385.327 238.304 385.592C238.267 386.145 238.023 386.663 237.621 387.044C237.22 387.424 236.689 387.64 236.135 387.646Z" fill="white"/>
<path d="M266.656 387.646H245.645C245.379 387.653 245.114 387.603 244.869 387.5C244.623 387.398 244.401 387.245 244.218 387.051C244.036 386.857 243.895 386.627 243.807 386.376C243.719 386.125 243.684 385.858 243.705 385.592C243.743 385.04 243.987 384.523 244.389 384.143C244.791 383.762 245.32 383.546 245.874 383.538H266.884C267.151 383.532 267.415 383.582 267.661 383.684C267.907 383.787 268.128 383.94 268.311 384.134C268.494 384.327 268.634 384.557 268.723 384.808C268.811 385.06 268.846 385.327 268.824 385.592C268.786 386.144 268.542 386.662 268.141 387.042C267.739 387.422 267.209 387.638 266.656 387.646Z" fill="white"/>
<path d="M227.576 394.811H201.518C201.252 394.817 200.988 394.767 200.742 394.664C200.496 394.562 200.274 394.409 200.091 394.215C199.909 394.021 199.768 393.791 199.68 393.54C199.592 393.289 199.557 393.022 199.578 392.756C199.615 392.204 199.859 391.686 200.261 391.305C200.662 390.924 201.193 390.709 201.747 390.702H227.798C228.064 390.696 228.329 390.746 228.574 390.848C228.82 390.951 229.042 391.104 229.225 391.298C229.408 391.491 229.548 391.721 229.636 391.973C229.725 392.224 229.759 392.491 229.738 392.756C229.701 393.308 229.459 393.825 229.058 394.206C228.657 394.586 228.128 394.802 227.576 394.811Z" fill="white"/>
<path d="M255.872 402.013H201.126C200.86 402.019 200.595 401.969 200.349 401.866C200.103 401.764 199.882 401.611 199.699 401.417C199.516 401.223 199.376 400.994 199.287 400.742C199.199 400.491 199.164 400.224 199.186 399.958C199.222 399.407 199.465 398.89 199.866 398.509C200.266 398.129 200.795 397.913 201.348 397.904H256.094C256.36 397.898 256.625 397.948 256.87 398.051C257.116 398.153 257.338 398.306 257.521 398.5C257.704 398.693 257.844 398.923 257.932 399.175C258.02 399.426 258.055 399.693 258.034 399.958C257.997 400.51 257.754 401.027 257.354 401.408C256.953 401.788 256.424 402.004 255.872 402.013Z" fill="white"/>
<path d="M248.898 340.667H240.098C239.704 340.672 239.326 340.826 239.039 341.097C238.752 341.369 238.578 341.738 238.551 342.132C238.54 342.32 238.568 342.51 238.632 342.687C238.697 342.865 238.798 343.028 238.928 343.165C239.058 343.302 239.215 343.411 239.389 343.485C239.563 343.56 239.751 343.597 239.94 343.596H248.74C249.134 343.591 249.512 343.437 249.799 343.166C250.086 342.894 250.26 342.525 250.287 342.132C250.298 341.943 250.27 341.754 250.206 341.576C250.141 341.398 250.04 341.235 249.91 341.098C249.78 340.961 249.623 340.852 249.449 340.778C249.275 340.703 249.087 340.666 248.898 340.667Z" fill="white"/>
<path d="M264.596 340.667H254.395C254.001 340.673 253.622 340.826 253.336 341.097C253.049 341.369 252.875 341.738 252.848 342.132C252.837 342.32 252.864 342.51 252.929 342.687C252.994 342.865 253.095 343.028 253.225 343.165C253.355 343.302 253.512 343.411 253.686 343.486C253.86 343.56 254.047 343.597 254.237 343.596H264.438C264.832 343.591 265.21 343.437 265.497 343.166C265.784 342.894 265.958 342.525 265.985 342.132C265.997 341.943 265.97 341.753 265.905 341.575C265.841 341.397 265.741 341.234 265.61 341.096C265.48 340.959 265.322 340.85 265.148 340.776C264.973 340.702 264.786 340.665 264.596 340.667Z" fill="white"/>
<path d="M260.482 335.531H240.384C239.989 335.535 239.61 335.688 239.323 335.96C239.036 336.232 238.862 336.602 238.837 336.996C238.825 337.185 238.851 337.374 238.915 337.552C238.979 337.73 239.079 337.893 239.209 338.031C239.338 338.169 239.495 338.279 239.669 338.354C239.842 338.429 240.03 338.467 240.219 338.467H260.323C260.718 338.46 261.096 338.305 261.383 338.032C261.669 337.76 261.843 337.39 261.87 336.996C261.881 336.807 261.854 336.618 261.789 336.44C261.724 336.262 261.624 336.1 261.493 335.962C261.363 335.825 261.206 335.716 261.032 335.642C260.858 335.568 260.671 335.53 260.482 335.531Z" fill="white"/>
<path d="M149.276 297.891C147.203 299.609 145.06 301.479 143.088 303.356C142.099 304.3 141.136 305.258 140.242 306.247C139.375 307.176 138.58 308.17 137.864 309.22L137.744 309.398L137.687 309.499C137.635 309.579 137.59 309.664 137.554 309.753C137.465 309.949 137.382 310.197 137.294 310.457C137.125 311.033 136.993 311.62 136.901 312.213C136.703 313.536 136.576 314.87 136.52 316.207C136.387 318.946 136.387 321.805 136.438 324.601L133.471 325.045C132.727 322.177 132.219 319.253 131.949 316.302C131.807 314.77 131.771 313.23 131.841 311.693C131.892 310.863 131.998 310.037 132.158 309.22C132.247 308.76 132.368 308.307 132.52 307.864C132.615 307.616 132.684 307.388 132.811 307.128L132.989 306.748C133.052 306.634 133.097 306.564 133.147 306.462C133.923 305.06 134.83 303.733 135.854 302.5C136.804 301.316 137.813 300.182 138.879 299.102C140.965 296.965 143.193 294.972 145.548 293.136L149.276 297.891Z" fill="#B55B52"/>
<path d="M148.167 290.29C144.921 292.192 140.014 297.137 140.014 297.137L146.03 304.358C146.03 304.358 154.57 299.235 155.61 296.414C157.347 291.665 151.235 288.47 148.167 290.29Z" fill="#FF5000"/>
<path d="M136.305 323.53L137.04 327.822L133.053 327.245C133.053 327.245 132.235 324.329 134.321 323.327L136.305 323.53Z" fill="#B55B52"/>
<path d="M135.571 330.434L131.982 329.318L133.054 327.245L137.042 327.822L135.571 330.434Z" fill="#B55B52"/>
<path d="M172.305 275.124C172.305 275.562 172.546 275.917 172.837 275.923C173.129 275.929 173.351 275.574 173.345 275.143C173.338 274.712 173.104 274.351 172.812 274.344C172.52 274.338 172.298 274.693 172.305 275.124Z" fill="#263238"/>
<path d="M172.684 274.351L173.742 274.065C173.742 274.065 173.21 274.89 172.684 274.351Z" fill="#263238"/>
<path d="M172.678 275.555C173.086 276.56 173.627 277.504 174.288 278.364C174.062 278.518 173.805 278.622 173.534 278.668C173.264 278.714 172.987 278.701 172.722 278.63L172.678 275.555Z" fill="#A02724"/>
<path d="M172.855 272.227C172.814 272.239 172.77 272.239 172.729 272.227C172.416 272.113 172.082 272.073 171.751 272.112C171.421 272.15 171.104 272.266 170.827 272.449C170.8 272.47 170.769 272.485 170.736 272.494C170.703 272.503 170.669 272.505 170.635 272.5C170.601 272.495 170.569 272.484 170.54 272.466C170.511 272.449 170.485 272.425 170.465 272.398C170.425 272.343 170.407 272.274 170.417 272.207C170.426 272.139 170.462 272.078 170.516 272.036C170.859 271.808 171.251 271.662 171.66 271.61C172.069 271.559 172.485 271.603 172.874 271.738C172.939 271.76 172.992 271.806 173.023 271.867C173.053 271.927 173.059 271.997 173.039 272.062C173.024 272.102 172.999 272.138 172.967 272.166C172.935 272.195 172.897 272.216 172.855 272.227Z" fill="#263238"/>
<path d="M159.383 279.777C159.675 283.055 158.578 288.425 156.105 290.251C156.105 290.251 157.969 293.7 163.942 294.505C170.516 295.386 167.429 291.69 167.429 291.69C163.935 290.359 164.303 287.728 165.191 285.35L159.383 279.777Z" fill="#B55B52"/>
<path d="M171.055 294.239C174.18 295.089 177.464 295.906 180.685 296.636C182.308 296.984 183.931 297.27 185.554 297.618C187.177 297.967 188.807 298.189 190.423 298.398L191.057 298.48L191.476 298.525C191.767 298.525 192.11 298.525 192.427 298.525C193.164 298.474 193.896 298.374 194.62 298.227C196.19 297.903 197.742 297.494 199.268 297.003C202.393 296.027 205.563 294.848 208.664 293.63L210.071 296.274C207.149 298.187 204.081 299.868 200.897 301.302C199.25 302.046 197.555 302.682 195.825 303.204C194.9 303.478 193.957 303.69 193.004 303.838C192.478 303.909 191.949 303.954 191.419 303.971H190.556L189.922 303.92C186.431 303.678 182.958 303.217 179.525 302.538C176.102 301.9 172.716 301.079 169.381 300.078L171.055 294.239Z" fill="#B55B52"/>
<path d="M207.84 294.702L208.759 291.589L212.138 292.857C212.138 292.857 211.365 297.536 208.467 296.242L207.84 294.702Z" fill="#B55B52"/>
<path d="M210.719 289.522L214.168 289.909L212.139 292.857L208.76 291.589L210.719 289.522Z" fill="#B55B52"/>
<path d="M149.684 446.082L155.117 446.482L156.734 434.004L151.3 433.605L149.684 446.082Z" fill="#B55B52"/>
<path d="M109.613 421.895L113.303 425.991L123.612 418.865L119.922 414.775L109.613 421.895Z" fill="#B55B52"/>
<path d="M116.036 428.311C115.971 428.32 115.905 428.32 115.839 428.311C115.205 428.096 114.73 426.872 114.521 426.162C114.514 426.138 114.514 426.112 114.522 426.088C114.529 426.064 114.544 426.043 114.564 426.027C114.583 426.012 114.607 426.002 114.632 426C114.657 425.998 114.683 426.004 114.704 426.016C114.901 426.118 116.651 427.069 116.708 427.766C116.714 427.842 116.7 427.918 116.668 427.987C116.636 428.056 116.586 428.115 116.524 428.159C116.383 428.264 116.211 428.317 116.036 428.311ZM114.863 426.365C115.18 427.303 115.567 427.918 115.922 428.032C115.999 428.054 116.08 428.056 116.158 428.037C116.236 428.018 116.307 427.979 116.366 427.925C116.394 427.906 116.417 427.881 116.432 427.851C116.448 427.821 116.455 427.787 116.454 427.753C116.423 427.386 115.554 426.764 114.863 426.365Z" fill="#FF5000"/>
<path d="M116.246 426.618C115.667 426.607 115.097 426.466 114.579 426.206C114.56 426.194 114.544 426.177 114.533 426.157C114.522 426.137 114.516 426.115 114.516 426.092C114.515 426.069 114.521 426.047 114.534 426.027C114.546 426.008 114.564 425.993 114.585 425.984C114.636 425.953 115.98 425.211 116.722 425.464C116.819 425.495 116.908 425.547 116.982 425.616C117.057 425.685 117.115 425.77 117.153 425.864C117.204 425.954 117.222 426.059 117.203 426.161C117.185 426.263 117.131 426.355 117.052 426.422C116.813 426.576 116.529 426.645 116.246 426.618ZM114.928 426.092C115.562 426.352 116.602 426.472 116.887 426.231C116.931 426.187 116.982 426.124 116.887 425.965C116.863 425.905 116.827 425.85 116.779 425.805C116.732 425.76 116.676 425.726 116.614 425.705C116.026 425.659 115.437 425.794 114.928 426.092Z" fill="#FF5000"/>
<path d="M114.959 425.388L111.915 419.987C111.865 419.893 111.783 419.821 111.684 419.784C111.585 419.747 111.476 419.747 111.377 419.784L106.882 421.508C106.767 421.559 106.664 421.634 106.58 421.728C106.497 421.822 106.434 421.933 106.397 422.053C106.36 422.173 106.349 422.3 106.364 422.424C106.38 422.549 106.422 422.669 106.488 422.776C107.585 424.64 108.2 425.483 109.538 427.848C110.362 429.306 111.63 432.495 112.607 434.594C113.583 436.692 115.65 435.862 115.428 434.911C114.682 432.122 114.578 429.2 115.124 426.365C115.185 426.03 115.126 425.684 114.959 425.388Z" fill="#263238"/>
<path d="M157.481 446.659C156.906 446.647 156.333 446.584 155.769 446.469C155.743 446.463 155.72 446.449 155.702 446.43C155.684 446.411 155.672 446.387 155.667 446.361C155.663 446.334 155.668 446.307 155.68 446.283C155.693 446.259 155.713 446.24 155.737 446.228C155.984 446.101 158.191 444.96 158.844 445.359C158.905 445.393 158.957 445.443 158.994 445.503C159.03 445.563 159.051 445.631 159.053 445.702C159.065 445.82 159.048 445.939 159.004 446.05C158.96 446.16 158.89 446.258 158.799 446.336C158.408 446.588 157.944 446.702 157.481 446.659ZM156.213 446.285C157.411 446.481 158.305 446.431 158.647 446.133C158.705 446.082 158.749 446.018 158.777 445.946C158.804 445.874 158.814 445.797 158.806 445.721C158.806 445.693 158.8 445.665 158.786 445.641C158.773 445.616 158.754 445.596 158.73 445.581C158.356 445.385 157.107 445.854 156.2 446.285H156.213Z" fill="#FF5000"/>
<path d="M155.794 446.469C155.77 446.477 155.743 446.477 155.718 446.469C155.7 446.457 155.685 446.439 155.676 446.419C155.667 446.399 155.664 446.376 155.667 446.355C155.667 446.253 155.927 444.034 157.145 444.034H157.252C157.601 444.066 157.703 444.243 157.728 444.389C157.829 445.023 156.511 446.183 155.826 446.475C155.815 446.475 155.804 446.473 155.794 446.469ZM157.151 444.262C156.365 444.262 156.054 445.53 155.959 446.107C156.638 445.702 157.531 444.782 157.474 444.408C157.474 444.408 157.474 444.294 157.227 444.269L157.151 444.262Z" fill="#FF5000"/>
<path d="M155.459 445.708H149.347C149.241 445.708 149.138 445.746 149.057 445.814C148.976 445.882 148.922 445.977 148.904 446.082L148.086 450.913C148.069 451.034 148.079 451.157 148.115 451.274C148.15 451.391 148.21 451.499 148.29 451.591C148.371 451.683 148.47 451.757 148.581 451.807C148.692 451.857 148.813 451.883 148.935 451.883C151.066 451.845 152.105 451.718 154.781 451.718C156.429 451.718 159.853 451.89 162.129 451.89C164.405 451.89 164.589 449.639 163.644 449.43C159.409 448.517 157.761 447.249 156.359 446.044C156.108 445.829 155.79 445.71 155.459 445.708Z" fill="#263238"/>
<path opacity="0.2" d="M156.733 434.011L155.833 440.947L150.463 440.046L151.293 433.605L156.733 434.011Z" fill="black"/>
<path opacity="0.2" d="M119.917 414.775L123.607 418.871L119.346 421.813L115.523 417.812L119.917 414.775Z" fill="black"/>
<path d="M146.944 322.997L168.931 325.952C177.458 295.082 174.941 294.252 174.941 294.252C173.293 293.48 171.6 292.811 169.869 292.248L169.571 292.153C168.151 291.722 167.853 291.665 165.958 291.234C162.705 290.657 159.687 290.213 155.959 289.896C155.725 289.896 155.484 289.852 155.249 289.839C154.577 289.795 153.912 289.763 153.265 289.738C152.834 289.738 152.396 289.738 151.997 289.738H149.854C149.43 289.747 149.012 289.845 148.628 290.025C148.244 290.205 147.902 290.463 147.623 290.783C147.345 291.103 147.136 291.478 147.01 291.883C146.884 292.288 146.845 292.715 146.893 293.136C148.776 309.347 148.18 314.692 146.944 322.997Z" fill="#FF5000"/>
<path opacity="0.2" d="M169.564 301.232C169.717 302.665 173.026 305.283 174.174 304.58C174.503 302.861 174.744 301.41 174.915 300.243C173.254 300.116 170.002 298.284 169.564 301.232Z" fill="black"/>
<path d="M165.996 294.004C165.837 288.932 178.13 294.518 180.952 295.78L177.807 304.282C177.807 304.282 173.692 304.142 171.074 302.627C169.585 301.717 168.342 300.455 167.456 298.951C166.571 297.447 166.069 295.748 165.996 294.004Z" fill="#FF5000"/>
<path d="M157.519 273.717C157.925 279.08 157.982 281.356 160.759 284.146C164.924 288.337 171.486 286.853 172.703 281.521C173.8 276.722 172.95 268.759 167.631 266.552C166.489 266.041 165.234 265.836 163.988 265.958C162.743 266.08 161.551 266.525 160.53 267.248C159.509 267.971 158.694 268.948 158.166 270.083C157.638 271.217 157.415 272.47 157.519 273.717Z" fill="#B55B52"/>
<path d="M157.988 268.055C152.599 266.705 152.428 271.225 152.542 273.609C152.656 275.993 148.694 277.134 148.694 280.12C148.694 284.013 151.629 286.333 144.49 287.512C138.448 288.508 136.584 296.059 145.524 300.478C155.421 305.359 170.351 298.487 168.538 291.95C165.761 281.863 170.751 281.895 170.199 276.253C169.787 272.157 173.667 271.954 172.272 268.537C170.434 264.067 157.519 260.143 157.988 268.055Z" fill="#263238"/>
<path d="M151.751 275.619C151.009 271.713 151.415 269.126 152.955 267.916C154.94 266.35 157.989 267.706 158.116 267.763L157.856 268.34C157.856 268.34 155.022 267.072 153.342 268.41C152.004 269.469 151.681 271.853 152.372 275.498L151.751 275.619Z" fill="#263238"/>
<path d="M145.658 286.397C144.266 286.353 142.892 286.074 141.594 285.572L141.828 284.983C141.873 284.983 146.146 286.682 148.124 285.04C149.088 284.241 149.36 282.745 148.942 280.602L149.576 280.481C150.045 282.884 149.696 284.59 148.542 285.553C147.708 286.161 146.688 286.46 145.658 286.397Z" fill="#263238"/>
<path d="M168.735 275.878C168.684 276.879 168.943 277.871 169.477 278.719C170.212 279.917 171.207 279.695 171.531 278.681C171.854 277.666 171.797 276.037 170.802 275.168C169.806 274.3 168.836 274.769 168.735 275.878Z" fill="#B55B52"/>
<path d="M163.143 325.172C163.143 325.172 154.597 361.31 150.603 382.036C146.393 403.928 121.439 421.787 121.439 421.787L115.961 416.151C115.961 416.151 132.027 402.089 136.154 381.649C144.529 340.16 138.861 331.804 146.932 322.998L163.143 325.172Z" fill="#263238"/>
<path d="M121.907 422.599L115.066 415.561L116.987 413.495L124.931 420.488L121.907 422.599Z" fill="#FF5000"/>
<path opacity="0.2" d="M158.604 333.021C151.96 338.79 152.676 359.262 153.374 368.487C156.157 355.37 159.511 340.762 161.476 332.311C160.772 331.791 159.821 331.962 158.604 333.021Z" fill="black"/>
<path d="M168.627 325.971C168.627 325.971 172.469 368.848 170.371 385.206C168.19 402.216 157.057 439.229 157.057 439.229L149.277 438.221C149.277 438.221 155.617 401.538 156.778 384.698C158.008 366.312 152.536 323.834 152.536 323.834L168.627 325.971Z" fill="#263238"/>
<path d="M158.755 439.679L147.584 438.233L147.755 434.937L159.877 436.109L158.755 439.679Z" fill="#FF5000"/>
<path d="M146.741 321.672L145.536 323.492C145.447 323.638 145.612 323.815 145.866 323.847L168.931 326.972C169.127 326.972 169.305 326.922 169.33 326.801L169.736 324.899C169.767 324.766 169.603 324.627 169.387 324.595L147.102 321.609C147.041 321.588 146.976 321.583 146.913 321.594C146.85 321.605 146.791 321.632 146.741 321.672Z" fill="#FF5000"/>
<path opacity="0.3" d="M146.741 321.672L145.536 323.492C145.447 323.638 145.612 323.815 145.866 323.847L168.931 326.972C169.127 326.972 169.305 326.922 169.33 326.801L169.736 324.899C169.767 324.766 169.603 324.627 169.387 324.595L147.102 321.609C147.041 321.588 146.976 321.583 146.913 321.594C146.85 321.605 146.791 321.632 146.741 321.672Z" fill="black"/>
<path d="M149.48 324.544L148.884 324.468C148.763 324.468 148.681 324.379 148.7 324.303L149.245 321.799C149.245 321.729 149.372 321.685 149.492 321.697L150.088 321.78C150.209 321.78 150.291 321.869 150.279 321.938L149.727 324.443C149.714 324.519 149.6 324.563 149.48 324.544Z" fill="#263238"/>
<path d="M164.557 326.605L163.961 326.522C163.841 326.522 163.758 326.433 163.771 326.364L164.322 323.859C164.322 323.79 164.449 323.739 164.57 323.758L165.166 323.834C165.286 323.834 165.369 323.923 165.349 323.999L164.804 326.503C164.785 326.573 164.677 326.624 164.557 326.605Z" fill="#263238"/>
</svg>
