<svg width="390" height="844" viewBox="0 0 390 844" fill="none" xmlns="http://www.w3.org/2000/svg">
<rect width="390" height="844" fill="#FCF5F2"/>
<path d="M212.893 308.105C173.756 307.541 121.559 366.686 88.686 326.231C49.5492 278.047 137.504 254.589 157.57 220.068C185.859 171.37 255.523 206.456 285.486 263.306C296.657 284.495 286.621 320.366 260.963 323.27C232.965 326.459 235.318 308.428 212.893 308.105Z" fill="#FF5000"/>
<path opacity="0.9" d="M212.893 308.105C173.756 307.541 121.559 366.686 88.686 326.231C49.5492 278.047 137.504 254.589 157.57 220.068C185.859 171.37 255.523 206.456 285.486 263.306C296.657 284.495 286.621 320.366 260.963 323.27C232.965 326.459 235.318 308.428 212.893 308.105Z" fill="white"/>
<path d="M194.926 422.199C262.817 422.199 317.853 418.986 317.853 415.023C317.853 411.059 262.817 407.846 194.926 407.846C127.036 407.846 72 411.059 72 415.023C72 418.986 127.036 422.199 194.926 422.199Z" fill="#F5F5F5"/>
<path d="M281.641 337.583L280.822 352.51L281.455 352.545L282.274 337.618L281.641 337.583Z" fill="#FF5000"/>
<path d="M282.34 324.92L281.918 332.612L282.551 332.647L282.973 324.955L282.34 324.92Z" fill="#FF5000"/>
<path d="M268.977 380.964H194.659C193.535 380.978 192.42 380.759 191.385 380.322C190.349 379.884 189.415 379.237 188.641 378.422C187.867 377.606 187.27 376.639 186.888 375.582C186.505 374.525 186.345 373.4 186.417 372.278L194.976 216.238C195.136 213.9 196.17 211.707 197.874 210.097C199.578 208.488 201.826 207.579 204.169 207.552H278.493C279.615 207.544 280.725 207.767 281.757 208.207C282.788 208.646 283.718 209.294 284.489 210.109C285.259 210.924 285.853 211.888 286.234 212.943C286.615 213.997 286.775 215.119 286.704 216.238L278.138 372.278C277.981 374.612 276.951 376.801 275.254 378.41C273.556 380.02 271.316 380.931 268.977 380.964Z" fill="#FF5000"/>
<path opacity="0.8" d="M264.482 380.964H194.659C193.535 380.978 192.42 380.759 191.385 380.322C190.349 379.884 189.415 379.237 188.641 378.422C187.867 377.606 187.27 376.64 186.888 375.582C186.505 374.525 186.345 373.4 186.417 372.278L194.976 216.238C195.136 213.9 196.17 211.707 197.874 210.097C199.578 208.488 201.826 207.579 204.169 207.553H273.998C275.12 207.543 276.231 207.765 277.263 208.205C278.295 208.644 279.225 209.292 279.996 210.107C280.766 210.922 281.36 211.887 281.741 212.942C282.122 213.997 282.281 215.119 282.208 216.238L273.649 372.278C273.489 374.612 272.458 376.8 270.76 378.409C269.061 380.018 266.821 380.93 264.482 380.964Z" fill="white"/>
<path d="M229.878 235.841H209.825C209.351 235.845 208.882 235.751 208.446 235.565C208.011 235.379 207.618 235.105 207.293 234.761C206.969 234.416 206.718 234.008 206.558 233.563C206.398 233.117 206.332 232.643 206.363 232.171C206.43 231.186 206.865 230.262 207.581 229.583C208.298 228.904 209.243 228.52 210.23 228.506H230.284C230.757 228.501 231.226 228.595 231.662 228.78C232.097 228.965 232.49 229.238 232.815 229.582C233.14 229.926 233.39 230.334 233.55 230.779C233.711 231.225 233.777 231.698 233.746 232.171C233.679 233.156 233.244 234.08 232.528 234.76C231.811 235.44 230.866 235.826 229.878 235.841Z" fill="white"/>
<path d="M233.746 232.171C233.633 233.948 232.85 235.617 231.557 236.841C230.263 238.066 228.553 238.755 226.772 238.771C225.919 238.78 225.073 238.614 224.288 238.281C223.503 237.948 222.795 237.456 222.209 236.836C221.623 236.216 221.171 235.481 220.883 234.678C220.595 233.876 220.476 233.022 220.534 232.171C220.647 230.393 221.43 228.724 222.724 227.5C224.017 226.276 225.727 225.586 227.508 225.571C228.361 225.561 229.207 225.728 229.992 226.061C230.777 226.394 231.485 226.886 232.071 227.506C232.657 228.125 233.109 228.86 233.397 229.663C233.685 230.466 233.804 231.32 233.746 232.171Z" fill="#FF5000"/>
<path d="M228.591 259.306H208.538C208.064 259.309 207.595 259.215 207.159 259.029C206.724 258.843 206.331 258.57 206.006 258.225C205.681 257.881 205.431 257.473 205.271 257.027C205.111 256.581 205.045 256.107 205.076 255.635C205.143 254.65 205.578 253.726 206.294 253.047C207.011 252.369 207.956 251.984 208.943 251.97H228.997C229.47 251.966 229.939 252.059 230.375 252.244C230.81 252.43 231.203 252.703 231.528 253.047C231.853 253.391 232.103 253.798 232.263 254.244C232.423 254.689 232.49 255.163 232.458 255.635C232.392 256.62 231.957 257.545 231.241 258.225C230.524 258.905 229.579 259.291 228.591 259.306Z" fill="white"/>
<path d="M221.485 260.254C224.171 257.641 224.343 253.462 221.869 250.92C219.396 248.377 215.214 248.434 212.529 251.047C209.843 253.659 209.671 257.838 212.144 260.38C214.618 262.923 218.8 262.866 221.485 260.254Z" fill="#FF5000"/>
<path opacity="0.3" d="M221.485 260.254C224.171 257.641 224.343 253.462 221.869 250.92C219.396 248.377 215.214 248.434 212.529 251.047C209.843 253.659 209.671 257.838 212.144 260.38C214.618 262.923 218.8 262.866 221.485 260.254Z" fill="#FAFAFA"/>
<path d="M205.963 306.235H225.991C226.979 306.219 227.925 305.833 228.641 305.153C229.358 304.473 229.792 303.549 229.859 302.564C229.89 302.091 229.824 301.617 229.663 301.171C229.503 300.725 229.252 300.317 228.926 299.973C228.6 299.629 228.207 299.356 227.771 299.171C227.334 298.986 226.865 298.894 226.391 298.899H206.369C205.382 298.913 204.435 299.297 203.717 299.976C203 300.655 202.564 301.578 202.495 302.564C202.465 303.037 202.532 303.511 202.693 303.956C202.854 304.402 203.105 304.81 203.43 305.154C203.756 305.499 204.148 305.772 204.584 305.958C205.02 306.144 205.49 306.238 205.963 306.235Z" fill="white"/>
<path d="M213.579 307.173C216.264 304.56 216.436 300.381 213.963 297.839C211.49 295.296 207.308 295.353 204.622 297.966C201.937 300.578 201.765 304.757 204.238 307.299C206.711 309.842 210.893 309.785 213.579 307.173Z" fill="#FF5000"/>
<path opacity="0.7" d="M213.579 307.173C216.264 304.56 216.436 300.381 213.963 297.839C211.49 295.296 207.308 295.353 204.622 297.966C201.937 300.578 201.765 304.757 204.238 307.299C206.711 309.842 210.893 309.785 213.579 307.173Z" fill="#FAFAFA"/>
<path d="M224.723 329.699H204.676C204.202 329.702 203.733 329.608 203.297 329.423C202.861 329.237 202.468 328.963 202.143 328.619C201.818 328.274 201.567 327.866 201.406 327.421C201.245 326.975 201.178 326.501 201.208 326.028C201.277 325.043 201.713 324.119 202.43 323.44C203.148 322.761 204.094 322.377 205.082 322.364H225.129C225.603 322.358 226.073 322.451 226.509 322.636C226.945 322.82 227.339 323.093 227.664 323.438C227.99 323.782 228.241 324.19 228.401 324.635C228.562 325.081 228.629 325.555 228.597 326.028C228.53 327.015 228.095 327.94 227.377 328.62C226.659 329.3 225.712 329.685 224.723 329.699Z" fill="white"/>
<path d="M228.598 326.028C228.484 327.806 227.702 329.475 226.408 330.699C225.114 331.923 223.405 332.613 221.624 332.628C220.771 332.638 219.925 332.471 219.139 332.138C218.353 331.805 217.645 331.313 217.058 330.694C216.472 330.074 216.02 329.339 215.731 328.536C215.442 327.734 215.322 326.88 215.379 326.028C215.496 324.252 216.279 322.585 217.572 321.361C218.865 320.137 220.573 319.447 222.353 319.428C223.207 319.418 224.053 319.584 224.839 319.916C225.625 320.249 226.334 320.741 226.921 321.361C227.507 321.981 227.959 322.716 228.248 323.519C228.537 324.322 228.656 325.177 228.598 326.028Z" fill="#FF5000"/>
<path d="M207.25 282.77H227.304C228.291 282.755 229.237 282.369 229.954 281.689C230.67 281.009 231.105 280.085 231.171 279.099C231.203 278.627 231.136 278.152 230.976 277.707C230.815 277.261 230.564 276.853 230.238 276.509C229.913 276.165 229.519 275.892 229.083 275.707C228.647 275.522 228.177 275.429 227.703 275.435H207.656C206.669 275.448 205.723 275.833 205.007 276.512C204.29 277.191 203.856 278.114 203.789 279.099C203.757 279.572 203.824 280.046 203.984 280.491C204.144 280.937 204.394 281.345 204.719 281.69C205.044 282.034 205.437 282.308 205.872 282.494C206.308 282.68 206.777 282.774 207.25 282.77Z" fill="white"/>
<path d="M203.801 279.099C203.744 279.95 203.863 280.804 204.151 281.607C204.439 282.41 204.89 283.145 205.476 283.764C206.062 284.384 206.77 284.876 207.556 285.209C208.341 285.542 209.187 285.709 210.04 285.699C211.821 285.684 213.53 284.994 214.824 283.77C216.118 282.546 216.9 280.877 217.014 279.099C217.072 278.248 216.953 277.394 216.664 276.592C216.376 275.789 215.925 275.054 215.339 274.434C214.753 273.814 214.045 273.322 213.259 272.989C212.474 272.656 211.628 272.49 210.775 272.499C208.994 272.515 207.285 273.204 205.991 274.429C204.697 275.653 203.915 277.322 203.801 279.099Z" fill="#FF5000"/>
<path opacity="0.7" d="M203.801 279.099C203.744 279.95 203.863 280.804 204.151 281.607C204.439 282.41 204.89 283.145 205.476 283.764C206.062 284.384 206.77 284.876 207.556 285.209C208.341 285.542 209.187 285.709 210.04 285.699C211.821 285.684 213.53 284.994 214.824 283.77C216.118 282.546 216.9 280.877 217.014 279.099C217.072 278.248 216.953 277.394 216.664 276.592C216.376 275.789 215.925 275.054 215.339 274.434C214.753 273.814 214.045 273.322 213.259 272.989C212.474 272.656 211.628 272.49 210.775 272.499C208.994 272.515 207.285 273.204 205.991 274.429C204.697 275.653 203.915 277.322 203.801 279.099Z" fill="#FAFAFA"/>
<path d="M273.802 231.074H244.08C243.891 231.075 243.704 231.036 243.53 230.961C243.356 230.886 243.2 230.776 243.07 230.638C242.941 230.501 242.841 230.338 242.777 230.159C242.713 229.981 242.686 229.792 242.698 229.603C242.725 229.21 242.899 228.84 243.186 228.569C243.472 228.298 243.851 228.144 244.245 228.139H273.967C274.156 228.137 274.343 228.175 274.517 228.249C274.691 228.324 274.847 228.433 274.977 228.57C275.106 228.708 275.206 228.87 275.271 229.048C275.335 229.226 275.361 229.415 275.349 229.603C275.324 229.998 275.15 230.369 274.864 230.641C274.577 230.914 274.198 231.069 273.802 231.074Z" fill="white"/>
<path d="M263.899 236.209H243.801C243.612 236.211 243.424 236.173 243.249 236.098C243.075 236.024 242.917 235.914 242.787 235.776C242.657 235.638 242.557 235.475 242.492 235.296C242.428 235.118 242.401 234.928 242.413 234.738C242.44 234.345 242.614 233.976 242.901 233.704C243.187 233.433 243.565 233.279 243.96 233.274H264.064C264.253 233.273 264.441 233.31 264.615 233.385C264.789 233.459 264.946 233.568 265.076 233.705C265.206 233.842 265.307 234.005 265.371 234.183C265.436 234.36 265.464 234.55 265.453 234.738C265.426 235.134 265.251 235.505 264.963 235.777C264.675 236.05 264.296 236.204 263.899 236.209Z" fill="white"/>
<path d="M264.9 324.932H238.906C238.717 324.932 238.53 324.893 238.356 324.819C238.182 324.744 238.026 324.634 237.896 324.496C237.767 324.358 237.667 324.195 237.603 324.017C237.539 323.839 237.512 323.649 237.524 323.461C237.55 323.066 237.724 322.696 238.01 322.425C238.297 322.153 238.676 322 239.071 321.996H265.034C265.223 321.995 265.41 322.033 265.584 322.107C265.758 322.181 265.915 322.29 266.045 322.427C266.176 322.565 266.276 322.727 266.341 322.905C266.406 323.083 266.433 323.272 266.422 323.461C266.396 323.851 266.225 324.217 265.944 324.489C265.663 324.761 265.291 324.918 264.9 324.932Z" fill="white"/>
<path d="M251.485 330.06H238.672C238.483 330.062 238.296 330.024 238.122 329.95C237.947 329.876 237.791 329.767 237.66 329.629C237.53 329.492 237.43 329.329 237.365 329.152C237.3 328.974 237.272 328.785 237.284 328.596C237.311 328.202 237.485 327.833 237.771 327.562C238.058 327.29 238.436 327.137 238.831 327.131H251.663C251.852 327.13 252.039 327.168 252.213 327.242C252.388 327.316 252.544 327.425 252.675 327.563C252.805 327.7 252.905 327.862 252.97 328.04C253.035 328.218 253.063 328.407 253.051 328.596C253.024 328.993 252.847 329.365 252.557 329.637C252.266 329.908 251.883 330.06 251.485 330.06Z" fill="white"/>
<path d="M272.394 256.738H242.672C242.278 256.744 241.9 256.897 241.613 257.169C241.327 257.44 241.153 257.809 241.126 258.203C241.114 258.392 241.142 258.581 241.207 258.759C241.271 258.936 241.372 259.099 241.502 259.236C241.632 259.373 241.789 259.483 241.963 259.557C242.137 259.631 242.325 259.669 242.514 259.667H272.236C272.63 259.662 273.009 259.508 273.295 259.237C273.582 258.966 273.756 258.597 273.783 258.203C273.794 258.014 273.767 257.825 273.702 257.647C273.637 257.469 273.536 257.307 273.406 257.169C273.276 257.032 273.119 256.923 272.945 256.849C272.771 256.775 272.584 256.737 272.394 256.738Z" fill="white"/>
<path d="M263.056 251.603H242.958C242.563 251.608 242.185 251.762 241.899 252.033C241.612 252.304 241.438 252.673 241.411 253.067C241.399 253.256 241.426 253.445 241.49 253.623C241.554 253.801 241.654 253.964 241.783 254.102C241.913 254.24 242.069 254.35 242.243 254.425C242.417 254.5 242.604 254.538 242.793 254.538H262.897C263.292 254.531 263.671 254.376 263.957 254.104C264.244 253.831 264.417 253.461 264.444 253.067C264.457 252.878 264.43 252.689 264.365 252.51C264.301 252.332 264.2 252.169 264.07 252.032C263.939 251.894 263.782 251.785 263.608 251.711C263.433 251.637 263.245 251.6 263.056 251.603Z" fill="white"/>
<path d="M256.753 278.003H241.537C241.348 278.003 241.161 277.965 240.987 277.89C240.813 277.815 240.657 277.705 240.527 277.567C240.398 277.429 240.298 277.266 240.234 277.088C240.17 276.91 240.143 276.721 240.155 276.532C240.181 276.137 240.354 275.767 240.641 275.496C240.928 275.224 241.307 275.071 241.702 275.067H256.918C257.109 275.063 257.298 275.099 257.475 275.172C257.651 275.245 257.81 275.354 257.943 275.491C258.075 275.629 258.177 275.792 258.243 275.971C258.309 276.15 258.337 276.341 258.326 276.532C258.298 276.93 258.121 277.304 257.829 277.577C257.537 277.85 257.153 278.002 256.753 278.003Z" fill="white"/>
<path d="M271.228 278.003H262.251C262.061 278.004 261.873 277.966 261.698 277.892C261.524 277.817 261.367 277.707 261.236 277.569C261.106 277.431 261.006 277.268 260.941 277.09C260.877 276.911 260.85 276.721 260.862 276.532C260.889 276.138 261.063 275.769 261.35 275.498C261.636 275.226 262.015 275.073 262.409 275.067H271.393C271.582 275.066 271.769 275.104 271.943 275.178C272.117 275.252 272.273 275.361 272.403 275.499C272.532 275.636 272.632 275.799 272.696 275.977C272.761 276.154 272.787 276.343 272.775 276.532C272.748 276.926 272.574 277.296 272.288 277.568C272.001 277.841 271.623 277.996 271.228 278.003Z" fill="white"/>
<path d="M261.324 283.132H241.207C241.018 283.133 240.831 283.095 240.657 283.021C240.483 282.947 240.326 282.838 240.196 282.701C240.065 282.563 239.965 282.401 239.9 282.223C239.835 282.045 239.808 281.856 239.819 281.667C239.846 281.273 240.02 280.904 240.307 280.633C240.593 280.362 240.971 280.208 241.366 280.203H261.495C261.685 280.201 261.872 280.239 262.046 280.313C262.22 280.387 262.377 280.497 262.507 280.634C262.637 280.771 262.738 280.934 262.803 281.111C262.867 281.289 262.895 281.478 262.884 281.667C262.857 282.063 262.681 282.434 262.391 282.706C262.102 282.977 261.721 283.129 261.324 283.132Z" fill="white"/>
<path d="M236.135 350.646H201.899C201.633 350.653 201.368 350.603 201.123 350.5C200.877 350.398 200.655 350.245 200.472 350.051C200.289 349.857 200.149 349.627 200.061 349.376C199.973 349.125 199.938 348.858 199.959 348.592C199.997 348.04 200.241 347.523 200.643 347.143C201.045 346.762 201.574 346.546 202.128 346.538H236.364C236.63 346.532 236.894 346.582 237.14 346.684C237.386 346.787 237.608 346.94 237.79 347.134C237.973 347.327 238.114 347.557 238.202 347.808C238.29 348.06 238.325 348.327 238.304 348.592C238.267 349.145 238.023 349.663 237.621 350.044C237.22 350.424 236.689 350.64 236.135 350.646Z" fill="white"/>
<path d="M266.656 350.646H245.645C245.379 350.653 245.114 350.603 244.869 350.5C244.623 350.398 244.401 350.245 244.218 350.051C244.036 349.857 243.895 349.627 243.807 349.376C243.719 349.125 243.684 348.858 243.705 348.592C243.743 348.04 243.987 347.523 244.389 347.143C244.791 346.762 245.32 346.546 245.874 346.538H266.884C267.151 346.532 267.415 346.582 267.661 346.684C267.907 346.787 268.128 346.94 268.311 347.134C268.494 347.327 268.634 347.557 268.723 347.808C268.811 348.06 268.846 348.327 268.824 348.592C268.786 349.144 268.542 349.662 268.141 350.042C267.739 350.422 267.209 350.638 266.656 350.646Z" fill="white"/>
<path d="M227.576 357.811H201.518C201.252 357.817 200.988 357.767 200.742 357.664C200.496 357.562 200.274 357.409 200.091 357.215C199.909 357.021 199.768 356.791 199.68 356.54C199.592 356.289 199.557 356.022 199.578 355.756C199.615 355.204 199.859 354.686 200.261 354.305C200.662 353.924 201.193 353.709 201.747 353.702H227.798C228.064 353.696 228.329 353.746 228.574 353.848C228.82 353.951 229.042 354.104 229.225 354.298C229.408 354.491 229.548 354.721 229.636 354.973C229.725 355.224 229.759 355.491 229.738 355.756C229.701 356.308 229.459 356.825 229.058 357.206C228.657 357.586 228.128 357.802 227.576 357.811Z" fill="white"/>
<path d="M255.872 365.013H201.126C200.86 365.019 200.595 364.969 200.349 364.866C200.103 364.764 199.882 364.611 199.699 364.417C199.516 364.223 199.376 363.994 199.287 363.742C199.199 363.491 199.164 363.224 199.186 362.958C199.222 362.407 199.465 361.89 199.866 361.509C200.266 361.129 200.795 360.913 201.348 360.904H256.094C256.36 360.898 256.625 360.948 256.87 361.051C257.116 361.153 257.338 361.306 257.521 361.5C257.704 361.693 257.844 361.923 257.932 362.175C258.02 362.426 258.055 362.693 258.034 362.958C257.997 363.51 257.754 364.027 257.354 364.408C256.953 364.788 256.424 365.004 255.872 365.013Z" fill="white"/>
<path d="M248.898 303.667H240.098C239.704 303.672 239.326 303.826 239.039 304.097C238.752 304.369 238.578 304.738 238.551 305.132C238.54 305.32 238.568 305.51 238.632 305.687C238.697 305.865 238.798 306.028 238.928 306.165C239.058 306.302 239.215 306.411 239.389 306.485C239.563 306.56 239.751 306.597 239.94 306.596H248.74C249.134 306.591 249.512 306.437 249.799 306.166C250.086 305.894 250.26 305.525 250.287 305.132C250.298 304.943 250.27 304.754 250.206 304.576C250.141 304.398 250.04 304.235 249.91 304.098C249.78 303.961 249.623 303.852 249.449 303.778C249.275 303.703 249.087 303.666 248.898 303.667Z" fill="white"/>
<path d="M264.596 303.667H254.395C254.001 303.673 253.622 303.826 253.336 304.097C253.049 304.369 252.875 304.738 252.848 305.132C252.837 305.32 252.864 305.51 252.929 305.687C252.994 305.865 253.095 306.028 253.225 306.165C253.355 306.302 253.512 306.411 253.686 306.486C253.86 306.56 254.047 306.597 254.237 306.596H264.438C264.832 306.591 265.21 306.437 265.497 306.166C265.784 305.894 265.958 305.525 265.985 305.132C265.997 304.943 265.97 304.753 265.905 304.575C265.841 304.397 265.741 304.234 265.61 304.096C265.48 303.959 265.322 303.85 265.148 303.776C264.973 303.702 264.786 303.665 264.596 303.667Z" fill="white"/>
<path d="M260.482 298.531H240.384C239.989 298.535 239.61 298.688 239.323 298.96C239.036 299.232 238.862 299.602 238.837 299.996C238.825 300.185 238.851 300.374 238.915 300.552C238.979 300.73 239.079 300.893 239.209 301.031C239.338 301.169 239.495 301.279 239.669 301.354C239.842 301.429 240.03 301.467 240.219 301.467H260.323C260.718 301.46 261.096 301.305 261.383 301.032C261.669 300.76 261.843 300.39 261.87 299.996C261.881 299.807 261.854 299.618 261.789 299.44C261.724 299.262 261.624 299.1 261.493 298.962C261.363 298.825 261.206 298.716 261.032 298.642C260.858 298.568 260.671 298.53 260.482 298.531Z" fill="white"/>
<path d="M149.276 260.891C147.203 262.609 145.06 264.479 143.088 266.356C142.099 267.3 141.136 268.258 140.242 269.247C139.375 270.176 138.58 271.17 137.864 272.22L137.744 272.398L137.687 272.499C137.635 272.579 137.59 272.664 137.554 272.753C137.465 272.949 137.382 273.197 137.294 273.457C137.125 274.033 136.993 274.62 136.901 275.213C136.703 276.536 136.576 277.87 136.52 279.207C136.387 281.946 136.387 284.805 136.438 287.601L133.471 288.045C132.727 285.177 132.219 282.253 131.949 279.302C131.807 277.77 131.771 276.23 131.841 274.693C131.892 273.863 131.998 273.037 132.158 272.22C132.247 271.76 132.368 271.307 132.52 270.864C132.615 270.616 132.684 270.388 132.811 270.128L132.989 269.748C133.052 269.634 133.097 269.564 133.147 269.462C133.923 268.06 134.83 266.733 135.854 265.5C136.804 264.316 137.813 263.182 138.879 262.102C140.965 259.965 143.193 257.972 145.548 256.136L149.276 260.891Z" fill="#B55B52"/>
<path d="M148.167 253.29C144.921 255.192 140.014 260.137 140.014 260.137L146.03 267.358C146.03 267.358 154.57 262.235 155.61 259.414C157.347 254.665 151.235 251.47 148.167 253.29Z" fill="#FF5000"/>
<path d="M136.305 286.53L137.04 290.822L133.053 290.245C133.053 290.245 132.235 287.329 134.321 286.327L136.305 286.53Z" fill="#B55B52"/>
<path d="M135.571 293.434L131.982 292.318L133.054 290.245L137.042 290.822L135.571 293.434Z" fill="#B55B52"/>
<path d="M172.305 238.124C172.305 238.562 172.546 238.917 172.837 238.923C173.129 238.929 173.351 238.574 173.345 238.143C173.338 237.712 173.104 237.351 172.812 237.344C172.52 237.338 172.298 237.693 172.305 238.124Z" fill="#263238"/>
<path d="M172.684 237.351L173.742 237.065C173.742 237.065 173.21 237.89 172.684 237.351Z" fill="#263238"/>
<path d="M172.678 238.555C173.086 239.56 173.627 240.504 174.288 241.364C174.062 241.518 173.805 241.622 173.534 241.668C173.264 241.714 172.987 241.701 172.722 241.63L172.678 238.555Z" fill="#A02724"/>
<path d="M172.855 235.227C172.814 235.239 172.77 235.239 172.729 235.227C172.416 235.113 172.082 235.073 171.751 235.112C171.421 235.15 171.104 235.266 170.827 235.449C170.8 235.47 170.769 235.485 170.736 235.494C170.703 235.503 170.669 235.505 170.635 235.5C170.601 235.495 170.569 235.484 170.54 235.466C170.511 235.449 170.485 235.425 170.465 235.398C170.425 235.343 170.407 235.274 170.417 235.207C170.426 235.139 170.462 235.078 170.516 235.036C170.859 234.808 171.251 234.662 171.66 234.61C172.069 234.559 172.485 234.603 172.874 234.738C172.939 234.76 172.992 234.806 173.023 234.867C173.053 234.927 173.059 234.997 173.039 235.062C173.024 235.102 172.999 235.138 172.967 235.166C172.935 235.195 172.897 235.216 172.855 235.227Z" fill="#263238"/>
<path d="M159.383 242.777C159.675 246.055 158.578 251.425 156.105 253.251C156.105 253.251 157.969 256.7 163.942 257.505C170.516 258.386 167.429 254.69 167.429 254.69C163.935 253.359 164.303 250.728 165.191 248.35L159.383 242.777Z" fill="#B55B52"/>
<path d="M171.055 257.239C174.18 258.089 177.464 258.906 180.685 259.636C182.308 259.984 183.931 260.27 185.554 260.618C187.177 260.967 188.807 261.189 190.423 261.398L191.057 261.48L191.476 261.525C191.767 261.525 192.11 261.525 192.427 261.525C193.164 261.474 193.896 261.374 194.62 261.227C196.19 260.903 197.742 260.494 199.268 260.003C202.393 259.027 205.563 257.848 208.664 256.63L210.071 259.274C207.149 261.187 204.081 262.868 200.897 264.302C199.25 265.046 197.555 265.682 195.825 266.204C194.9 266.478 193.957 266.69 193.004 266.838C192.478 266.909 191.949 266.954 191.419 266.971H190.556L189.922 266.92C186.431 266.678 182.958 266.217 179.525 265.538C176.102 264.9 172.716 264.079 169.381 263.078L171.055 257.239Z" fill="#B55B52"/>
<path d="M207.84 257.702L208.759 254.589L212.138 255.857C212.138 255.857 211.365 260.536 208.467 259.242L207.84 257.702Z" fill="#B55B52"/>
<path d="M210.719 252.522L214.168 252.909L212.139 255.857L208.76 254.589L210.719 252.522Z" fill="#B55B52"/>
<path d="M149.684 409.082L155.117 409.482L156.734 397.004L151.3 396.605L149.684 409.082Z" fill="#B55B52"/>
<path d="M109.613 384.895L113.303 388.991L123.612 381.865L119.922 377.775L109.613 384.895Z" fill="#B55B52"/>
<path d="M116.036 391.311C115.971 391.32 115.905 391.32 115.839 391.311C115.205 391.096 114.73 389.872 114.521 389.162C114.514 389.138 114.514 389.112 114.522 389.088C114.529 389.064 114.544 389.043 114.564 389.027C114.583 389.012 114.607 389.002 114.632 389C114.657 388.998 114.683 389.004 114.704 389.016C114.901 389.118 116.651 390.069 116.708 390.766C116.714 390.842 116.7 390.918 116.668 390.987C116.636 391.056 116.586 391.115 116.524 391.159C116.383 391.264 116.211 391.317 116.036 391.311ZM114.863 389.365C115.18 390.303 115.567 390.918 115.922 391.032C115.999 391.054 116.08 391.056 116.158 391.037C116.236 391.018 116.307 390.979 116.366 390.925C116.394 390.906 116.417 390.881 116.432 390.851C116.448 390.821 116.455 390.787 116.454 390.753C116.423 390.386 115.554 389.764 114.863 389.365Z" fill="#FF5000"/>
<path d="M116.246 389.618C115.667 389.607 115.097 389.466 114.579 389.206C114.56 389.194 114.544 389.177 114.533 389.157C114.522 389.137 114.516 389.115 114.516 389.092C114.515 389.069 114.521 389.047 114.534 389.027C114.546 389.008 114.564 388.993 114.585 388.984C114.636 388.953 115.98 388.211 116.722 388.464C116.819 388.495 116.908 388.547 116.982 388.616C117.057 388.685 117.115 388.77 117.153 388.864C117.204 388.954 117.222 389.059 117.203 389.161C117.185 389.263 117.131 389.355 117.052 389.422C116.813 389.576 116.529 389.645 116.246 389.618ZM114.928 389.092C115.562 389.352 116.602 389.472 116.887 389.231C116.931 389.187 116.982 389.124 116.887 388.965C116.863 388.905 116.827 388.85 116.779 388.805C116.732 388.76 116.676 388.726 116.614 388.705C116.026 388.659 115.437 388.794 114.928 389.092Z" fill="#FF5000"/>
<path d="M114.959 388.388L111.915 382.987C111.865 382.893 111.783 382.821 111.684 382.784C111.585 382.747 111.476 382.747 111.377 382.784L106.882 384.508C106.767 384.559 106.664 384.634 106.58 384.728C106.497 384.822 106.434 384.933 106.397 385.053C106.36 385.173 106.349 385.3 106.364 385.424C106.38 385.549 106.422 385.669 106.488 385.776C107.585 387.64 108.2 388.483 109.538 390.848C110.362 392.306 111.63 395.495 112.607 397.594C113.583 399.692 115.65 398.862 115.428 397.911C114.682 395.122 114.578 392.2 115.124 389.365C115.185 389.03 115.126 388.684 114.959 388.388Z" fill="#263238"/>
<path d="M157.481 409.659C156.906 409.647 156.333 409.584 155.769 409.469C155.743 409.463 155.72 409.449 155.702 409.43C155.684 409.411 155.672 409.387 155.667 409.361C155.663 409.334 155.668 409.307 155.68 409.283C155.693 409.259 155.713 409.24 155.737 409.228C155.984 409.101 158.191 407.96 158.844 408.359C158.905 408.393 158.957 408.443 158.994 408.503C159.03 408.563 159.051 408.631 159.053 408.702C159.065 408.82 159.048 408.939 159.004 409.05C158.96 409.16 158.89 409.258 158.799 409.336C158.408 409.588 157.944 409.702 157.481 409.659ZM156.213 409.285C157.411 409.481 158.305 409.431 158.647 409.133C158.705 409.082 158.749 409.018 158.777 408.946C158.804 408.874 158.814 408.797 158.806 408.721C158.806 408.693 158.8 408.665 158.786 408.641C158.773 408.616 158.754 408.596 158.73 408.581C158.356 408.385 157.107 408.854 156.2 409.285H156.213Z" fill="#FF5000"/>
<path d="M155.794 409.469C155.77 409.477 155.743 409.477 155.718 409.469C155.7 409.457 155.685 409.439 155.676 409.419C155.667 409.399 155.664 409.376 155.667 409.355C155.667 409.253 155.927 407.034 157.145 407.034H157.252C157.601 407.066 157.703 407.243 157.728 407.389C157.829 408.023 156.511 409.183 155.826 409.475C155.815 409.475 155.804 409.473 155.794 409.469ZM157.151 407.262C156.365 407.262 156.054 408.53 155.959 409.107C156.638 408.702 157.531 407.782 157.474 407.408C157.474 407.408 157.474 407.294 157.227 407.269L157.151 407.262Z" fill="#FF5000"/>
<path d="M155.459 408.708H149.347C149.241 408.708 149.138 408.746 149.057 408.814C148.976 408.882 148.922 408.977 148.904 409.082L148.086 413.913C148.069 414.034 148.079 414.157 148.115 414.274C148.15 414.391 148.21 414.499 148.29 414.591C148.371 414.683 148.47 414.757 148.581 414.807C148.692 414.857 148.813 414.883 148.935 414.883C151.066 414.845 152.105 414.718 154.781 414.718C156.429 414.718 159.853 414.89 162.129 414.89C164.405 414.89 164.589 412.639 163.644 412.43C159.409 411.517 157.761 410.249 156.359 409.044C156.108 408.829 155.79 408.71 155.459 408.708Z" fill="#263238"/>
<path opacity="0.2" d="M156.733 397.011L155.833 403.947L150.463 403.046L151.293 396.605L156.733 397.011Z" fill="black"/>
<path opacity="0.2" d="M119.917 377.775L123.607 381.871L119.346 384.813L115.523 380.812L119.917 377.775Z" fill="black"/>
<path d="M146.944 285.997L168.931 288.952C177.458 258.082 174.941 257.252 174.941 257.252C173.293 256.48 171.6 255.811 169.869 255.248L169.571 255.153C168.151 254.722 167.853 254.665 165.958 254.234C162.705 253.657 159.687 253.213 155.959 252.896C155.725 252.896 155.484 252.852 155.249 252.839C154.577 252.795 153.912 252.763 153.265 252.738C152.834 252.738 152.396 252.738 151.997 252.738H149.854C149.43 252.747 149.012 252.845 148.628 253.025C148.244 253.205 147.902 253.463 147.623 253.783C147.345 254.103 147.136 254.478 147.01 254.883C146.884 255.288 146.845 255.715 146.893 256.136C148.776 272.347 148.18 277.692 146.944 285.997Z" fill="#FF5000"/>
<path opacity="0.2" d="M169.564 264.232C169.717 265.665 173.026 268.283 174.174 267.58C174.503 265.861 174.744 264.41 174.915 263.243C173.254 263.116 170.002 261.284 169.564 264.232Z" fill="black"/>
<path d="M165.996 257.004C165.837 251.932 178.13 257.518 180.952 258.78L177.807 267.282C177.807 267.282 173.692 267.142 171.074 265.627C169.585 264.717 168.342 263.455 167.456 261.951C166.571 260.447 166.069 258.748 165.996 257.004Z" fill="#FF5000"/>
<path d="M157.519 236.717C157.925 242.08 157.982 244.356 160.759 247.146C164.924 251.337 171.486 249.853 172.703 244.521C173.8 239.722 172.95 231.759 167.631 229.552C166.489 229.041 165.234 228.836 163.988 228.958C162.743 229.08 161.551 229.525 160.53 230.248C159.509 230.971 158.694 231.948 158.166 233.083C157.638 234.217 157.415 235.47 157.519 236.717Z" fill="#B55B52"/>
<path d="M157.988 231.055C152.599 229.705 152.428 234.225 152.542 236.609C152.656 238.993 148.694 240.134 148.694 243.12C148.694 247.013 151.629 249.333 144.49 250.512C138.448 251.508 136.584 259.059 145.524 263.478C155.421 268.359 170.351 261.487 168.538 254.95C165.761 244.863 170.751 244.895 170.199 239.253C169.787 235.157 173.667 234.954 172.272 231.537C170.434 227.067 157.519 223.143 157.988 231.055Z" fill="#263238"/>
<path d="M151.751 238.619C151.009 234.713 151.415 232.126 152.955 230.916C154.94 229.35 157.989 230.706 158.116 230.763L157.856 231.34C157.856 231.34 155.022 230.072 153.342 231.41C152.004 232.469 151.681 234.853 152.372 238.498L151.751 238.619Z" fill="#263238"/>
<path d="M145.658 249.397C144.266 249.353 142.892 249.074 141.594 248.572L141.828 247.983C141.873 247.983 146.146 249.682 148.124 248.04C149.088 247.241 149.36 245.745 148.942 243.602L149.576 243.481C150.045 245.884 149.696 247.59 148.542 248.553C147.708 249.161 146.688 249.46 145.658 249.397Z" fill="#263238"/>
<path d="M168.735 238.878C168.684 239.879 168.943 240.871 169.477 241.719C170.212 242.917 171.207 242.695 171.531 241.681C171.854 240.666 171.797 239.037 170.802 238.168C169.806 237.3 168.836 237.769 168.735 238.878Z" fill="#B55B52"/>
<path d="M163.143 288.172C163.143 288.172 154.597 324.31 150.603 345.036C146.393 366.928 121.439 384.787 121.439 384.787L115.961 379.151C115.961 379.151 132.027 365.089 136.154 344.649C144.529 303.16 138.861 294.804 146.932 285.998L163.143 288.172Z" fill="#263238"/>
<path d="M121.907 385.599L115.066 378.561L116.987 376.495L124.931 383.488L121.907 385.599Z" fill="#FF5000"/>
<path opacity="0.2" d="M158.604 296.021C151.96 301.79 152.676 322.262 153.374 331.487C156.157 318.37 159.511 303.762 161.476 295.311C160.772 294.791 159.821 294.962 158.604 296.021Z" fill="black"/>
<path d="M168.627 288.971C168.627 288.971 172.469 331.848 170.371 348.206C168.19 365.216 157.057 402.229 157.057 402.229L149.277 401.221C149.277 401.221 155.617 364.538 156.778 347.698C158.008 329.312 152.536 286.834 152.536 286.834L168.627 288.971Z" fill="#263238"/>
<path d="M158.755 402.679L147.584 401.233L147.755 397.937L159.877 399.109L158.755 402.679Z" fill="#FF5000"/>
<path d="M146.741 284.672L145.536 286.492C145.447 286.638 145.612 286.815 145.866 286.847L168.931 289.972C169.127 289.972 169.305 289.922 169.33 289.801L169.736 287.899C169.767 287.766 169.603 287.627 169.387 287.595L147.102 284.609C147.041 284.588 146.976 284.583 146.913 284.594C146.85 284.605 146.791 284.632 146.741 284.672Z" fill="#FF5000"/>
<path opacity="0.3" d="M146.741 284.672L145.536 286.492C145.447 286.638 145.612 286.815 145.866 286.847L168.931 289.972C169.127 289.972 169.305 289.922 169.33 289.801L169.736 287.899C169.767 287.766 169.603 287.627 169.387 287.595L147.102 284.609C147.041 284.588 146.976 284.583 146.913 284.594C146.85 284.605 146.791 284.632 146.741 284.672Z" fill="black"/>
<path d="M149.48 287.544L148.884 287.468C148.763 287.468 148.681 287.379 148.7 287.303L149.245 284.799C149.245 284.729 149.372 284.685 149.492 284.697L150.088 284.78C150.209 284.78 150.291 284.869 150.279 284.938L149.727 287.443C149.714 287.519 149.6 287.563 149.48 287.544Z" fill="#263238"/>
<path d="M164.557 289.605L163.961 289.522C163.841 289.522 163.758 289.433 163.771 289.364L164.322 286.859C164.322 286.79 164.449 286.739 164.57 286.758L165.166 286.834C165.286 286.834 165.369 286.923 165.349 286.999L164.804 289.503C164.785 289.573 164.677 289.624 164.557 289.605Z" fill="#263238"/>
</svg>
