<svg width="414" height="896" viewBox="0 0 414 896" fill="none" xmlns="http://www.w3.org/2000/svg">
<g clip-path="url(#clip0_1014_1689)">
<rect width="414" height="896" rx="40" fill="#FCF5F2"/>
<path d="M382.503 263.002C381.206 149.796 320.536 130.885 285.425 133.186C238.971 136.23 209.223 124.872 192.41 117.106C121.07 84.15 89.4111 143.403 69.7559 174.758C16.526 277.004 15.9274 384.348 135.293 419.821C252.523 454.66 384.075 400.246 382.503 263.002Z" fill="#FE5A3B"/>
<path d="M76.9725 403.103C62.3296 392.886 49.4719 375.729 44.8735 368.428C35.4211 350.918 28.022 361.346 25.504 368.749C17.2268 408.965 69.9897 433.505 79.7182 431.134C89.4467 428.762 95.276 415.875 76.9725 403.103Z" fill="#FE5A3B"/>
<path d="M345.296 386.749C332.668 400.67 328.97 407.496 314.417 410.255C299.864 413.013 306.573 424.287 310.93 424.755C350.936 434.375 363.991 386.705 364.723 381.332C365.455 375.958 357.35 373.459 345.296 386.749Z" fill="#FE5A3B"/>
<path d="M312.429 100.619C319.53 115.235 303.29 122.194 294.282 123.846C288.862 125.279 241.109 128.778 238.708 118.968C236.307 109.158 248.005 96.7607 265.878 88.0547C283.752 79.3487 303.551 82.3489 312.429 100.619Z" fill="#FE5A3B"/>
<circle cx="290.5" cy="427.5" r="4.5" fill="#FE5A3B"/>
<circle cx="32.5" cy="338.5" r="4.5" fill="#FE5A3B"/>
<circle cx="222.552" cy="114.435" r="4.5" transform="rotate(21.7388 222.552 114.435)" fill="#FE5A3B"/>
<path d="M191.097 105.675C185.707 103.534 178.939 101.022 180.672 96.6596C182.406 92.2968 191.983 87.7352 197.373 89.8761C202.762 92.0169 205.726 97.2892 203.993 101.652C202.26 106.015 196.486 107.816 191.097 105.675Z" fill="#FE5A3B"/>
</g>
<defs>
<clipPath id="clip0_1014_1689">
<rect width="414" height="896" rx="40" fill="white"/>
</clipPath>
</defs>
</svg>
