<svg width="414" height="896" viewBox="0 0 414 896" fill="none" xmlns="http://www.w3.org/2000/svg">
<g clip-path="url(#clip0_1173_2508)">
<rect width="414" height="896" rx="40" fill="#FCF5F2"/>
<path d="M352.499 326.499C363.117 290.481 376.879 207.184 310 165.5C232.782 117.372 171.558 100.754 105.5 145.5C68.0761 170.85 64.646 223.749 81.4995 282C98.353 340.251 71.1479 380.126 154.236 409.262C218.179 431.684 325.526 417.997 352.499 326.499Z" fill="#FFAC30"/>
<path d="M337.05 174.923C333.574 171.092 329.139 166.423 332.24 163.609C335.341 160.794 344.804 160.9 348.28 164.731C351.757 168.562 352.061 173.949 348.96 176.763C345.859 179.577 340.527 178.753 337.05 174.923Z" fill="#FFAC30"/>
<path d="M353.311 356.252C341.175 373.677 337.515 379.941 324.757 393.61C311.452 407.868 319.038 411.667 323.787 410.418C368.406 404.604 373.299 348.71 373.06 342.706C372.82 336.702 365.747 338.396 353.311 356.252Z" fill="#FFAC30"/>
<path d="M372.497 321.441C369.486 321.065 369.463 317.303 369.981 313.16C370.499 309.017 371.363 306.061 374.374 306.437C377.384 306.814 379.404 310.478 378.886 314.621C378.367 318.764 375.507 321.818 372.497 321.441Z" fill="#FFAC30"/>
<path d="M67.8996 315.785C72.4413 318.262 77.082 321.56 75.0771 325.236C73.0723 328.913 67.7652 329.886 63.2235 327.409C58.6818 324.932 56.6253 319.944 58.6301 316.268C60.635 312.591 63.3579 313.308 67.8996 315.785Z" fill="#FFAC30"/>
<path d="M66.7556 280.484C60.8115 265.707 59.5881 246.62 59.7194 238.923C61.2104 221.236 50.5953 225.409 45.1013 229.707C19.2872 255.692 46.6999 299.773 55.1208 302.752C63.5418 305.731 74.1858 298.956 66.7556 280.484Z" fill="#FFAC30"/>
<path d="M124.395 162.222C133.367 156.557 145.453 151.85 150.375 150.204C161.777 146.903 158.296 143.533 155.131 142.261C136.56 137.562 110.541 158.372 109.288 162.434C108.035 166.495 113.179 169.302 124.395 162.222Z" fill="#FCF5F2"/>
<path d="M171.983 147.564C168.487 147.478 164.674 147.05 164.726 144.983C164.777 142.915 167.653 141.31 171.149 141.397C174.645 141.483 177.437 143.23 177.386 145.297C177.334 147.364 175.478 147.651 171.983 147.564Z" fill="#FCF5F2"/>
<path d="M324.882 225.144C328.884 234.833 330.583 238.004 332.523 247.038C334.546 256.461 339.212 254.039 340.363 251.626C354.068 230.416 328.612 214.422 325.594 213.043C322.576 211.664 320.78 215.217 324.882 225.144Z" fill="#FCF5F2"/>
<circle cx="340.187" cy="271.187" r="3.70223" transform="rotate(52.8459 340.187 271.187)" fill="#FCF5F2"/>
<path d="M151.815 380.001C140.117 374.063 134.84 372.83 130.302 363.54C125.765 354.249 119.41 360.843 119.897 363.862C120.788 392.569 155.288 392.581 159.041 392.084C162.793 391.587 162.983 385.67 151.815 380.001Z" fill="#FCF5F2"/>
<path d="M151.361 317.166C147.112 317.166 143.719 316.019 141.18 313.724C138.69 311.429 137.445 308.401 137.445 304.642C137.445 301.858 138.079 299.246 139.349 296.805C140.618 294.314 142.279 291.995 144.329 289.847C146.38 287.649 148.553 285.525 150.848 283.475C152.752 281.863 154.193 279.666 155.169 276.883C156.195 274.1 156.976 270.95 157.513 267.435C158.05 263.919 158.587 260.232 159.124 256.375C159.71 248.074 161.102 240.579 163.299 233.89C165.496 227.151 168.597 221.463 172.601 216.824C176.654 212.137 181.707 208.719 187.762 206.57C189.471 201.639 192.352 197.586 196.404 194.412C200.457 191.189 205.194 189.578 210.613 189.578C214.91 189.578 218.719 190.579 222.039 192.581C219.012 195.755 216.595 199.466 214.788 203.714C213.03 207.913 212.152 212.405 212.152 217.19C212.152 223.733 213.763 229.739 216.986 235.208C220.257 240.628 224.603 244.974 230.023 248.245C235.491 251.517 241.522 253.152 248.113 253.152C250.555 253.152 252.923 252.908 255.218 252.42C257.562 251.883 259.783 251.126 261.883 250.149C262.225 252.347 262.518 254.617 262.762 256.961C263.006 259.256 263.226 261.575 263.421 263.919C263.714 266.507 264.129 269.046 264.666 271.536C265.203 274.026 265.911 276.321 266.79 278.421C267.718 280.521 268.914 282.205 270.379 283.475C272.674 285.525 274.847 287.649 276.898 289.847C278.948 291.995 280.609 294.314 281.878 296.805C283.196 299.246 283.856 301.858 283.856 304.642C283.856 308.401 282.586 311.429 280.047 313.724C277.508 316.019 274.114 317.166 269.866 317.166H151.361ZM210.687 348.733C206.097 348.733 201.971 347.757 198.309 345.804C194.696 343.899 191.79 341.36 189.593 338.187C187.396 335.013 186.151 331.546 185.858 327.786H235.516C235.223 331.546 233.978 335.013 231.78 338.187C229.583 341.36 226.654 343.899 222.991 345.804C219.378 347.757 215.277 348.733 210.687 348.733ZM248.187 242.312C243.597 242.312 239.398 241.165 235.589 238.87C231.78 236.575 228.729 233.523 226.434 229.715C224.188 225.906 223.065 221.731 223.065 217.19C223.065 212.601 224.188 208.401 226.434 204.593C228.729 200.784 231.78 197.757 235.589 195.511C239.398 193.216 243.597 192.068 248.187 192.068C252.728 192.068 256.903 193.216 260.711 195.511C264.52 197.757 267.571 200.784 269.866 204.593C272.161 208.401 273.309 212.601 273.309 217.19C273.309 221.731 272.161 225.906 269.866 229.715C267.571 233.523 264.52 236.575 260.711 238.87C256.903 241.165 252.728 242.312 248.187 242.312Z" fill="#FCF5F2"/>
<circle cx="248.763" cy="216.973" r="26.9734" fill="#F21C1C"/>
</g>
<defs>
<clipPath id="clip0_1173_2508">
<rect width="414" height="896" rx="40" fill="white"/>
</clipPath>
</defs>
</svg>
