<svg width="390" height="844" viewBox="0 0 390 844" fill="none" xmlns="http://www.w3.org/2000/svg">
<rect width="390" height="844" fill="#FCF5F2"/>
<path d="M212.467 219.978C173.33 219.414 121.133 278.56 88.2602 238.104C49.1234 189.92 137.078 166.462 157.144 131.941C185.433 83.2436 255.097 118.329 285.06 175.18C296.231 196.368 286.195 232.24 260.537 235.144C232.54 238.333 234.892 220.302 212.467 219.978Z" fill="#FF5000"/>
<path opacity="0.9" d="M212.467 219.978C173.33 219.414 121.133 278.56 88.2602 238.104C49.1234 189.92 137.078 166.462 157.144 131.941C185.433 83.2436 255.097 118.329 285.06 175.18C296.231 196.368 286.195 232.24 260.537 235.144C232.54 238.333 234.892 220.302 212.467 219.978Z" fill="white"/>
<path d="M194.5 334.073C262.391 334.073 317.427 330.86 317.427 326.896C317.427 322.932 262.391 319.719 194.5 319.719C126.61 319.719 71.5742 322.932 71.5742 326.896C71.5742 330.86 126.61 334.073 194.5 334.073Z" fill="#F5F5F5"/>
<path d="M281.215 249.457L280.396 264.384L281.03 264.419L281.848 249.491L281.215 249.457Z" fill="#FF5000"/>
<path d="M281.914 236.794L281.492 244.485L282.125 244.52L282.547 236.829L281.914 236.794Z" fill="#FF5000"/>
<path d="M268.551 292.838H194.234C193.109 292.851 191.995 292.633 190.959 292.195C189.923 291.758 188.989 291.111 188.215 290.295C187.441 289.48 186.844 288.513 186.462 287.456C186.079 286.399 185.919 285.274 185.992 284.152L194.551 128.112C194.71 125.773 195.745 123.581 197.448 121.971C199.152 120.361 201.4 119.452 203.744 119.426H278.067C279.189 119.418 280.3 119.64 281.331 120.08C282.363 120.52 283.292 121.167 284.063 121.982C284.833 122.797 285.427 123.762 285.808 124.816C286.189 125.871 286.349 126.993 286.278 128.112L277.712 284.152C277.555 286.486 276.525 288.675 274.828 290.284C273.131 291.893 270.89 292.805 268.551 292.838Z" fill="#FF5000"/>
<path opacity="0.8" d="M264.056 292.838H194.234C193.109 292.851 191.995 292.633 190.959 292.195C189.923 291.758 188.989 291.111 188.215 290.295C187.441 289.48 186.844 288.513 186.462 287.456C186.079 286.399 185.919 285.274 185.992 284.152L194.551 128.112C194.71 125.773 195.745 123.581 197.448 121.971C199.152 120.361 201.4 119.453 203.744 119.426H273.572C274.694 119.417 275.805 119.639 276.837 120.078C277.869 120.518 278.799 121.165 279.57 121.98C280.34 122.795 280.934 123.76 281.315 124.815C281.696 125.87 281.855 126.993 281.783 128.112L273.224 284.152C273.063 286.486 272.032 288.674 270.334 290.283C268.636 291.892 266.395 292.803 264.056 292.838Z" fill="white"/>
<path d="M229.452 147.715H209.399C208.925 147.719 208.456 147.625 208.021 147.439C207.585 147.253 207.193 146.979 206.868 146.634C206.543 146.29 206.292 145.882 206.132 145.436C205.972 144.991 205.906 144.517 205.937 144.044C206.004 143.059 206.439 142.136 207.155 141.457C207.872 140.778 208.818 140.393 209.805 140.38H229.858C230.331 140.375 230.8 140.468 231.236 140.654C231.671 140.839 232.064 141.112 232.389 141.456C232.714 141.8 232.964 142.207 233.125 142.653C233.285 143.098 233.351 143.572 233.32 144.044C233.253 145.03 232.818 145.954 232.102 146.634C231.386 147.314 230.44 147.7 229.452 147.715Z" fill="white"/>
<path d="M233.321 144.044C233.207 145.822 232.424 147.491 231.131 148.715C229.837 149.939 228.128 150.629 226.347 150.644C225.494 150.654 224.648 150.487 223.862 150.154C223.077 149.821 222.369 149.329 221.783 148.709C221.197 148.089 220.746 147.355 220.457 146.552C220.169 145.749 220.05 144.895 220.108 144.044C220.222 142.267 221.004 140.598 222.298 139.373C223.591 138.149 225.301 137.46 227.082 137.444C227.935 137.434 228.781 137.601 229.566 137.934C230.352 138.267 231.059 138.759 231.645 139.379C232.231 139.999 232.683 140.734 232.971 141.536C233.259 142.339 233.378 143.193 233.321 144.044Z" fill="#FF5000"/>
<path d="M228.165 171.179H208.112C207.638 171.183 207.169 171.089 206.733 170.903C206.298 170.717 205.905 170.443 205.581 170.099C205.256 169.754 205.005 169.346 204.845 168.901C204.685 168.455 204.619 167.981 204.65 167.508C204.717 166.524 205.152 165.6 205.868 164.921C206.585 164.242 207.531 163.858 208.518 163.844H228.571C229.044 163.839 229.513 163.933 229.949 164.118C230.384 164.303 230.777 164.576 231.102 164.92C231.427 165.264 231.677 165.672 231.837 166.117C231.998 166.563 232.064 167.036 232.033 167.508C231.966 168.494 231.531 169.418 230.815 170.098C230.099 170.778 229.153 171.164 228.165 171.179Z" fill="white"/>
<path d="M221.059 172.127C223.745 169.515 223.917 165.336 221.444 162.793C218.97 160.251 214.788 160.308 212.103 162.92C209.417 165.533 209.245 169.711 211.719 172.254C214.192 174.796 218.374 174.74 221.059 172.127Z" fill="#FF5000"/>
<path opacity="0.3" d="M221.059 172.127C223.745 169.515 223.917 165.336 221.444 162.793C218.97 160.251 214.788 160.308 212.103 162.92C209.417 165.533 209.245 169.711 211.719 172.254C214.192 174.796 218.374 174.74 221.059 172.127Z" fill="#FAFAFA"/>
<path d="M205.538 218.108H225.566C226.553 218.093 227.499 217.707 228.215 217.027C228.932 216.347 229.366 215.423 229.433 214.437C229.465 213.964 229.398 213.49 229.237 213.044C229.077 212.599 228.826 212.191 228.5 211.847C228.175 211.503 227.781 211.23 227.345 211.045C226.909 210.86 226.439 210.767 225.965 210.773H205.943C204.956 210.786 204.009 211.171 203.292 211.849C202.574 212.528 202.138 213.452 202.07 214.437C202.039 214.91 202.106 215.384 202.267 215.83C202.428 216.276 202.679 216.683 203.004 217.028C203.33 217.372 203.723 217.646 204.158 217.832C204.594 218.018 205.064 218.112 205.538 218.108Z" fill="white"/>
<path d="M213.153 219.046C215.839 216.434 216.011 212.255 213.537 209.712C211.064 207.17 206.882 207.227 204.197 209.839C201.511 212.452 201.339 216.63 203.812 219.173C206.286 221.715 210.468 221.659 213.153 219.046Z" fill="#FF5000"/>
<path opacity="0.7" d="M213.153 219.046C215.839 216.434 216.011 212.255 213.537 209.712C211.064 207.17 206.882 207.227 204.197 209.839C201.511 212.452 201.339 216.63 203.812 219.173C206.286 221.715 210.468 221.659 213.153 219.046Z" fill="#FAFAFA"/>
<path d="M224.298 241.572H204.251C203.777 241.576 203.307 241.482 202.871 241.296C202.436 241.11 202.043 240.837 201.717 240.492C201.392 240.148 201.141 239.74 200.98 239.294C200.819 238.848 200.752 238.374 200.783 237.902C200.851 236.916 201.287 235.992 202.005 235.314C202.722 234.635 203.669 234.251 204.656 234.237H224.703C225.177 234.232 225.647 234.324 226.083 234.509C226.519 234.694 226.913 234.967 227.238 235.311C227.564 235.655 227.815 236.063 227.976 236.509C228.136 236.955 228.203 237.429 228.171 237.902C228.105 238.888 227.669 239.813 226.951 240.493C226.234 241.174 225.286 241.559 224.298 241.572Z" fill="white"/>
<path d="M228.172 237.902C228.058 239.679 227.276 241.348 225.982 242.572C224.689 243.797 222.979 244.486 221.198 244.502C220.345 244.511 219.499 244.345 218.713 244.012C217.927 243.679 217.219 243.187 216.633 242.567C216.046 241.947 215.594 241.213 215.305 240.41C215.016 239.607 214.896 238.753 214.953 237.902C215.07 236.125 215.853 234.458 217.146 233.234C218.439 232.011 220.147 231.32 221.927 231.302C222.781 231.291 223.627 231.457 224.413 231.79C225.2 232.122 225.908 232.614 226.495 233.234C227.082 233.854 227.533 234.589 227.822 235.392C228.111 236.196 228.23 237.05 228.172 237.902Z" fill="#FF5000"/>
<path d="M206.825 194.644H226.878C227.866 194.628 228.811 194.243 229.528 193.563C230.244 192.883 230.679 191.958 230.746 190.973C230.777 190.5 230.71 190.026 230.55 189.58C230.389 189.134 230.138 188.727 229.813 188.382C229.487 188.038 229.094 187.765 228.657 187.58C228.221 187.396 227.751 187.303 227.278 187.308H207.23C206.243 187.322 205.298 187.706 204.581 188.385C203.865 189.064 203.43 189.988 203.363 190.973C203.332 191.445 203.398 191.919 203.558 192.365C203.718 192.811 203.969 193.219 204.293 193.563C204.618 193.908 205.011 194.181 205.446 194.367C205.882 194.553 206.351 194.647 206.825 194.644Z" fill="white"/>
<path d="M203.376 190.973C203.318 191.824 203.437 192.678 203.725 193.481C204.013 194.284 204.465 195.018 205.051 195.638C205.637 196.258 206.345 196.75 207.13 197.083C207.915 197.416 208.761 197.583 209.614 197.573C211.395 197.557 213.105 196.868 214.398 195.644C215.692 194.419 216.474 192.751 216.588 190.973C216.646 190.122 216.527 189.268 216.239 188.465C215.95 187.662 215.499 186.928 214.913 186.308C214.327 185.688 213.619 185.196 212.834 184.863C212.048 184.53 211.203 184.363 210.35 184.373C208.568 184.389 206.859 185.078 205.565 186.302C204.272 187.527 203.489 189.195 203.376 190.973Z" fill="#FF5000"/>
<path opacity="0.7" d="M203.376 190.973C203.318 191.824 203.437 192.678 203.725 193.481C204.013 194.284 204.465 195.018 205.051 195.638C205.637 196.258 206.345 196.75 207.13 197.083C207.915 197.416 208.761 197.583 209.614 197.573C211.395 197.557 213.105 196.868 214.398 195.644C215.692 194.419 216.474 192.751 216.588 190.973C216.646 190.122 216.527 189.268 216.239 188.465C215.95 187.662 215.499 186.928 214.913 186.308C214.327 185.688 213.619 185.196 212.834 184.863C212.048 184.53 211.203 184.363 210.35 184.373C208.568 184.389 206.859 185.078 205.565 186.302C204.272 187.527 203.489 189.195 203.376 190.973Z" fill="#FAFAFA"/>
<path d="M273.376 142.948H243.655C243.465 142.948 243.278 142.91 243.104 142.835C242.931 142.76 242.774 142.65 242.644 142.512C242.515 142.374 242.415 142.211 242.351 142.033C242.287 141.855 242.26 141.666 242.272 141.477C242.299 141.083 242.473 140.714 242.76 140.443C243.047 140.171 243.425 140.018 243.819 140.012H273.541C273.73 140.011 273.917 140.049 274.091 140.123C274.265 140.197 274.421 140.306 274.551 140.444C274.681 140.581 274.781 140.744 274.845 140.921C274.909 141.099 274.936 141.288 274.923 141.477C274.898 141.872 274.724 142.242 274.438 142.515C274.151 142.788 273.772 142.942 273.376 142.948Z" fill="white"/>
<path d="M263.473 148.083H243.376C243.186 148.084 242.998 148.046 242.823 147.972C242.649 147.897 242.492 147.788 242.361 147.65C242.231 147.512 242.131 147.348 242.066 147.17C242.002 146.991 241.975 146.801 241.987 146.612C242.014 146.218 242.188 145.849 242.475 145.578C242.761 145.307 243.14 145.153 243.534 145.147H263.638C263.828 145.146 264.015 145.184 264.189 145.258C264.363 145.332 264.52 145.441 264.65 145.579C264.78 145.716 264.881 145.879 264.946 146.056C265.01 146.234 265.038 146.423 265.027 146.612C265 147.007 264.825 147.378 264.537 147.651C264.249 147.923 263.87 148.077 263.473 148.083Z" fill="white"/>
<path d="M264.475 236.805H238.481C238.291 236.805 238.104 236.767 237.93 236.692C237.757 236.617 237.6 236.507 237.471 236.369C237.341 236.231 237.241 236.068 237.177 235.89C237.113 235.712 237.086 235.523 237.099 235.334C237.124 234.939 237.298 234.569 237.585 234.298C237.872 234.026 238.25 233.873 238.646 233.869H264.608C264.797 233.868 264.984 233.906 265.158 233.98C265.332 234.054 265.489 234.163 265.62 234.3C265.75 234.438 265.85 234.6 265.915 234.778C265.98 234.956 266.008 235.145 265.996 235.334C265.97 235.724 265.8 236.09 265.518 236.362C265.237 236.634 264.865 236.791 264.475 236.805Z" fill="white"/>
<path d="M251.06 241.934H238.246C238.057 241.935 237.87 241.898 237.696 241.823C237.522 241.749 237.365 241.64 237.235 241.503C237.104 241.366 237.004 241.203 236.939 241.025C236.874 240.847 236.847 240.658 236.858 240.469C236.885 240.076 237.059 239.707 237.346 239.435C237.632 239.164 238.01 239.01 238.405 239.005H251.237C251.426 239.004 251.614 239.041 251.788 239.116C251.962 239.19 252.119 239.299 252.249 239.436C252.379 239.573 252.48 239.736 252.544 239.914C252.609 240.091 252.637 240.281 252.626 240.469C252.598 240.866 252.421 241.238 252.131 241.51C251.84 241.782 251.457 241.933 251.06 241.934Z" fill="white"/>
<path d="M271.969 168.612H242.247C241.852 168.617 241.474 168.771 241.187 169.042C240.901 169.314 240.727 169.683 240.7 170.076C240.688 170.265 240.716 170.454 240.781 170.632C240.846 170.81 240.946 170.972 241.076 171.11C241.207 171.247 241.363 171.356 241.538 171.43C241.712 171.504 241.899 171.542 242.088 171.541H271.81C272.205 171.535 272.583 171.382 272.869 171.111C273.156 170.839 273.33 170.47 273.357 170.076C273.368 169.888 273.341 169.698 273.276 169.521C273.211 169.343 273.111 169.18 272.98 169.043C272.85 168.906 272.693 168.797 272.519 168.722C272.345 168.648 272.158 168.611 271.969 168.612Z" fill="white"/>
<path d="M262.63 163.476H242.532C242.138 163.482 241.76 163.635 241.473 163.907C241.186 164.178 241.012 164.547 240.985 164.941C240.973 165.13 241 165.319 241.064 165.497C241.128 165.675 241.228 165.838 241.357 165.976C241.487 166.114 241.643 166.224 241.817 166.299C241.991 166.374 242.178 166.412 242.367 166.412H262.472C262.867 166.405 263.245 166.25 263.531 165.977C263.818 165.705 263.992 165.335 264.018 164.941C264.031 164.752 264.004 164.562 263.939 164.384C263.875 164.206 263.774 164.043 263.644 163.905C263.514 163.768 263.356 163.659 263.182 163.585C263.007 163.511 262.819 163.474 262.63 163.476Z" fill="white"/>
<path d="M256.328 189.876H241.112C240.922 189.877 240.735 189.838 240.561 189.763C240.388 189.688 240.231 189.578 240.101 189.44C239.972 189.303 239.872 189.14 239.808 188.961C239.744 188.783 239.717 188.594 239.729 188.405C239.755 188.011 239.929 187.641 240.215 187.369C240.502 187.098 240.881 186.945 241.276 186.941H256.492C256.683 186.937 256.873 186.973 257.049 187.046C257.225 187.119 257.385 187.227 257.517 187.365C257.649 187.502 257.751 187.666 257.817 187.845C257.883 188.024 257.911 188.215 257.9 188.405C257.873 188.804 257.695 189.177 257.403 189.45C257.112 189.723 256.727 189.875 256.328 189.876Z" fill="white"/>
<path d="M270.802 189.876H261.825C261.635 189.878 261.447 189.84 261.273 189.765C261.098 189.691 260.941 189.581 260.811 189.443C260.68 189.305 260.58 189.142 260.516 188.963C260.451 188.785 260.424 188.595 260.436 188.405C260.463 188.012 260.638 187.643 260.924 187.371C261.211 187.1 261.589 186.946 261.983 186.941H270.967C271.156 186.94 271.343 186.977 271.517 187.052C271.691 187.126 271.847 187.235 271.977 187.372C272.107 187.51 272.207 187.672 272.271 187.85C272.335 188.028 272.362 188.217 272.349 188.405C272.322 188.8 272.149 189.17 271.862 189.442C271.576 189.714 271.198 189.869 270.802 189.876Z" fill="white"/>
<path d="M260.898 195.005H240.782C240.592 195.006 240.405 194.969 240.231 194.895C240.057 194.821 239.9 194.711 239.77 194.574C239.64 194.437 239.539 194.274 239.474 194.096C239.409 193.919 239.382 193.73 239.393 193.541C239.42 193.147 239.594 192.778 239.881 192.507C240.167 192.235 240.545 192.082 240.94 192.076H261.07C261.259 192.075 261.446 192.113 261.62 192.187C261.794 192.261 261.951 192.37 262.081 192.507C262.212 192.645 262.312 192.807 262.377 192.985C262.442 193.163 262.469 193.352 262.458 193.541C262.431 193.937 262.255 194.308 261.966 194.579C261.676 194.851 261.295 195.003 260.898 195.005Z" fill="white"/>
<path d="M235.71 262.52H201.474C201.207 262.526 200.943 262.476 200.697 262.374C200.451 262.271 200.229 262.118 200.047 261.924C199.864 261.731 199.724 261.501 199.635 261.25C199.547 260.998 199.512 260.731 199.533 260.466C199.572 259.914 199.816 259.396 200.217 259.016C200.619 258.636 201.149 258.42 201.702 258.412H235.938C236.204 258.405 236.469 258.455 236.714 258.558C236.96 258.66 237.182 258.814 237.365 259.007C237.548 259.201 237.688 259.431 237.776 259.682C237.865 259.933 237.899 260.2 237.878 260.466C237.841 261.018 237.598 261.536 237.196 261.917C236.794 262.298 236.263 262.513 235.71 262.52Z" fill="white"/>
<path d="M266.23 262.52H245.22C244.953 262.526 244.689 262.476 244.443 262.374C244.197 262.271 243.976 262.118 243.793 261.924C243.61 261.731 243.47 261.501 243.381 261.25C243.293 260.998 243.258 260.731 243.28 260.466C243.318 259.914 243.562 259.396 243.963 259.016C244.365 258.636 244.895 258.42 245.448 258.412H266.459C266.725 258.405 266.99 258.455 267.235 258.558C267.481 258.66 267.703 258.814 267.886 259.007C268.068 259.201 268.209 259.431 268.297 259.682C268.385 259.933 268.42 260.2 268.399 260.466C268.361 261.018 268.117 261.535 267.715 261.916C267.313 262.296 266.784 262.512 266.23 262.52Z" fill="white"/>
<path d="M227.15 269.684H201.093C200.826 269.69 200.562 269.64 200.316 269.538C200.07 269.435 199.849 269.282 199.666 269.088C199.483 268.895 199.343 268.665 199.254 268.414C199.166 268.162 199.131 267.895 199.153 267.63C199.189 267.077 199.433 266.559 199.835 266.178C200.237 265.798 200.767 265.582 201.321 265.576H227.372C227.638 265.57 227.903 265.619 228.149 265.722C228.395 265.825 228.616 265.978 228.799 266.171C228.982 266.365 229.122 266.595 229.21 266.846C229.299 267.097 229.333 267.364 229.312 267.63C229.275 268.181 229.033 268.699 228.632 269.079C228.232 269.46 227.703 269.676 227.15 269.684Z" fill="white"/>
<path d="M255.446 276.886H200.7C200.434 276.892 200.169 276.843 199.923 276.74C199.678 276.637 199.456 276.484 199.273 276.291C199.09 276.097 198.95 275.867 198.862 275.616C198.773 275.365 198.739 275.098 198.76 274.832C198.797 274.281 199.039 273.763 199.44 273.383C199.84 273.002 200.37 272.786 200.922 272.778H255.668C255.934 272.772 256.199 272.821 256.445 272.924C256.69 273.027 256.912 273.18 257.095 273.373C257.278 273.567 257.418 273.797 257.506 274.048C257.595 274.299 257.629 274.567 257.608 274.832C257.571 275.383 257.329 275.901 256.928 276.281C256.528 276.662 255.998 276.878 255.446 276.886Z" fill="white"/>
<path d="M248.472 215.541H239.672C239.278 215.546 238.9 215.7 238.613 215.971C238.327 216.242 238.153 216.611 238.126 217.005C238.114 217.194 238.142 217.383 238.207 217.561C238.271 217.739 238.372 217.901 238.502 218.038C238.632 218.176 238.789 218.285 238.963 218.359C239.137 218.433 239.325 218.471 239.514 218.47H248.314C248.708 218.464 249.087 218.311 249.373 218.039C249.66 217.768 249.834 217.399 249.861 217.005C249.872 216.816 249.845 216.627 249.78 216.449C249.715 216.272 249.614 216.109 249.484 215.972C249.354 215.834 249.197 215.725 249.023 215.651C248.849 215.577 248.662 215.539 248.472 215.541Z" fill="white"/>
<path d="M264.17 215.541H253.969C253.575 215.546 253.197 215.7 252.91 215.971C252.623 216.242 252.449 216.611 252.422 217.005C252.411 217.194 252.439 217.383 252.503 217.561C252.568 217.739 252.669 217.901 252.799 218.039C252.929 218.176 253.086 218.285 253.26 218.359C253.434 218.433 253.622 218.471 253.811 218.47H264.012C264.407 218.464 264.785 218.311 265.071 218.039C265.358 217.768 265.532 217.399 265.559 217.005C265.571 216.816 265.544 216.627 265.48 216.448C265.415 216.27 265.315 216.107 265.184 215.97C265.054 215.832 264.897 215.723 264.722 215.649C264.548 215.575 264.36 215.538 264.17 215.541Z" fill="white"/>
<path d="M260.056 210.405H239.958C239.563 210.409 239.184 210.562 238.897 210.834C238.61 211.106 238.437 211.476 238.411 211.87C238.399 212.059 238.426 212.248 238.49 212.426C238.554 212.604 238.654 212.767 238.783 212.905C238.913 213.043 239.069 213.153 239.243 213.228C239.417 213.303 239.604 213.341 239.793 213.341H259.897C260.292 213.334 260.671 213.179 260.957 212.906C261.243 212.634 261.417 212.264 261.444 211.87C261.456 211.681 261.428 211.492 261.363 211.314C261.298 211.136 261.198 210.974 261.068 210.836C260.937 210.699 260.78 210.59 260.606 210.516C260.432 210.442 260.245 210.404 260.056 210.405Z" fill="white"/>
<path d="M148.85 172.764C146.777 174.482 144.634 176.353 142.663 178.229C141.674 179.174 140.71 180.131 139.816 181.12C138.949 182.05 138.154 183.044 137.438 184.094L137.318 184.271L137.261 184.373C137.209 184.453 137.164 184.538 137.128 184.626C137.039 184.823 136.957 185.07 136.868 185.33C136.699 185.906 136.568 186.493 136.475 187.086C136.277 188.41 136.15 189.743 136.094 191.081C135.961 193.819 135.961 196.679 136.012 199.475L133.045 199.918C132.302 197.05 131.793 194.126 131.523 191.176C131.382 189.644 131.346 188.103 131.415 186.566C131.466 185.736 131.572 184.91 131.732 184.094C131.821 183.634 131.942 183.18 132.094 182.737C132.189 182.49 132.259 182.262 132.385 182.002L132.563 181.621C132.626 181.507 132.671 181.437 132.721 181.336C133.498 179.933 134.404 178.607 135.429 177.373C136.378 176.19 137.388 175.056 138.453 173.975C140.539 171.839 142.768 169.846 145.122 168.009L148.85 172.764Z" fill="#B55B52"/>
<path d="M147.741 165.163C144.495 167.065 139.588 172.01 139.588 172.01L145.605 179.232C145.605 179.232 154.145 174.109 155.184 171.288C156.921 166.539 150.81 163.343 147.741 165.163Z" fill="#FF5000"/>
<path d="M135.879 198.404L136.615 202.696L132.627 202.119C132.627 202.119 131.809 199.202 133.895 198.201L135.879 198.404Z" fill="#B55B52"/>
<path d="M135.145 205.308L131.557 204.192L132.628 202.119L136.616 202.696L135.145 205.308Z" fill="#B55B52"/>
<path d="M171.879 149.998C171.879 150.435 172.12 150.79 172.412 150.797C172.703 150.803 172.925 150.448 172.919 150.017C172.912 149.586 172.678 149.224 172.386 149.218C172.095 149.212 171.873 149.567 171.879 149.998Z" fill="#263238"/>
<path d="M172.258 149.224L173.317 148.939C173.317 148.939 172.784 149.763 172.258 149.224Z" fill="#263238"/>
<path d="M172.252 150.429C172.66 151.433 173.202 152.378 173.862 153.237C173.636 153.392 173.379 153.496 173.108 153.542C172.838 153.588 172.561 153.575 172.296 153.504L172.252 150.429Z" fill="#A02724"/>
<path d="M172.43 147.1C172.388 147.113 172.344 147.113 172.303 147.1C171.991 146.986 171.656 146.947 171.326 146.985C170.995 147.024 170.679 147.139 170.401 147.322C170.374 147.343 170.343 147.358 170.31 147.367C170.277 147.376 170.243 147.378 170.209 147.373C170.176 147.369 170.143 147.357 170.114 147.34C170.085 147.322 170.06 147.299 170.04 147.271C169.999 147.217 169.981 147.148 169.991 147.08C170 147.013 170.036 146.951 170.09 146.91C170.434 146.681 170.825 146.536 171.234 146.484C171.644 146.432 172.059 146.476 172.449 146.612C172.513 146.634 172.566 146.68 172.597 146.74C172.628 146.801 172.634 146.871 172.614 146.935C172.598 146.975 172.573 147.011 172.541 147.04C172.509 147.068 172.471 147.089 172.43 147.1Z" fill="#263238"/>
<path d="M158.957 154.651C159.249 157.929 158.152 163.299 155.68 165.125C155.68 165.125 157.544 168.574 163.516 169.379C170.091 170.26 167.003 166.564 167.003 166.564C163.51 165.232 163.877 162.601 164.765 160.224L158.957 154.651Z" fill="#B55B52"/>
<path d="M170.629 169.113C173.754 169.962 177.039 170.78 180.259 171.509C181.882 171.858 183.505 172.143 185.128 172.492C186.751 172.84 188.381 173.062 189.998 173.272L190.632 173.354L191.05 173.398C191.342 173.398 191.684 173.398 192.001 173.398C192.738 173.347 193.471 173.248 194.195 173.1C195.765 172.776 197.316 172.368 198.842 171.877C201.967 170.9 205.137 169.721 208.238 168.504L209.645 171.148C206.723 173.06 203.656 174.741 200.471 176.175C198.824 176.92 197.13 177.555 195.399 178.077C194.474 178.352 193.532 178.564 192.578 178.711C192.052 178.783 191.523 178.827 190.993 178.844H190.131L189.497 178.794C186.005 178.552 182.532 178.09 179.099 177.412C175.676 176.774 172.29 175.953 168.955 174.952L170.629 169.113Z" fill="#B55B52"/>
<path d="M207.414 169.575L208.333 166.462L211.713 167.73C211.713 167.73 210.939 172.409 208.042 171.116L207.414 169.575Z" fill="#B55B52"/>
<path d="M210.293 164.396L213.742 164.782L211.713 167.73L208.334 166.462L210.293 164.396Z" fill="#B55B52"/>
<path d="M149.258 320.956L154.691 321.355L156.308 308.878L150.875 308.479L149.258 320.956Z" fill="#B55B52"/>
<path d="M109.188 296.769L112.877 300.864L123.186 293.738L119.496 289.649L109.188 296.769Z" fill="#B55B52"/>
<path d="M115.61 303.185C115.545 303.193 115.479 303.193 115.414 303.185C114.78 302.969 114.304 301.746 114.095 301.036C114.088 301.011 114.088 300.986 114.096 300.962C114.104 300.938 114.118 300.917 114.138 300.901C114.158 300.885 114.181 300.876 114.207 300.874C114.232 300.872 114.257 300.877 114.279 300.89C114.475 300.991 116.225 301.942 116.282 302.64C116.288 302.715 116.275 302.792 116.242 302.861C116.21 302.929 116.16 302.989 116.098 303.033C115.958 303.137 115.785 303.191 115.61 303.185ZM114.437 301.238C114.754 302.177 115.141 302.792 115.496 302.906C115.573 302.928 115.654 302.929 115.732 302.911C115.81 302.892 115.881 302.853 115.94 302.798C115.968 302.78 115.991 302.754 116.007 302.724C116.022 302.694 116.03 302.661 116.029 302.627C115.997 302.259 115.128 301.638 114.437 301.238Z" fill="#FF5000"/>
<path d="M115.821 301.492C115.241 301.48 114.671 301.339 114.153 301.08C114.134 301.067 114.118 301.05 114.107 301.03C114.096 301.011 114.09 300.988 114.09 300.966C114.089 300.943 114.096 300.92 114.108 300.901C114.121 300.882 114.139 300.867 114.16 300.858C114.21 300.826 115.554 300.084 116.296 300.338C116.393 300.369 116.482 300.42 116.556 300.489C116.631 300.559 116.689 300.643 116.727 300.737C116.778 300.828 116.796 300.933 116.777 301.035C116.759 301.136 116.705 301.229 116.626 301.295C116.387 301.449 116.104 301.518 115.821 301.492ZM114.502 300.966C115.136 301.225 116.176 301.346 116.461 301.105C116.505 301.061 116.556 300.997 116.461 300.839C116.437 300.778 116.401 300.723 116.354 300.678C116.307 300.633 116.25 300.599 116.188 300.579C115.6 300.533 115.011 300.667 114.502 300.966Z" fill="#FF5000"/>
<path d="M114.533 300.262L111.49 294.86C111.44 294.767 111.357 294.695 111.258 294.657C111.159 294.62 111.05 294.62 110.951 294.657L106.456 296.382C106.341 296.433 106.238 296.508 106.154 296.602C106.071 296.695 106.008 296.806 105.971 296.926C105.934 297.046 105.923 297.173 105.939 297.298C105.954 297.423 105.997 297.543 106.063 297.65C107.159 299.514 107.774 300.357 109.112 302.722C109.936 304.18 111.204 307.369 112.181 309.467C113.157 311.566 115.224 310.735 115.002 309.784C114.257 306.995 114.152 304.073 114.698 301.238C114.759 300.903 114.701 300.558 114.533 300.262Z" fill="#263238"/>
<path d="M157.055 321.533C156.48 321.521 155.907 321.457 155.343 321.342C155.317 321.336 155.294 321.323 155.276 321.304C155.258 321.285 155.246 321.261 155.242 321.235C155.238 321.208 155.242 321.18 155.255 321.157C155.267 321.133 155.287 321.113 155.311 321.101C155.559 320.975 157.765 319.833 158.418 320.233C158.48 320.267 158.531 320.316 158.568 320.376C158.605 320.436 158.625 320.505 158.627 320.575C158.639 320.693 158.623 320.813 158.578 320.923C158.534 321.034 158.464 321.132 158.374 321.209C157.983 321.461 157.518 321.575 157.055 321.533ZM155.787 321.158C156.985 321.355 157.879 321.304 158.221 321.006C158.279 320.955 158.323 320.891 158.351 320.819C158.378 320.748 158.388 320.671 158.38 320.594C158.381 320.566 158.374 320.539 158.361 320.514C158.347 320.49 158.328 320.469 158.304 320.455C157.93 320.258 156.681 320.727 155.774 321.158H155.787Z" fill="#FF5000"/>
<path d="M155.369 321.342C155.344 321.35 155.317 321.35 155.292 321.342C155.274 321.33 155.259 321.313 155.25 321.293C155.241 321.272 155.238 321.25 155.242 321.228C155.242 321.127 155.502 318.908 156.719 318.908H156.827C157.175 318.939 157.277 319.117 157.302 319.263C157.404 319.897 156.085 321.057 155.4 321.349C155.389 321.348 155.379 321.346 155.369 321.342ZM156.725 319.136C155.939 319.136 155.628 320.404 155.533 320.981C156.212 320.575 157.106 319.656 157.049 319.282C157.049 319.282 157.049 319.168 156.801 319.142L156.725 319.136Z" fill="#FF5000"/>
<path d="M155.033 320.582H148.922C148.815 320.582 148.713 320.619 148.631 320.687C148.55 320.756 148.496 320.851 148.478 320.956L147.66 325.787C147.644 325.908 147.654 326.031 147.689 326.148C147.724 326.265 147.784 326.373 147.864 326.465C147.945 326.557 148.044 326.63 148.155 326.681C148.267 326.731 148.387 326.757 148.51 326.757C150.64 326.719 151.68 326.592 154.355 326.592C156.003 326.592 159.427 326.763 161.703 326.763C163.979 326.763 164.163 324.512 163.218 324.303C158.983 323.39 157.335 322.122 155.934 320.918C155.683 320.703 155.364 320.584 155.033 320.582Z" fill="#263238"/>
<path opacity="0.2" d="M156.307 308.884L155.407 315.82L150.037 314.92L150.868 308.479L156.307 308.884Z" fill="black"/>
<path opacity="0.2" d="M119.491 289.649L123.181 293.745L118.921 296.686L115.098 292.686L119.491 289.649Z" fill="black"/>
<path d="M146.518 197.871L168.505 200.825C177.032 169.956 174.516 169.125 174.516 169.125C172.868 168.354 171.174 167.685 169.444 167.122L169.146 167.027C167.725 166.596 167.427 166.539 165.532 166.108C162.279 165.531 159.261 165.087 155.534 164.77C155.299 164.77 155.058 164.725 154.823 164.713C154.151 164.668 153.486 164.637 152.839 164.611C152.408 164.611 151.97 164.611 151.571 164.611H149.428C149.004 164.621 148.587 164.719 148.203 164.899C147.818 165.079 147.476 165.337 147.198 165.657C146.919 165.977 146.71 166.351 146.584 166.756C146.459 167.161 146.419 167.588 146.467 168.01C148.35 184.221 147.754 189.566 146.518 197.871Z" fill="#FF5000"/>
<path opacity="0.2" d="M169.139 176.106C169.291 177.538 172.6 180.157 173.748 179.453C174.078 177.735 174.318 176.283 174.49 175.116C172.829 174.99 169.576 173.157 169.139 176.106Z" fill="black"/>
<path d="M165.57 168.878C165.411 163.806 177.705 169.392 180.526 170.653L177.381 179.155C177.381 179.155 173.267 179.016 170.648 177.5C169.159 176.591 167.916 175.328 167.031 173.824C166.145 172.321 165.643 170.622 165.57 168.878Z" fill="#FF5000"/>
<path d="M157.093 148.59C157.499 153.954 157.556 156.23 160.333 159.019C164.498 163.21 171.06 161.727 172.277 156.395C173.374 151.595 172.525 143.632 167.205 141.426C166.063 140.914 164.808 140.71 163.563 140.832C162.317 140.954 161.125 141.398 160.104 142.122C159.083 142.845 158.269 143.822 157.741 144.956C157.213 146.091 156.989 147.343 157.093 148.59Z" fill="#B55B52"/>
<path d="M157.562 142.928C152.173 141.578 152.002 146.098 152.116 148.482C152.231 150.866 148.268 152.007 148.268 154.993C148.268 158.886 151.203 161.207 144.065 162.386C138.023 163.381 136.159 170.932 145.098 175.351C154.995 180.233 169.925 173.36 168.112 166.824C165.335 156.737 170.325 156.769 169.773 151.126C169.361 147.03 173.241 146.828 171.846 143.41C170.008 138.941 157.093 135.016 157.562 142.928Z" fill="#263238"/>
<path d="M151.325 150.492C150.583 146.587 150.989 144 152.529 142.789C154.514 141.223 157.563 142.58 157.69 142.637L157.43 143.214C157.43 143.214 154.596 141.946 152.916 143.284C151.578 144.342 151.255 146.726 151.946 150.372L151.325 150.492Z" fill="#263238"/>
<path d="M145.232 161.27C143.84 161.226 142.467 160.948 141.168 160.446L141.403 159.856C141.447 159.856 145.72 161.556 147.698 159.913C148.662 159.115 148.934 157.618 148.516 155.475L149.15 155.355C149.619 157.758 149.27 159.463 148.117 160.427C147.282 161.035 146.262 161.333 145.232 161.27Z" fill="#263238"/>
<path d="M168.309 150.752C168.258 151.752 168.517 152.744 169.051 153.592C169.786 154.79 170.782 154.569 171.105 153.554C171.428 152.54 171.371 150.91 170.376 150.042C169.381 149.173 168.411 149.642 168.309 150.752Z" fill="#B55B52"/>
<path d="M162.717 200.046C162.717 200.046 154.171 236.184 150.177 256.909C145.967 278.801 121.013 296.661 121.013 296.661L115.535 291.025C115.535 291.025 131.601 276.963 135.728 256.522C144.103 215.033 138.435 206.677 146.506 197.871L162.717 200.046Z" fill="#263238"/>
<path d="M121.481 297.472L114.641 290.435L116.562 288.368L124.506 295.361L121.481 297.472Z" fill="#FF5000"/>
<path opacity="0.2" d="M158.178 207.895C151.534 213.664 152.25 234.136 152.948 243.361C155.731 230.243 159.085 215.636 161.05 207.185C160.347 206.665 159.396 206.836 158.178 207.895Z" fill="black"/>
<path d="M168.201 200.845C168.201 200.845 172.043 243.722 169.945 260.079C167.764 277.089 156.631 314.102 156.631 314.102L148.852 313.094C148.852 313.094 155.192 276.411 156.352 259.572C157.582 241.186 152.11 198.708 152.11 198.708L168.201 200.845Z" fill="#263238"/>
<path d="M158.329 314.552L147.158 313.107L147.329 309.81L159.451 310.983L158.329 314.552Z" fill="#FF5000"/>
<path d="M146.315 196.546L145.11 198.365C145.021 198.511 145.186 198.689 145.44 198.72L168.505 201.846C168.701 201.846 168.879 201.795 168.904 201.675L169.31 199.773C169.342 199.64 169.177 199.5 168.961 199.469L146.676 196.482C146.615 196.462 146.551 196.457 146.487 196.468C146.424 196.479 146.365 196.506 146.315 196.546Z" fill="#FF5000"/>
<path opacity="0.3" d="M146.315 196.546L145.11 198.365C145.021 198.511 145.186 198.689 145.44 198.72L168.505 201.846C168.701 201.846 168.879 201.795 168.904 201.675L169.31 199.773C169.342 199.64 169.177 199.5 168.961 199.469L146.676 196.482C146.615 196.462 146.551 196.457 146.487 196.468C146.424 196.479 146.365 196.506 146.315 196.546Z" fill="black"/>
<path d="M149.054 199.418L148.458 199.342C148.338 199.342 148.255 199.253 148.274 199.177L148.819 196.672C148.819 196.603 148.946 196.558 149.067 196.571L149.663 196.653C149.783 196.653 149.866 196.742 149.853 196.812L149.301 199.316C149.289 199.392 149.175 199.437 149.054 199.418Z" fill="#263238"/>
<path d="M164.131 201.478L163.535 201.396C163.415 201.396 163.332 201.307 163.345 201.237L163.897 198.733C163.897 198.663 164.023 198.612 164.144 198.631L164.74 198.708C164.86 198.708 164.943 198.796 164.924 198.872L164.378 201.377C164.359 201.446 164.252 201.497 164.131 201.478Z" fill="#263238"/>
</svg>
