<svg xmlns="http://www.w3.org/2000/svg" viewBox="0 0 303.31 667.66"><defs><style>.cls-1{fill:#fcf5f2;}.cls-2{fill:#e94448;}</style></defs><g id="Livello_2" data-name="Livello 2"><g id="Livello_1-2" data-name="Livello 1"><rect class="cls-1" width="303.31" height="667.66"/><path class="cls-2" d="M66.25,363.34s7.21-6.53,15.1.82,3.13,12.92,3.13,12.92-6.12,6.26-16.19-2.17C68.29,374.91,61.62,368.24,66.25,363.34Z"/><path class="cls-2" d="M104.07,373.27s13.33-11.15,28.16,3,1.36,25.3,1.36,25.3-8.57,10-26.8-7.44C106.79,394.13,96.86,384.84,104.07,373.27Z"/><path class="cls-2" d="M167.33,100.43a17.35,17.35,0,0,1,6.49-11.12c4.14-3.09,10.91-5.19,20.48.69,17.42,10.7,17.78,32.65,10.7,37.55-6,4.13-20.69,7.23-31.47-5.49a26.56,26.56,0,0,1-6.25-21.35C167.3,100.62,167.31,100.53,167.33,100.43Z"/><path class="cls-2" d="M303.31,121.18A50.75,50.75,0,0,0,293,117.94c-11.53-2.13-22,3.08-30.44,10-23.08,19-53.47,27.15-82.48,19.91C147,139.58,141,120.9,116.13,104,80.4,79.66,68.06,73,34.33,86.19c-15.16,6-25.68,4.64-32.7,1.41-.57-.33-1.11-.68-1.63-1V340.35C7.64,333.08,17.31,327,28.32,329c3.81.7,14.15,6.1,16.82,8,11.09,7.85,19.21,15,32.78,14.47a189.19,189.19,0,0,1,30.21,1.15,74.15,74.15,0,0,1,39.37,17.51c41.31,35.38,84.8,23.93,107.16,13.88a72.26,72.26,0,0,0,21.65-15.4c9.58-9.72,18.77-15.22,27-17.95Z"/></g></g></svg>