<svg xmlns="http://www.w3.org/2000/svg" viewBox="0 0 303.31 667.66"><defs><style>.cls-1{fill:#fcf5f2;}.cls-2{fill:#e94448;}</style></defs><g id="Livello_2" data-name="Livello 2"><g id="Livello_1-2" data-name="Livello 1"><rect class="cls-1" width="303.31" height="667.66"/><path class="cls-2" d="M75,131s1.75-9.57,12.48-8.54,10.34,8.36,10.34,8.36-1,8.69-14.17,8.12C83.68,139,74.34,137.71,75,131Z"/><path class="cls-2" d="M111.08,115.88s3.8-17,24.17-14.75,16.47,19.25,16.47,19.25-.7,13.16-25.79,10.4C125.93,130.78,112.39,129.45,111.08,115.88Z"/><path class="cls-2" d="M215.18,362.39a10.35,10.35,0,0,1,7.23,10.28c-.12,3.94-2,9-9.08,13.39-14.18,8.85-19.71-1.61-20.08-3.28s-1.33-15.58,11.87-20.06A15.84,15.84,0,0,1,215.18,362.39Z"/><path class="cls-2" d="M303.31,66.1c-21.83-.21-99.43,2.83-121,55.12C163.35,167.07,89,161,66.75,154.05c-26.34-8.27-46.51-24.3-64.12-32.34v.09C1.75,121.39.87,121,0,120.65v229.5c.89-.3,1.77-.57,2.63-.8v0c10-2.73,18.46-1.35,24.13,1.39,15.86,7.67,16.13,11.74,22.39,26.72,21.24,50.75,96-1.74,125.52-15.24,30.11-13.79,47.34-20.5,75.45-7.44,23.1,10.73,45.82,9.95,53.19,9.33Z"/></g></g></svg>