<svg width="414" height="896" viewBox="0 0 414 896" fill="none" xmlns="http://www.w3.org/2000/svg">
<g clip-path="url(#clip0_969_1716)">
<rect width="414" height="896" rx="40" fill="#FCF5F2"/>
<path d="M340.202 166.512C297.452 98.6518 233.708 130.687 199.879 145.687C144.677 168.649 141.965 162.774 114.082 167.179C77.6789 172.929 11.3397 204.724 55.026 295.057C132.023 454.269 225.12 424.442 277.545 399.585C344.776 367.709 393.64 251.337 340.202 166.512Z" fill="#FF8730"/>
<path d="M361.97 196.011C366.366 211.135 368.387 216.149 369.809 229.959C371.293 244.363 378.658 241.507 380.771 238.09C404.702 208.648 369.292 180.605 365.009 178.053C360.727 175.501 357.465 180.514 361.97 196.011Z" fill="#FF8730"/>
<circle cx="373.259" cy="253.17" r="4.04" transform="rotate(109.686 373.259 253.17)" fill="#FF8730"/>
<path d="M110.586 397.031C115.157 399.523 119.827 402.842 117.809 406.543C115.792 410.243 110.45 411.222 105.88 408.729C101.309 406.237 99.2392 401.217 101.257 397.517C103.275 393.816 106.015 394.538 110.586 397.031Z" fill="#FF8730"/>
<path d="M340.197 372.322C329.311 385.214 326.21 391.456 313.241 394.395C300.272 397.333 306.65 407.234 310.574 407.515C346.773 414.873 356.969 371.687 357.455 366.843C357.941 361.999 350.59 360.015 340.197 372.322Z" fill="#FF8730"/>
<path d="M84.7508 374.743C73.0603 363.775 63.8515 346.872 60.7085 339.792C54.5706 323.015 46.6509 331.325 43.4582 337.576C30.9131 372.238 74.6227 400.851 83.5721 400C92.5214 399.15 99.364 388.452 84.7508 374.743Z" fill="#FF8730"/>
<circle cx="185.552" cy="383.841" r="19.4032" fill="#FFB99B"/>
<circle cx="185.552" cy="381.685" r="19.4032" fill="#FCF5F2"/>
<circle cx="255.618" cy="334.256" r="19.4032" fill="#FFB99B"/>
<circle cx="255.618" cy="332.1" r="19.4032" fill="#FCF5F2"/>
<circle cx="210.596" cy="266.617" r="25.7547" fill="#FFB99B"/>
<circle cx="210.596" cy="263.755" r="25.7547" fill="#FCF5F2"/>
<circle cx="166.147" cy="200.589" r="19.4032" fill="black"/>
<circle cx="166.147" cy="198.433" r="19.4032" fill="#919191"/>
<circle cx="230.825" cy="144.535" r="19.4032" fill="black"/>
<circle cx="230.825" cy="142.379" r="19.4032" fill="#919191"/>
<path d="M200.708 145C221.833 134.962 253.611 126.157 263 125.453L240.25 117L198 123.34L200.708 145Z" fill="#FCF5F2"/>
</g>
<defs>
<clipPath id="clip0_969_1716">
<rect width="414" height="896" rx="40" fill="white"/>
</clipPath>
</defs>
</svg>
