<svg width="414" height="896" viewBox="0 0 414 896" fill="none" xmlns="http://www.w3.org/2000/svg">
<g clip-path="url(#clip0_969_1716)">
<rect width="414" height="896" rx="40" fill="#FCF5F2"/>
<path d="M373.8 289.023C362.986 175.747 300.904 151.74 266.089 151.087C220.026 150.223 189.409 136.368 171.993 127.19C98.0901 88.2454 71.5064 144.817 54.5454 174.508C10.0695 272.243 18.5 379.5 140.5 425C260.318 469.686 386.909 426.353 373.8 289.023Z" fill="#FF8730"/>
<path d="M260.261 125.161C261.246 141.569 240.787 138.797 232.166 136.261C226.819 135.131 186.002 124.208 187.446 114.254C188.89 104.3 203.284 105.688 222.37 105.809C241.457 105.929 259.03 104.651 260.261 125.161Z" fill="#FF8730"/>
<path d="M280.455 136.634C276.557 132.34 271.585 127.106 275.062 123.951C278.538 120.796 289.146 120.915 293.043 125.209C296.94 129.503 297.282 135.542 293.805 138.697C290.329 141.852 284.352 140.928 280.455 136.634Z" fill="#FF8730"/>
<path d="M362.634 214.853C371.076 230.231 374.487 235.193 379.377 249.863C384.479 265.164 391.794 260.276 393.264 256.05C412.154 218.246 366.865 196.331 361.591 194.593C356.317 192.855 353.984 199.096 362.634 214.853Z" fill="#FF8730"/>
<circle cx="388.748" cy="274.265" r="4.5" transform="rotate(97.1306 388.748 274.265)" fill="#FF8730"/>
<circle cx="172.447" cy="110.146" r="4.5" transform="rotate(97.1306 172.447 110.146)" fill="#FF8730"/>
<path d="M94.4604 427.243C99.5517 430.02 104.754 433.717 102.506 437.838C100.259 441.96 94.3097 443.05 89.2185 440.274C84.1273 437.498 81.8219 431.906 84.0694 427.784C86.3168 423.663 89.3692 424.467 94.4604 427.243Z" fill="#FF8730"/>
<path d="M350.215 405.291C338.089 419.65 334.635 426.603 320.189 429.876C305.743 433.149 312.848 444.178 317.219 444.491C357.54 452.686 368.897 404.583 369.438 399.188C369.979 393.792 361.791 391.582 350.215 405.291Z" fill="#FF8730"/>
<path d="M354 162.5C349.6 152.9 334.5 131.5 324.5 124H343L354.5 136L354 162.5Z" fill="#FCF5F2"/>
<path d="M65.6846 402.417C52.663 390.201 42.4057 371.373 38.9048 363.487C32.0681 344.8 23.2466 354.056 19.6904 361.019C5.71692 399.628 54.4033 431.499 64.3717 430.551C74.34 429.603 81.9617 417.688 65.6846 402.417Z" fill="#FF8730"/>
</g>
<defs>
<clipPath id="clip0_969_1716">
<rect width="414" height="896" rx="40" fill="white"/>
</clipPath>
</defs>
</svg>
