<svg width="414" height="896" viewBox="0 0 414 896" fill="none" xmlns="http://www.w3.org/2000/svg">
<g clip-path="url(#clip0_916_1715)">
<rect width="414" height="896" rx="40" fill="#FCF5F2"/>
<path d="M358.534 110.474C311.237 35.3962 238.654 64.6213 203.285 87.4343C135.738 123.287 150.336 115.539 108.363 111.212C67.8036 107.031 -7.04523 153.61 43.0258 252.692C120.5 406 211.001 406.5 283.5 373.5C366.837 335.567 417.656 204.322 358.534 110.474Z" fill="#FE5B3B"/>
<path d="M82.9725 333.103C68.3296 322.886 55.4719 305.729 50.8735 298.428C41.4211 280.918 34.022 291.346 31.504 298.749C23.2268 338.965 75.9897 363.505 85.7182 361.134C95.4467 358.762 101.276 345.875 82.9725 333.103Z" fill="#FE5B3B"/>
<path d="M350.296 336.749C337.668 350.67 333.97 357.496 319.417 360.255C304.864 363.013 311.573 374.287 315.93 374.755C355.936 384.375 368.991 336.705 369.723 331.332C370.455 325.958 362.35 323.459 350.296 336.749Z" fill="#FE5B3B"/>
<path d="M205.867 51.3786C217.877 62.3247 205.369 74.804 197.614 79.6754C193.11 83.0138 150.05 103.95 144.186 95.727C138.322 87.5039 144.596 71.6559 157.974 56.9492C171.352 42.2425 190.855 37.696 205.867 51.3786Z" fill="#FE5B3B"/>
<circle cx="295.5" cy="377.5" r="4.5" fill="#FE5B3B"/>
<circle cx="38.5" cy="268.5" r="4.5" fill="#FE5B3B"/>
<circle cx="127.5" cy="97.5" r="4.5" fill="#FE5B3B"/>
<path d="M95.0375 101.014C89.2386 101.021 82.0217 101.194 82.0156 96.5C82.0096 91.8056 89.2166 84.021 95.0156 84.0135C100.815 84.0061 105.521 87.8056 105.527 92.5C105.533 97.1944 100.837 101.006 95.0375 101.014Z" fill="#FE5B3B"/>
</g>
<defs>
<clipPath id="clip0_916_1715">
<rect width="414" height="896" rx="40" fill="white"/>
</clipPath>
</defs>
</svg>
