<svg width="414" height="896" viewBox="0 0 414 896" fill="none" xmlns="http://www.w3.org/2000/svg">
<g clip-path="url(#clip0_1167_2492)">
<rect width="414" height="896" rx="40" fill="#FCF5F2"/>
<path d="M340.202 166.512C297.452 98.6518 233.708 130.687 199.879 145.687C144.677 168.649 141.965 162.774 114.082 167.179C77.6789 172.929 11.3397 204.724 55.026 295.057C132.023 454.269 225.12 424.442 277.545 399.585C344.776 367.709 393.64 251.337 340.202 166.512Z" fill="#FF8730"/>
<path d="M361.97 196.011C366.366 211.135 368.387 216.149 369.809 229.959C371.293 244.363 378.658 241.507 380.771 238.09C404.702 208.648 369.292 180.605 365.009 178.053C360.727 175.501 357.465 180.514 361.97 196.011Z" fill="#FF8730"/>
<circle cx="373.259" cy="253.17" r="4.04" transform="rotate(109.686 373.259 253.17)" fill="#FF8730"/>
<path d="M110.586 397.031C115.157 399.523 119.827 402.842 117.809 406.543C115.792 410.243 110.45 411.222 105.88 408.729C101.309 406.237 99.2392 401.217 101.257 397.517C103.275 393.816 106.015 394.538 110.586 397.031Z" fill="#FF8730"/>
<path d="M340.197 372.322C329.311 385.214 326.21 391.456 313.241 394.395C300.272 397.333 306.65 407.234 310.574 407.515C346.773 414.873 356.969 371.687 357.455 366.843C357.941 361.999 350.59 360.015 340.197 372.322Z" fill="#FF8730"/>
<path d="M84.7508 374.743C73.0603 363.775 63.8515 346.872 60.7085 339.792C54.5706 323.015 46.6509 331.325 43.4582 337.576C30.9131 372.238 74.6227 400.851 83.5721 400C92.5214 399.15 99.364 388.452 84.7508 374.743Z" fill="#FF8730"/>
<path d="M200.708 145C221.833 134.962 253.611 126.157 263 125.453L240.25 117L198 123.34L200.708 145Z" fill="#FCF5F2"/>
<path d="M213.5 360C257.959 360 294 357.314 294 354C294 350.686 257.959 348 213.5 348C169.041 348 133 350.686 133 354C133 357.314 169.041 360 213.5 360Z" fill="#F5F5F5"/>
<path d="M215.672 320.64H152.964C151.954 320.63 150.986 320.239 150.253 319.543C149.521 318.848 149.079 317.901 149.017 316.893L143.404 207.977C143.373 207.492 143.442 207.006 143.607 206.549C143.773 206.092 144.031 205.675 144.365 205.323C144.7 204.97 145.103 204.691 145.551 204.502C145.998 204.313 146.48 204.218 146.966 204.224H209.674C210.684 204.236 211.652 204.629 212.383 205.325C213.115 206.021 213.555 206.969 213.616 207.977L219.229 316.893C219.26 317.377 219.191 317.863 219.026 318.319C218.861 318.775 218.603 319.192 218.269 319.544C217.935 319.895 217.532 320.174 217.085 320.363C216.638 320.552 216.157 320.646 215.672 320.64Z" fill="white"/>
<path d="M215.673 318.137H152.965C152.597 318.125 152.247 317.977 151.98 317.723C151.714 317.469 151.55 317.126 151.52 316.76L145.902 207.848C145.89 207.703 145.908 207.557 145.956 207.42C146.004 207.283 146.08 207.157 146.18 207.052C146.28 206.946 146.402 206.863 146.536 206.808C146.671 206.753 146.816 206.728 146.961 206.733H209.669C210.036 206.747 210.385 206.895 210.65 207.148C210.916 207.402 211.078 207.744 211.108 208.11L216.752 317.022C216.765 317.166 216.746 317.311 216.699 317.448C216.651 317.585 216.575 317.71 216.475 317.816C216.376 317.921 216.255 318.004 216.121 318.059C215.987 318.115 215.843 318.141 215.698 318.137H215.673ZM146.961 206.861C146.833 206.857 146.706 206.88 146.588 206.928C146.469 206.975 146.362 207.047 146.272 207.139C146.187 207.234 146.121 207.345 146.079 207.466C146.038 207.587 146.021 207.715 146.031 207.843L151.644 316.755C151.672 317.088 151.822 317.4 152.064 317.631C152.307 317.862 152.625 317.996 152.96 318.009H215.668C215.795 318.014 215.921 317.992 216.039 317.944C216.157 317.896 216.264 317.823 216.351 317.731C216.439 317.638 216.506 317.526 216.548 317.405C216.589 317.284 216.605 317.155 216.593 317.027L210.985 208.115C210.958 207.782 210.809 207.471 210.568 207.24C210.326 207.009 210.008 206.874 209.674 206.861H146.961Z" fill="white"/>
<path opacity="0.3" d="M193.737 246.427C200.87 239.108 200.405 227.087 192.7 219.579C184.995 212.07 172.966 211.916 165.834 219.235C158.702 226.554 159.166 238.574 166.872 246.083C174.577 253.592 186.605 253.746 193.737 246.427Z" fill="white"/>
<path d="M195.164 232.834C195.308 235.359 194.8 237.88 193.689 240.153C192.486 242.591 190.619 244.639 188.303 246.063C185.987 247.486 183.316 248.226 180.597 248.197C177.78 248.172 175.018 247.417 172.578 246.008C170.139 244.598 168.107 242.581 166.678 240.153C165.347 237.932 164.581 235.419 164.447 232.834C164.321 230.851 164.605 228.863 165.281 226.995C165.958 225.127 167.013 223.418 168.38 221.977C169.748 220.535 171.398 219.391 173.228 218.617C175.057 217.842 177.027 217.453 179.014 217.475C183.149 217.518 187.115 219.127 190.111 221.977C193.108 224.826 194.913 228.706 195.164 232.834Z" fill="white"/>
<path d="M193.673 240.153C192.47 242.591 190.603 244.64 188.287 246.063C185.971 247.486 183.3 248.226 180.581 248.197C177.764 248.172 175.002 247.418 172.562 246.008C170.123 244.598 168.091 242.581 166.662 240.153C170.568 237.455 175.207 236.02 179.954 236.041C184.828 236.059 189.592 237.487 193.673 240.153Z" fill="white"/>
<path d="M184.548 232.476C187.117 229.84 186.949 225.508 184.172 222.802C181.395 220.095 177.06 220.039 174.491 222.676C171.921 225.313 172.089 229.644 174.866 232.351C177.644 235.057 181.978 235.113 184.548 232.476Z" fill="white"/>
<path d="M250.162 230.783C250.291 230.978 250.358 231.081 250.44 231.22L250.671 231.6C250.82 231.857 250.954 232.114 251.082 232.366C251.339 232.88 251.596 233.394 251.802 233.908C252.233 234.929 252.603 235.974 252.912 237.038C253.534 239.14 253.944 241.3 254.135 243.484L254.171 243.89C254.176 243.972 254.176 244.054 254.171 244.136V244.409C254.18 244.766 254.159 245.124 254.11 245.478C254.011 246.134 253.839 246.778 253.596 247.395C253.144 248.498 252.546 249.536 251.817 250.479C250.458 252.22 248.845 253.746 247.032 255.008L245.613 253.347C246.904 251.889 248.047 250.307 249.026 248.624C249.467 247.86 249.812 247.045 250.054 246.198C250.152 245.839 250.209 245.47 250.224 245.098C250.24 244.939 250.24 244.779 250.224 244.62V244.512C250.229 244.464 250.229 244.416 250.224 244.368L250.162 244.008C249.832 242.092 249.364 240.203 248.764 238.354C248.466 237.434 248.101 236.545 247.736 235.676C247.556 235.239 247.351 234.812 247.145 234.401L246.826 233.795L246.667 233.512L246.533 233.286L250.162 230.783Z" fill="#803E3C"/>
<path d="M245.381 255.018L247.242 258.95L248.717 255.624C248.717 255.624 247.406 252.746 245.633 253.013L245.381 255.018Z" fill="#7F3E3B"/>
<path d="M248.573 259.145L250.054 256.719L248.717 255.624L247.242 258.95L248.573 259.145Z" fill="#7F3E3B"/>
<path d="M240.206 349.825C240.591 349.816 240.973 349.764 241.347 349.671C241.366 349.665 241.383 349.655 241.396 349.64C241.41 349.626 241.419 349.608 241.424 349.589C241.427 349.569 241.424 349.549 241.416 349.53C241.408 349.512 241.395 349.497 241.378 349.486C241.229 349.388 239.923 348.545 239.419 348.772C239.364 348.798 239.316 348.838 239.28 348.888C239.245 348.939 239.224 348.998 239.219 349.059C239.203 349.152 239.211 349.248 239.24 349.337C239.27 349.427 239.321 349.508 239.389 349.573C239.622 349.753 239.912 349.843 240.206 349.825ZM241.054 349.522C240.309 349.676 239.743 349.65 239.512 349.45C239.465 349.403 239.43 349.345 239.411 349.281C239.392 349.218 239.39 349.15 239.404 349.085C239.404 348.998 239.455 348.972 239.491 348.957C239.769 348.833 240.524 349.198 241.054 349.522Z" fill="white"/>
<path d="M241.321 349.671H241.372C241.387 349.661 241.4 349.647 241.409 349.631C241.418 349.615 241.423 349.597 241.423 349.578C241.423 349.527 241.423 348.288 240.951 347.872C240.892 347.82 240.824 347.781 240.749 347.758C240.675 347.735 240.596 347.728 240.519 347.738C240.438 347.739 240.359 347.767 240.297 347.819C240.234 347.87 240.191 347.942 240.174 348.021C240.077 348.509 240.858 349.435 241.269 349.671H241.321ZM240.586 347.929C240.627 347.927 240.669 347.934 240.707 347.949C240.746 347.964 240.782 347.987 240.812 348.016C241.083 348.416 241.223 348.89 241.213 349.373C240.801 349.044 240.313 348.345 240.375 348.052C240.375 348.006 240.411 347.944 240.539 347.929H240.586Z" fill="white"/>
<path d="M235.353 347.728C235.365 347.713 235.373 347.695 235.375 347.676C235.378 347.657 235.376 347.637 235.368 347.619C235.361 347.601 235.349 347.586 235.334 347.574C235.318 347.563 235.3 347.555 235.281 347.553C235.07 347.553 233.225 347.466 232.803 347.918V347.949C232.768 347.993 232.746 348.046 232.738 348.102C232.73 348.158 232.736 348.215 232.757 348.268C232.784 348.356 232.833 348.436 232.898 348.502C232.964 348.567 233.044 348.615 233.132 348.643C233.728 348.828 234.782 348.155 235.358 347.738L235.353 347.728ZM232.957 348.052C233.189 347.805 234.207 347.738 234.967 347.748C234.171 348.293 233.507 348.55 233.173 348.448C233.115 348.43 233.062 348.398 233.019 348.355C232.976 348.312 232.944 348.259 232.927 348.201C232.916 348.181 232.911 348.159 232.911 348.137C232.911 348.114 232.916 348.092 232.927 348.072L232.957 348.052Z" fill="white"/>
<path d="M235.353 347.728C235.361 347.712 235.365 347.694 235.365 347.677C235.365 347.659 235.361 347.641 235.353 347.625C235.327 347.584 234.752 346.597 234.073 346.392C233.976 346.363 233.873 346.355 233.773 346.367C233.672 346.38 233.575 346.412 233.487 346.464C233.24 346.608 233.225 346.777 233.256 346.885C233.389 347.363 234.7 347.785 235.266 347.779C235.283 347.779 235.301 347.774 235.316 347.765C235.331 347.756 235.344 347.743 235.353 347.728ZM233.508 346.7C233.537 346.672 233.57 346.647 233.605 346.628C233.669 346.588 233.74 346.562 233.815 346.552C233.89 346.542 233.965 346.549 234.037 346.572C234.484 346.69 234.901 347.265 235.091 347.548C234.479 347.481 233.549 347.106 233.472 346.818C233.465 346.796 233.465 346.773 233.471 346.751C233.478 346.729 233.49 346.71 233.508 346.695V346.7Z" fill="white"/>
<path d="M241.013 215.728C240.499 218.298 239.389 223.854 241.172 225.561C241.172 225.561 240.473 228.131 235.729 228.131C230.507 228.131 233.236 225.561 233.236 225.561C236.084 224.882 236.012 222.764 235.513 220.78L241.013 215.728Z" fill="#7F3E3B"/>
<path d="M232.315 209.704C232.344 209.708 232.373 209.708 232.402 209.704C232.427 209.692 232.448 209.675 232.466 209.654C232.484 209.634 232.498 209.61 232.507 209.584C232.515 209.558 232.519 209.531 232.517 209.504C232.514 209.477 232.507 209.45 232.495 209.426C232.357 209.133 232.15 208.877 231.892 208.68C231.635 208.483 231.334 208.351 231.014 208.295C230.961 208.291 230.908 208.307 230.866 208.34C230.824 208.374 230.796 208.422 230.788 208.475C230.782 208.529 230.798 208.583 230.832 208.625C230.865 208.667 230.914 208.695 230.968 208.701C231.22 208.75 231.457 208.857 231.659 209.016C231.861 209.174 232.022 209.378 232.13 209.611C232.15 209.641 232.177 209.666 232.21 209.682C232.242 209.698 232.279 209.706 232.315 209.704Z" fill="#263238"/>
<path d="M230.759 211.96C230.354 212.71 229.849 213.402 229.258 214.016C229.418 214.162 229.608 214.272 229.815 214.338C230.022 214.404 230.24 214.424 230.455 214.396L230.759 211.96Z" fill="#630F0F"/>
<path d="M231.144 211.379C231.103 211.724 230.882 211.981 230.661 211.955C230.44 211.929 230.286 211.626 230.327 211.282C230.368 210.937 230.589 210.68 230.841 210.706C231.093 210.732 231.18 211.035 231.144 211.379Z" fill="#263238"/>
<path d="M230.907 210.737L230.115 210.418C230.115 210.418 230.449 211.096 230.907 210.737Z" fill="#263238"/>
<path d="M239.892 346.752L235.698 347.728L233.148 338.085L237.343 337.109L239.892 346.752Z" fill="#7F3E3B"/>
<path d="M246.328 349.568H242.025L242.359 339.602H246.667L246.328 349.568Z" fill="#7F3E3B"/>
<path d="M241.68 349.07H246.517C246.601 349.069 246.682 349.099 246.745 349.154C246.809 349.208 246.85 349.285 246.861 349.368L247.411 353.192C247.422 353.289 247.412 353.386 247.383 353.479C247.353 353.572 247.304 353.657 247.239 353.73C247.174 353.802 247.094 353.86 247.005 353.899C246.916 353.938 246.82 353.958 246.722 353.958C245.036 353.932 244.224 353.829 242.096 353.829C240.786 353.829 238.874 353.968 237.069 353.968C235.265 353.968 235.163 352.179 235.918 352.02C239.29 351.29 239.824 350.293 240.96 349.337C241.161 349.165 241.416 349.071 241.68 349.07Z" fill="#263238"/>
<path d="M235.328 347.086L239.722 345.065C239.797 345.03 239.882 345.023 239.961 345.046C240.041 345.068 240.109 345.119 240.154 345.189L242.256 348.437C242.305 348.521 242.336 348.614 242.347 348.71C242.358 348.807 242.349 348.904 242.32 348.997C242.291 349.089 242.243 349.175 242.179 349.247C242.115 349.32 242.036 349.379 241.948 349.419C240.406 350.098 239.625 350.349 237.692 351.239C236.505 351.783 234.094 353.038 232.459 353.809C230.825 354.58 229.982 352.981 230.599 352.518C233.359 350.462 234.15 348.987 234.783 347.646C234.89 347.399 235.083 347.199 235.328 347.086Z" fill="#263238"/>
<path opacity="0.2" d="M233.148 338.085L234.516 343.256L238.659 342.079L237.348 337.109L233.148 338.085Z" fill="black"/>
<path opacity="0.2" d="M246.666 339.602H242.359L242.189 344.742H246.497L246.666 339.602Z" fill="black"/>
<path d="M248.62 226.537C250.409 226.933 252.321 233.363 252.321 233.363L247.263 238.745C247.263 238.745 243.064 232.7 243.922 230.48C244.791 228.161 246.487 226.075 248.62 226.537Z" fill="#263238"/>
<path opacity="0.4" d="M245.762 230.634C244.858 229.806 244.246 230.053 243.83 230.711C243.418 232.623 245.855 236.627 246.836 238.143C247.289 236.334 247.808 232.52 245.762 230.634Z" fill="black"/>
<path d="M225.957 226.666C225.957 226.666 223.901 227.385 228.013 252.648H245.489C245.196 245.535 245.186 241.145 248.573 226.537C246.125 226.032 243.642 225.705 241.146 225.561C238.504 225.37 235.852 225.37 233.21 225.561C229.823 225.874 225.957 226.666 225.957 226.666Z" fill="#263238"/>
<path opacity="0.4" d="M225.799 236.36C225.912 237.588 226.061 238.971 226.256 240.533C227.69 239.243 228.862 235.573 228.431 233.435C227.406 234.267 226.518 235.253 225.799 236.36Z" fill="black"/>
<path d="M227.669 232.52C226.726 234.894 225.664 237.218 224.488 239.485C223.325 241.833 221.948 244.07 220.376 246.167L220.047 246.573L219.882 246.773C219.826 246.84 219.779 246.902 219.692 246.994C219.383 247.332 219.038 247.635 218.664 247.899C218.003 248.357 217.279 248.717 216.516 248.968C215.184 249.393 213.801 249.639 212.404 249.698C209.787 249.802 207.168 249.569 204.611 249.004L204.894 246.845C206.076 246.845 207.315 246.845 208.492 246.748C209.674 246.689 210.852 246.559 212.018 246.357C213.101 246.188 214.161 245.891 215.174 245.473C215.583 245.298 215.966 245.066 216.31 244.784C216.441 244.674 216.56 244.55 216.665 244.414C216.665 244.414 216.726 244.332 216.767 244.275L216.886 244.106L217.127 243.766C218.417 241.774 219.566 239.694 220.566 237.542C221.594 235.357 222.622 233.091 223.563 230.86L227.669 232.52Z" fill="#803E3C"/>
<path d="M225.957 226.666C223.813 227.18 221.182 233.06 221.182 233.06L225.623 239.588C225.623 239.588 231.539 232.14 230.835 229.868C230.115 227.498 228.573 226.028 225.957 226.666Z" fill="#263238"/>
<path d="M206.127 247.174L202.421 245.463L202.051 249.148C202.051 249.148 205.135 250.058 206.677 249.148L206.127 247.174Z" fill="#7F3E3B"/>
<path d="M200.206 245.093L199.852 247.899L202.051 249.148L202.422 245.463L200.206 245.093Z" fill="#7F3E3B"/>
<path d="M242.873 211.631C242.087 215.831 241.845 217.63 239.44 219.537C235.842 222.405 230.83 220.523 230.347 216.175C229.905 212.258 231.262 206.049 235.615 204.867C236.574 204.602 237.585 204.588 238.551 204.825C239.518 205.062 240.407 205.542 241.135 206.221C241.863 206.899 242.404 207.752 242.709 208.699C243.013 209.647 243.07 210.656 242.873 211.631Z" fill="#7F3E3B"/>
<path d="M233.646 212.515C233.405 214.659 233.312 220.225 238.02 220.4C243.782 220.611 245.509 215.687 244.995 213.718C247.997 211.277 248.429 207.077 245.057 203.865C241.685 200.652 234.263 202.446 232.207 205.576C229.601 209.457 233.646 212.515 233.646 212.515Z" fill="#263238"/>
<path d="M239.419 205.114C239.141 202.852 239.357 201.295 241.475 201.295C243.593 201.295 246.481 202.061 247.54 204.224C248.599 206.388 248.686 209.776 245.731 209.431C242.775 209.087 239.753 207.817 239.419 205.114Z" fill="white"/>
<path d="M242.698 204.569C242.184 201.875 244.595 194.289 250.449 193.775C253.163 193.543 254.417 196.463 253.019 196.946C255.589 196.915 257.234 200.313 254.839 200.822C256.73 202.035 256.263 204.522 253.564 205.746C251.554 206.671 243.392 208.3 242.698 204.569Z" fill="#263238"/>
<path d="M248.954 207.463C247.068 207.463 245.099 207.185 243.876 206.368C243.534 206.161 243.246 205.877 243.036 205.537C242.826 205.197 242.7 204.813 242.668 204.414C242.667 204.381 242.678 204.348 242.7 204.322C242.722 204.296 242.753 204.28 242.786 204.276C242.803 204.274 242.821 204.275 242.837 204.28C242.854 204.285 242.869 204.293 242.882 204.304C242.895 204.315 242.905 204.329 242.913 204.344C242.92 204.36 242.925 204.377 242.925 204.394C242.956 204.753 243.071 205.1 243.262 205.406C243.452 205.713 243.712 205.97 244.02 206.157C246.348 207.699 251.73 207.185 253.406 206.671C254.855 206.198 255.837 205.278 256.032 204.219C256.093 203.831 256.045 203.433 255.893 203.07C255.742 202.707 255.493 202.393 255.174 202.163C255.161 202.152 255.152 202.138 255.145 202.122C255.138 202.107 255.135 202.09 255.135 202.073C255.135 202.056 255.138 202.04 255.145 202.024C255.152 202.009 255.161 201.995 255.174 201.983C255.198 201.96 255.23 201.947 255.264 201.947C255.297 201.947 255.33 201.96 255.354 201.983C255.712 202.245 255.991 202.601 256.159 203.013C256.327 203.424 256.377 203.874 256.305 204.312C256.094 205.468 255.05 206.455 253.508 206.959C252.02 207.334 250.488 207.503 248.954 207.463Z" fill="#263238"/>
<path d="M232.337 211.96C231.858 212.631 231.661 213.463 231.787 214.278C231.957 215.358 233.005 215.43 233.766 214.741C234.527 214.052 235.19 212.808 234.63 211.914C234.505 211.721 234.333 211.562 234.13 211.455C233.927 211.347 233.7 211.292 233.47 211.297C233.241 211.302 233.016 211.365 232.817 211.481C232.619 211.597 232.454 211.762 232.337 211.96Z" fill="#7F3E3B"/>
<path d="M232.629 252.648C232.629 252.648 235.127 282.198 237.723 298.852C239.815 312.303 241.47 343.744 241.47 343.744H247.34C247.34 343.744 249.426 313.244 248.368 299.941C245.679 266.274 251.678 263.53 245.505 252.653L232.629 252.648Z" fill="white"/>
<path opacity="0.4" d="M240.021 263.818C237.694 266.259 235.817 269.092 234.475 272.186C235.158 278.826 235.97 286.197 236.834 292.653C240.377 283.48 241.475 273.543 240.021 263.818Z" fill="black"/>
<path d="M228.522 252.463C228.522 252.463 223.099 284.737 222.246 299.284C224.374 312.735 233.081 341.169 233.081 341.169L238.422 339.232C238.422 339.232 235.466 308.227 232.254 299.741C239.486 275.393 244.8 269.235 243.253 252.648C239.547 252.648 228.522 252.463 228.522 252.463Z" fill="white"/>
<path d="M232.367 342.588L239.584 340.63L239.173 337.751L231.447 339.843L232.367 342.588Z" fill="#263238"/>
<path d="M240.662 343.863H248.141L248.532 341.241L240.621 340.974L240.662 343.863Z" fill="#263238"/>
<path d="M245.762 251.62L246.548 253.188C246.61 253.311 246.466 253.435 246.266 253.435H227.926C227.772 253.435 227.638 253.358 227.628 253.255L227.469 251.713C227.469 251.605 227.597 251.512 227.767 251.512H245.474C245.527 251.505 245.581 251.511 245.632 251.53C245.682 251.549 245.727 251.58 245.762 251.62Z" fill="white"/>
<path opacity="0.5" d="M245.762 251.62L246.548 253.188C246.61 253.311 246.466 253.435 246.266 253.435H227.926C227.772 253.435 227.638 253.358 227.628 253.255L227.469 251.713C227.469 251.605 227.597 251.512 227.767 251.512H245.474C245.527 251.505 245.581 251.511 245.632 251.53C245.682 251.549 245.727 251.58 245.762 251.62Z" fill="black"/>
<path d="M243.383 253.594H243.856C243.953 253.594 244.025 253.543 244.02 253.486L243.794 251.43C243.794 251.369 243.707 251.322 243.614 251.322H243.136C243.044 251.322 242.972 251.369 242.977 251.43L243.198 253.486C243.208 253.553 243.29 253.594 243.383 253.594Z" fill="white"/>
<path d="M237.019 238.626C236.962 238.625 236.907 238.607 236.862 238.572C236.817 238.538 236.784 238.491 236.767 238.436C235.092 232.237 231.627 227.128 229.947 226.357C229.816 226.277 229.659 226.251 229.51 226.285C229.479 226.302 229.445 226.311 229.41 226.314C229.375 226.317 229.339 226.312 229.306 226.301C229.273 226.289 229.243 226.271 229.217 226.248C229.191 226.224 229.17 226.195 229.156 226.163C229.141 226.131 229.133 226.097 229.133 226.062C229.132 226.027 229.139 225.992 229.152 225.959C229.166 225.927 229.186 225.898 229.211 225.873C229.236 225.849 229.266 225.83 229.299 225.817C229.439 225.766 229.589 225.746 229.739 225.758C229.888 225.77 230.032 225.815 230.162 225.889C231.941 226.732 235.457 231.77 237.214 238.107C238.474 238.107 240.417 237.938 240.89 237.896C241.476 237.197 245.783 231.811 244.174 225.915C244.165 225.883 244.162 225.849 244.166 225.815C244.17 225.782 244.181 225.75 244.198 225.72C244.214 225.691 244.237 225.666 244.264 225.645C244.291 225.625 244.321 225.61 244.354 225.602C244.419 225.584 244.489 225.593 244.548 225.627C244.606 225.661 244.649 225.716 244.667 225.781C246.461 232.34 241.26 238.256 241.203 238.313C241.183 238.338 241.158 238.358 241.13 238.373C241.102 238.388 241.071 238.398 241.039 238.4C241.013 238.4 238.448 238.626 237.019 238.626Z" fill="white"/>
<path d="M245.536 242.255C242.734 237.007 241.588 236.637 241.09 234.951C241.467 234.009 242.007 233.139 242.683 232.381C242.344 232.284 241.614 232.14 241.141 232.052C241.192 231.821 241.249 231.595 241.3 231.374C240.786 231.316 240.265 231.341 239.758 231.446V230.932C239.105 230.79 238.435 230.746 237.769 230.803C237.827 231.047 237.884 231.293 237.939 231.543C237.425 231.641 236.644 231.8 236.268 231.908C236.997 232.734 237.533 233.712 237.836 234.771C236.325 237.367 230.455 254.052 240.005 255.331C249.555 256.611 248.332 247.508 245.536 242.255Z" fill="white"/>
<path opacity="0.4" d="M245.536 242.255C242.734 237.007 241.588 236.637 241.09 234.951C241.467 234.009 242.007 233.139 242.683 232.381C242.344 232.284 241.614 232.14 241.141 232.052C241.192 231.821 241.249 231.595 241.3 231.374C240.786 231.316 240.265 231.341 239.758 231.446V230.932C239.105 230.79 238.435 230.746 237.769 230.803C237.827 231.047 237.884 231.293 237.939 231.543C237.425 231.641 236.644 231.8 236.268 231.908C236.997 232.734 237.533 233.712 237.836 234.771C236.325 237.367 230.455 254.052 240.005 255.331C249.555 256.611 248.332 247.508 245.536 242.255Z" fill="white"/>
<path d="M237.446 234.273C237.386 234.537 237.36 234.809 237.369 235.08C237.369 235.27 237.883 235.398 238.453 235.455C239.024 235.511 241.419 235.604 241.342 235.337C241.265 235.069 241.46 234.704 241.47 234.478C241.481 234.252 240.52 234.242 239.713 234.273C238.906 234.304 237.605 233.985 237.446 234.273Z" fill="white"/>
<path d="M231.889 253.594H232.362C232.454 253.594 232.526 253.543 232.521 253.486L232.3 251.43C232.3 251.369 232.213 251.322 232.115 251.322H231.658C231.565 251.322 231.493 251.369 231.498 251.43L231.719 253.486C231.709 253.553 231.791 253.594 231.889 253.594Z" fill="white"/>
</g>
<defs>
<clipPath id="clip0_1167_2492">
<rect width="414" height="896" rx="40" fill="white"/>
</clipPath>
</defs>
</svg>
