<svg width="414" height="896" viewBox="0 0 414 896" fill="none" xmlns="http://www.w3.org/2000/svg">
<rect width="414" height="896" rx="40" fill="#FCF5F2"/>
<path d="M317.88 92.6305C354.472 112.93 346.27 153.425 337.595 171.134C323.085 195.875 329.709 224.263 329.709 240.915C330.34 296.74 287.912 335.543 266.619 347.966C166.464 402.681 104.95 355.896 62.3645 288.494C19.7786 221.091 78.137 119.591 155.423 92.6305C232.708 65.6695 272.139 67.2555 317.88 92.6305Z" fill="#FE4042"/>
<path d="M325.017 301.373C319.925 318.167 306.416 333.782 300.297 339.489C284.959 351.487 299.602 358.321 308.841 360.239C356.749 364.859 361.54 305.644 354.808 295.457C348.077 285.27 331.382 280.38 325.017 301.373Z" fill="#FE4042"/>
<path d="M107.19 354.343C94.8764 346.596 83.3788 333.351 79.1692 327.696C70.3068 314.104 65.3894 322.463 64.0385 328.342C60.9272 360.169 104.27 378.417 111.685 376.353C119.099 374.289 122.583 364.026 107.19 354.343Z" fill="#FE4042"/>
<path d="M95.1504 95.7757C107.556 101.693 100.319 114.514 95.1504 120.185C92.2695 123.884 62.1148 150.512 55.3728 145.335C48.6309 140.157 49.9793 126.103 57.3954 111.309C64.8116 96.5154 79.6439 88.3789 95.1504 95.7757Z" fill="#FE4042"/>
<path d="M118.437 99.5315C113.636 99.5377 107.66 99.6813 107.655 95.7942C107.65 91.9072 113.618 85.4615 118.419 85.4553C123.221 85.4491 127.117 88.5952 127.122 92.4822C127.127 96.3692 123.239 99.5253 118.437 99.5315Z" fill="#FE4042"/>
<path d="M55.9041 167.003C52.007 169.808 47.3828 172.366 45.1121 169.211C42.8414 166.056 44.1598 161.225 48.0569 158.42C51.954 155.615 56.9541 155.899 59.2248 159.053C61.4955 162.208 59.8012 164.198 55.9041 167.003Z" fill="#FE4042"/>
<path d="M359 210C359 220.493 352.779 229 345.105 229C337.431 229 335 220.493 335 210C335 199.507 337.431 191 345.105 191C352.779 191 359 199.507 359 210Z" fill="#FE4042"/>
<circle cx="341.5" cy="241.5" r="3.5" fill="#FE4042"/>
<circle cx="285" cy="356" r="4" fill="#FE4042"/>
<circle cx="61.5" cy="305.5" r="4.5" fill="#FE4042"/>
</svg>
