<svg width="414" height="896" viewBox="0 0 414 896" fill="none" xmlns="http://www.w3.org/2000/svg">
<rect width="414" height="896" rx="40" fill="#FCF5F2"/>
<path d="M324 119.456C368.354 143.966 367.412 183.131 363.127 209.456C358 240.956 377.466 270.085 377.466 290.19C378.231 357.591 326.803 404.44 300.993 419.439C179.592 485.499 105.031 429.013 53.4115 347.634C1.79226 266.255 72.5298 143.709 166.209 111.157C239.5 85.6901 279.646 94.947 324 119.456Z" fill="#FE4042"/>
<path d="M357.333 376.356C348.511 394.072 330.796 409.364 323.042 414.795C304.057 425.879 318.584 435.335 328.22 438.677C379.239 450.176 396.08 385.942 390.788 373.876C385.496 361.811 368.362 354.21 357.333 376.356Z" fill="#FE4042"/>
<path d="M82.9384 400.752C68.0668 391.397 54.1809 375.4 49.097 368.571C38.3938 352.155 32.455 362.251 30.8235 369.35C27.0659 407.789 79.412 429.827 88.3666 427.335C97.3213 424.842 101.528 412.447 82.9384 400.752Z" fill="#FE4042"/>
<path d="M87.9417 125.352C102.536 132.497 94.0227 147.98 87.9417 154.828C84.5524 159.294 49.0762 191.449 41.1445 185.197C33.2128 178.944 34.7991 161.973 43.524 144.109C52.2489 126.245 69.6987 116.42 87.9417 125.352Z" fill="#FE4042"/>
<path d="M114.522 122.014C108.723 122.021 101.506 122.194 101.5 117.5C101.494 112.806 108.701 105.021 114.5 105.014C120.299 105.006 125.005 108.806 125.011 113.5C125.017 118.194 120.321 122.006 114.522 122.014Z" fill="#FE4042"/>
<path d="M42.2364 209.847C39.2061 214.791 35.2506 219.8 31.2481 217.346C27.2456 214.893 26.4575 208.897 29.4878 203.952C32.5181 199.008 38.2193 196.989 42.2218 199.442C46.2243 201.895 45.2667 204.903 42.2364 209.847Z" fill="#FE4042"/>
<path d="M390 219.5C390 231.926 385.075 242 379 242C372.925 242 371 231.926 371 219.5C371 207.074 372.925 197 379 197C385.075 197 390 207.074 390 219.5Z" fill="#FE4042"/>
<circle cx="380.5" cy="260.5" r="4.5" fill="#FE4042"/>
<circle cx="307.5" cy="347.5" r="4.5" fill="#FE4042"/>
<circle cx="58.5" cy="298.5" r="4.5" fill="#FE4042"/>
</svg>
