<svg width="390" height="844" viewBox="0 0 390 844" fill="none" xmlns="http://www.w3.org/2000/svg">
<rect width="390" height="844" fill="#FCF5F2"/>
<path d="M212.893 269.105C173.756 268.541 121.559 327.686 88.686 287.231C49.5492 239.047 137.504 215.589 157.57 181.068C185.859 132.37 255.523 167.456 285.486 224.306C296.657 245.495 286.621 281.366 260.963 284.27C232.965 287.459 235.318 269.428 212.893 269.105Z" fill="#FF5000"/>
<path opacity="0.9" d="M212.893 269.105C173.756 268.541 121.559 327.686 88.686 287.231C49.5492 239.047 137.504 215.589 157.57 181.068C185.859 132.37 255.523 167.456 285.486 224.306C296.657 245.495 286.621 281.366 260.963 284.27C232.965 287.459 235.318 269.428 212.893 269.105Z" fill="white"/>
<path d="M194.926 383.199C262.817 383.199 317.853 379.986 317.853 376.023C317.853 372.059 262.817 368.846 194.926 368.846C127.036 368.846 72 372.059 72 376.023C72 379.986 127.036 383.199 194.926 383.199Z" fill="#F5F5F5"/>
<path d="M281.641 298.583L280.822 313.51L281.455 313.545L282.274 298.618L281.641 298.583Z" fill="#FF5000"/>
<path d="M282.34 285.92L281.918 293.612L282.551 293.647L282.973 285.955L282.34 285.92Z" fill="#FF5000"/>
<path d="M268.977 341.964H194.659C193.535 341.978 192.42 341.759 191.385 341.322C190.349 340.884 189.415 340.237 188.641 339.422C187.867 338.606 187.27 337.639 186.888 336.582C186.505 335.525 186.345 334.4 186.417 333.278L194.976 177.238C195.136 174.9 196.17 172.707 197.874 171.097C199.578 169.488 201.826 168.579 204.169 168.552H278.493C279.615 168.544 280.725 168.767 281.757 169.207C282.788 169.646 283.718 170.294 284.489 171.109C285.259 171.924 285.853 172.888 286.234 173.943C286.615 174.997 286.775 176.119 286.704 177.238L278.138 333.278C277.981 335.612 276.951 337.801 275.254 339.41C273.556 341.02 271.316 341.931 268.977 341.964Z" fill="#FF5000"/>
<path opacity="0.8" d="M264.482 341.964H194.659C193.535 341.978 192.42 341.759 191.385 341.322C190.349 340.884 189.415 340.237 188.641 339.422C187.867 338.606 187.27 337.64 186.888 336.582C186.505 335.525 186.345 334.4 186.417 333.278L194.976 177.238C195.136 174.9 196.17 172.707 197.874 171.097C199.578 169.488 201.826 168.579 204.169 168.553H273.998C275.12 168.543 276.231 168.765 277.263 169.205C278.295 169.644 279.225 170.292 279.996 171.107C280.766 171.922 281.36 172.887 281.741 173.942C282.122 174.997 282.281 176.119 282.208 177.238L273.649 333.278C273.489 335.612 272.458 337.8 270.76 339.409C269.061 341.018 266.821 341.93 264.482 341.964Z" fill="white"/>
<path d="M229.878 196.841H209.825C209.351 196.845 208.882 196.751 208.446 196.565C208.011 196.379 207.618 196.105 207.293 195.761C206.969 195.416 206.718 195.008 206.558 194.563C206.398 194.117 206.332 193.643 206.363 193.171C206.43 192.186 206.865 191.262 207.581 190.583C208.298 189.904 209.243 189.52 210.23 189.506H230.284C230.757 189.501 231.226 189.595 231.662 189.78C232.097 189.965 232.49 190.238 232.815 190.582C233.14 190.926 233.39 191.334 233.55 191.779C233.711 192.225 233.777 192.698 233.746 193.171C233.679 194.156 233.244 195.08 232.528 195.76C231.811 196.44 230.866 196.826 229.878 196.841Z" fill="white"/>
<path d="M233.746 193.171C233.633 194.948 232.85 196.617 231.557 197.841C230.263 199.066 228.553 199.755 226.772 199.771C225.919 199.78 225.073 199.614 224.288 199.281C223.503 198.948 222.795 198.456 222.209 197.836C221.623 197.216 221.171 196.481 220.883 195.678C220.595 194.876 220.476 194.022 220.534 193.171C220.647 191.393 221.43 189.724 222.724 188.5C224.017 187.276 225.727 186.586 227.508 186.571C228.361 186.561 229.207 186.728 229.992 187.061C230.777 187.394 231.485 187.886 232.071 188.506C232.657 189.125 233.109 189.86 233.397 190.663C233.685 191.466 233.804 192.32 233.746 193.171Z" fill="#FF5000"/>
<path d="M228.591 220.306H208.538C208.064 220.309 207.595 220.215 207.159 220.029C206.724 219.843 206.331 219.57 206.006 219.225C205.681 218.881 205.431 218.473 205.271 218.027C205.111 217.581 205.045 217.107 205.076 216.635C205.143 215.65 205.578 214.726 206.294 214.047C207.011 213.369 207.956 212.984 208.943 212.97H228.997C229.47 212.966 229.939 213.059 230.375 213.244C230.81 213.43 231.203 213.703 231.528 214.047C231.853 214.391 232.103 214.798 232.263 215.244C232.423 215.689 232.49 216.163 232.458 216.635C232.392 217.62 231.957 218.545 231.241 219.225C230.524 219.905 229.579 220.291 228.591 220.306Z" fill="white"/>
<path d="M221.485 221.254C224.171 218.641 224.343 214.462 221.869 211.92C219.396 209.377 215.214 209.434 212.529 212.047C209.843 214.659 209.671 218.838 212.144 221.38C214.618 223.923 218.8 223.866 221.485 221.254Z" fill="#FF5000"/>
<path opacity="0.3" d="M221.485 221.254C224.171 218.641 224.343 214.462 221.869 211.92C219.396 209.377 215.214 209.434 212.529 212.047C209.843 214.659 209.671 218.838 212.144 221.38C214.618 223.923 218.8 223.866 221.485 221.254Z" fill="#FAFAFA"/>
<path d="M205.963 267.235H225.991C226.979 267.219 227.925 266.833 228.641 266.153C229.358 265.473 229.792 264.549 229.859 263.564C229.89 263.091 229.824 262.617 229.663 262.171C229.503 261.725 229.252 261.317 228.926 260.973C228.6 260.629 228.207 260.356 227.771 260.171C227.334 259.986 226.865 259.894 226.391 259.899H206.369C205.382 259.913 204.435 260.297 203.717 260.976C203 261.655 202.564 262.578 202.495 263.564C202.465 264.037 202.532 264.511 202.693 264.956C202.854 265.402 203.105 265.81 203.43 266.154C203.756 266.499 204.148 266.772 204.584 266.958C205.02 267.144 205.49 267.238 205.963 267.235Z" fill="white"/>
<path d="M213.579 268.173C216.264 265.56 216.436 261.381 213.963 258.839C211.49 256.296 207.308 256.353 204.622 258.966C201.937 261.578 201.765 265.757 204.238 268.299C206.711 270.842 210.893 270.785 213.579 268.173Z" fill="#FF5000"/>
<path opacity="0.7" d="M213.579 268.173C216.264 265.56 216.436 261.381 213.963 258.839C211.49 256.296 207.308 256.353 204.622 258.966C201.937 261.578 201.765 265.757 204.238 268.299C206.711 270.842 210.893 270.785 213.579 268.173Z" fill="#FAFAFA"/>
<path d="M224.723 290.699H204.676C204.202 290.702 203.733 290.608 203.297 290.423C202.861 290.237 202.468 289.963 202.143 289.619C201.818 289.274 201.567 288.866 201.406 288.421C201.245 287.975 201.178 287.501 201.208 287.028C201.277 286.043 201.713 285.119 202.43 284.44C203.148 283.761 204.094 283.377 205.082 283.364H225.129C225.603 283.358 226.073 283.451 226.509 283.636C226.945 283.82 227.339 284.093 227.664 284.438C227.99 284.782 228.241 285.19 228.401 285.635C228.562 286.081 228.629 286.555 228.597 287.028C228.53 288.015 228.095 288.94 227.377 289.62C226.659 290.3 225.712 290.685 224.723 290.699Z" fill="white"/>
<path d="M228.598 287.028C228.484 288.806 227.702 290.475 226.408 291.699C225.114 292.923 223.405 293.613 221.624 293.628C220.771 293.638 219.925 293.471 219.139 293.138C218.353 292.805 217.645 292.313 217.058 291.694C216.472 291.074 216.02 290.339 215.731 289.536C215.442 288.734 215.322 287.88 215.379 287.028C215.496 285.252 216.279 283.585 217.572 282.361C218.865 281.137 220.573 280.447 222.353 280.428C223.207 280.418 224.053 280.584 224.839 280.916C225.625 281.249 226.334 281.741 226.921 282.361C227.507 282.981 227.959 283.716 228.248 284.519C228.537 285.322 228.656 286.177 228.598 287.028Z" fill="#FF5000"/>
<path d="M207.25 243.77H227.304C228.291 243.755 229.237 243.369 229.954 242.689C230.67 242.009 231.105 241.085 231.171 240.099C231.203 239.627 231.136 239.152 230.976 238.707C230.815 238.261 230.564 237.853 230.238 237.509C229.913 237.165 229.519 236.892 229.083 236.707C228.647 236.522 228.177 236.429 227.703 236.435H207.656C206.669 236.448 205.723 236.833 205.007 237.512C204.29 238.191 203.856 239.114 203.789 240.099C203.757 240.572 203.824 241.046 203.984 241.491C204.144 241.937 204.394 242.345 204.719 242.69C205.044 243.034 205.437 243.308 205.872 243.494C206.308 243.68 206.777 243.774 207.25 243.77Z" fill="white"/>
<path d="M203.801 240.099C203.744 240.95 203.863 241.804 204.151 242.607C204.439 243.41 204.89 244.145 205.476 244.764C206.062 245.384 206.77 245.876 207.556 246.209C208.341 246.542 209.187 246.709 210.04 246.699C211.821 246.684 213.53 245.994 214.824 244.77C216.118 243.546 216.9 241.877 217.014 240.099C217.072 239.248 216.953 238.394 216.664 237.592C216.376 236.789 215.925 236.054 215.339 235.434C214.753 234.814 214.045 234.322 213.259 233.989C212.474 233.656 211.628 233.49 210.775 233.499C208.994 233.515 207.285 234.204 205.991 235.429C204.697 236.653 203.915 238.322 203.801 240.099Z" fill="#FF5000"/>
<path opacity="0.7" d="M203.801 240.099C203.744 240.95 203.863 241.804 204.151 242.607C204.439 243.41 204.89 244.145 205.476 244.764C206.062 245.384 206.77 245.876 207.556 246.209C208.341 246.542 209.187 246.709 210.04 246.699C211.821 246.684 213.53 245.994 214.824 244.77C216.118 243.546 216.9 241.877 217.014 240.099C217.072 239.248 216.953 238.394 216.664 237.592C216.376 236.789 215.925 236.054 215.339 235.434C214.753 234.814 214.045 234.322 213.259 233.989C212.474 233.656 211.628 233.49 210.775 233.499C208.994 233.515 207.285 234.204 205.991 235.429C204.697 236.653 203.915 238.322 203.801 240.099Z" fill="#FAFAFA"/>
<path d="M273.802 192.074H244.08C243.891 192.075 243.704 192.036 243.53 191.961C243.356 191.886 243.2 191.776 243.07 191.638C242.941 191.501 242.841 191.338 242.777 191.159C242.713 190.981 242.686 190.792 242.698 190.603C242.725 190.21 242.899 189.84 243.186 189.569C243.472 189.298 243.851 189.144 244.245 189.139H273.967C274.156 189.137 274.343 189.175 274.517 189.249C274.691 189.324 274.847 189.433 274.977 189.57C275.106 189.708 275.206 189.87 275.271 190.048C275.335 190.226 275.361 190.415 275.349 190.603C275.324 190.998 275.15 191.369 274.864 191.641C274.577 191.914 274.198 192.069 273.802 192.074Z" fill="white"/>
<path d="M263.899 197.209H243.801C243.612 197.211 243.424 197.173 243.249 197.098C243.075 197.024 242.917 196.914 242.787 196.776C242.657 196.638 242.557 196.475 242.492 196.296C242.428 196.118 242.401 195.928 242.413 195.738C242.44 195.345 242.614 194.976 242.901 194.704C243.187 194.433 243.565 194.279 243.96 194.274H264.064C264.253 194.273 264.441 194.31 264.615 194.385C264.789 194.459 264.946 194.568 265.076 194.705C265.206 194.842 265.307 195.005 265.371 195.183C265.436 195.36 265.464 195.55 265.453 195.738C265.426 196.134 265.251 196.505 264.963 196.777C264.675 197.05 264.296 197.204 263.899 197.209Z" fill="white"/>
<path d="M264.9 285.932H238.906C238.717 285.932 238.53 285.893 238.356 285.819C238.182 285.744 238.026 285.634 237.896 285.496C237.767 285.358 237.667 285.195 237.603 285.017C237.539 284.839 237.512 284.649 237.524 284.461C237.55 284.066 237.724 283.696 238.01 283.425C238.297 283.153 238.676 283 239.071 282.996H265.034C265.223 282.995 265.41 283.033 265.584 283.107C265.758 283.181 265.915 283.29 266.045 283.427C266.176 283.565 266.276 283.727 266.341 283.905C266.406 284.083 266.433 284.272 266.422 284.461C266.396 284.851 266.225 285.217 265.944 285.489C265.663 285.761 265.291 285.918 264.9 285.932Z" fill="white"/>
<path d="M251.485 291.06H238.672C238.483 291.062 238.296 291.024 238.122 290.95C237.947 290.876 237.791 290.767 237.66 290.629C237.53 290.492 237.43 290.329 237.365 290.152C237.3 289.974 237.272 289.785 237.284 289.596C237.311 289.202 237.485 288.833 237.771 288.562C238.058 288.29 238.436 288.137 238.831 288.131H251.663C251.852 288.13 252.039 288.168 252.213 288.242C252.388 288.316 252.544 288.425 252.675 288.563C252.805 288.7 252.905 288.862 252.97 289.04C253.035 289.218 253.063 289.407 253.051 289.596C253.024 289.993 252.847 290.365 252.557 290.637C252.266 290.908 251.883 291.06 251.485 291.06Z" fill="white"/>
<path d="M272.394 217.738H242.672C242.278 217.744 241.9 217.897 241.613 218.169C241.327 218.44 241.153 218.809 241.126 219.203C241.114 219.392 241.142 219.581 241.207 219.759C241.271 219.936 241.372 220.099 241.502 220.236C241.632 220.373 241.789 220.483 241.963 220.557C242.137 220.631 242.325 220.669 242.514 220.667H272.236C272.63 220.662 273.009 220.508 273.295 220.237C273.582 219.966 273.756 219.597 273.783 219.203C273.794 219.014 273.767 218.825 273.702 218.647C273.637 218.469 273.536 218.307 273.406 218.169C273.276 218.032 273.119 217.923 272.945 217.849C272.771 217.775 272.584 217.737 272.394 217.738Z" fill="white"/>
<path d="M263.056 212.603H242.958C242.563 212.608 242.185 212.762 241.899 213.033C241.612 213.304 241.438 213.673 241.411 214.067C241.399 214.256 241.426 214.445 241.49 214.623C241.554 214.801 241.654 214.964 241.783 215.102C241.913 215.24 242.069 215.35 242.243 215.425C242.417 215.5 242.604 215.538 242.793 215.538H262.897C263.292 215.531 263.671 215.376 263.957 215.104C264.244 214.831 264.417 214.461 264.444 214.067C264.457 213.878 264.43 213.689 264.365 213.51C264.301 213.332 264.2 213.169 264.07 213.032C263.939 212.894 263.782 212.785 263.608 212.711C263.433 212.637 263.245 212.6 263.056 212.603Z" fill="white"/>
<path d="M256.753 239.003H241.537C241.348 239.003 241.161 238.965 240.987 238.89C240.813 238.815 240.657 238.705 240.527 238.567C240.398 238.429 240.298 238.266 240.234 238.088C240.17 237.91 240.143 237.721 240.155 237.532C240.181 237.137 240.354 236.767 240.641 236.496C240.928 236.224 241.307 236.071 241.702 236.067H256.918C257.109 236.063 257.298 236.099 257.475 236.172C257.651 236.245 257.81 236.354 257.943 236.491C258.075 236.629 258.177 236.792 258.243 236.971C258.309 237.15 258.337 237.341 258.326 237.532C258.298 237.93 258.121 238.304 257.829 238.577C257.537 238.85 257.153 239.002 256.753 239.003Z" fill="white"/>
<path d="M271.228 239.003H262.251C262.061 239.004 261.873 238.966 261.698 238.892C261.524 238.817 261.367 238.707 261.236 238.569C261.106 238.431 261.006 238.268 260.941 238.09C260.877 237.911 260.85 237.721 260.862 237.532C260.889 237.138 261.063 236.769 261.35 236.498C261.636 236.226 262.015 236.073 262.409 236.067H271.393C271.582 236.066 271.769 236.104 271.943 236.178C272.117 236.252 272.273 236.361 272.403 236.499C272.532 236.636 272.632 236.799 272.696 236.977C272.761 237.154 272.787 237.343 272.775 237.532C272.748 237.926 272.574 238.296 272.288 238.568C272.001 238.841 271.623 238.996 271.228 239.003Z" fill="white"/>
<path d="M261.324 244.132H241.207C241.018 244.133 240.831 244.095 240.657 244.021C240.483 243.947 240.326 243.838 240.196 243.701C240.065 243.563 239.965 243.401 239.9 243.223C239.835 243.045 239.808 242.856 239.819 242.667C239.846 242.273 240.02 241.904 240.307 241.633C240.593 241.362 240.971 241.208 241.366 241.203H261.495C261.685 241.201 261.872 241.239 262.046 241.313C262.22 241.387 262.377 241.497 262.507 241.634C262.637 241.771 262.738 241.934 262.803 242.111C262.867 242.289 262.895 242.478 262.884 242.667C262.857 243.063 262.681 243.434 262.391 243.706C262.102 243.977 261.721 244.129 261.324 244.132Z" fill="white"/>
<path d="M236.135 311.646H201.899C201.633 311.653 201.368 311.603 201.123 311.5C200.877 311.398 200.655 311.245 200.472 311.051C200.289 310.857 200.149 310.627 200.061 310.376C199.973 310.125 199.938 309.858 199.959 309.592C199.997 309.04 200.241 308.523 200.643 308.143C201.045 307.762 201.574 307.546 202.128 307.538H236.364C236.63 307.532 236.894 307.582 237.14 307.684C237.386 307.787 237.608 307.94 237.79 308.134C237.973 308.327 238.114 308.557 238.202 308.808C238.29 309.06 238.325 309.327 238.304 309.592C238.267 310.145 238.023 310.663 237.621 311.044C237.22 311.424 236.689 311.64 236.135 311.646Z" fill="white"/>
<path d="M266.656 311.646H245.645C245.379 311.653 245.114 311.603 244.869 311.5C244.623 311.398 244.401 311.245 244.218 311.051C244.036 310.857 243.895 310.627 243.807 310.376C243.719 310.125 243.684 309.858 243.705 309.592C243.743 309.04 243.987 308.523 244.389 308.143C244.791 307.762 245.32 307.546 245.874 307.538H266.884C267.151 307.532 267.415 307.582 267.661 307.684C267.907 307.787 268.128 307.94 268.311 308.134C268.494 308.327 268.634 308.557 268.723 308.808C268.811 309.06 268.846 309.327 268.824 309.592C268.786 310.144 268.542 310.662 268.141 311.042C267.739 311.422 267.209 311.638 266.656 311.646Z" fill="white"/>
<path d="M227.576 318.811H201.518C201.252 318.817 200.988 318.767 200.742 318.664C200.496 318.562 200.274 318.409 200.091 318.215C199.909 318.021 199.768 317.791 199.68 317.54C199.592 317.289 199.557 317.022 199.578 316.756C199.615 316.204 199.859 315.686 200.261 315.305C200.662 314.924 201.193 314.709 201.747 314.702H227.798C228.064 314.696 228.329 314.746 228.574 314.848C228.82 314.951 229.042 315.104 229.225 315.298C229.408 315.491 229.548 315.721 229.636 315.973C229.725 316.224 229.759 316.491 229.738 316.756C229.701 317.308 229.459 317.825 229.058 318.206C228.657 318.586 228.128 318.802 227.576 318.811Z" fill="white"/>
<path d="M255.872 326.013H201.126C200.86 326.019 200.595 325.969 200.349 325.866C200.103 325.764 199.882 325.611 199.699 325.417C199.516 325.223 199.376 324.994 199.287 324.742C199.199 324.491 199.164 324.224 199.186 323.958C199.222 323.407 199.465 322.89 199.866 322.509C200.266 322.129 200.795 321.913 201.348 321.904H256.094C256.36 321.898 256.625 321.948 256.87 322.051C257.116 322.153 257.338 322.306 257.521 322.5C257.704 322.693 257.844 322.923 257.932 323.175C258.02 323.426 258.055 323.693 258.034 323.958C257.997 324.51 257.754 325.027 257.354 325.408C256.953 325.788 256.424 326.004 255.872 326.013Z" fill="white"/>
<path d="M248.898 264.667H240.098C239.704 264.672 239.326 264.826 239.039 265.097C238.752 265.369 238.578 265.738 238.551 266.132C238.54 266.32 238.568 266.51 238.632 266.687C238.697 266.865 238.798 267.028 238.928 267.165C239.058 267.302 239.215 267.411 239.389 267.485C239.563 267.56 239.751 267.597 239.94 267.596H248.74C249.134 267.591 249.512 267.437 249.799 267.166C250.086 266.894 250.26 266.525 250.287 266.132C250.298 265.943 250.27 265.754 250.206 265.576C250.141 265.398 250.04 265.235 249.91 265.098C249.78 264.961 249.623 264.852 249.449 264.778C249.275 264.703 249.087 264.666 248.898 264.667Z" fill="white"/>
<path d="M264.596 264.667H254.395C254.001 264.673 253.622 264.826 253.336 265.097C253.049 265.369 252.875 265.738 252.848 266.132C252.837 266.32 252.864 266.51 252.929 266.687C252.994 266.865 253.095 267.028 253.225 267.165C253.355 267.302 253.512 267.411 253.686 267.486C253.86 267.56 254.047 267.597 254.237 267.596H264.438C264.832 267.591 265.21 267.437 265.497 267.166C265.784 266.894 265.958 266.525 265.985 266.132C265.997 265.943 265.97 265.753 265.905 265.575C265.841 265.397 265.741 265.234 265.61 265.096C265.48 264.959 265.322 264.85 265.148 264.776C264.973 264.702 264.786 264.665 264.596 264.667Z" fill="white"/>
<path d="M260.482 259.531H240.384C239.989 259.535 239.61 259.688 239.323 259.96C239.036 260.232 238.862 260.602 238.837 260.996C238.825 261.185 238.851 261.374 238.915 261.552C238.979 261.73 239.079 261.893 239.209 262.031C239.338 262.169 239.495 262.279 239.669 262.354C239.842 262.429 240.03 262.467 240.219 262.467H260.323C260.718 262.46 261.096 262.305 261.383 262.032C261.669 261.76 261.843 261.39 261.87 260.996C261.881 260.807 261.854 260.618 261.789 260.44C261.724 260.262 261.624 260.1 261.493 259.962C261.363 259.825 261.206 259.716 261.032 259.642C260.858 259.568 260.671 259.53 260.482 259.531Z" fill="white"/>
<path d="M149.276 221.891C147.203 223.609 145.06 225.479 143.088 227.356C142.099 228.3 141.136 229.258 140.242 230.247C139.375 231.176 138.58 232.17 137.864 233.22L137.744 233.398L137.687 233.499C137.635 233.579 137.59 233.664 137.554 233.753C137.465 233.949 137.382 234.197 137.294 234.457C137.125 235.033 136.993 235.62 136.901 236.213C136.703 237.536 136.576 238.87 136.52 240.207C136.387 242.946 136.387 245.805 136.438 248.601L133.471 249.045C132.727 246.177 132.219 243.253 131.949 240.302C131.807 238.77 131.771 237.23 131.841 235.693C131.892 234.863 131.998 234.037 132.158 233.22C132.247 232.76 132.368 232.307 132.52 231.864C132.615 231.616 132.684 231.388 132.811 231.128L132.989 230.748C133.052 230.634 133.097 230.564 133.147 230.462C133.923 229.06 134.83 227.733 135.854 226.5C136.804 225.316 137.813 224.182 138.879 223.102C140.965 220.965 143.193 218.972 145.548 217.136L149.276 221.891Z" fill="#B55B52"/>
<path d="M148.167 214.29C144.921 216.192 140.014 221.137 140.014 221.137L146.03 228.358C146.03 228.358 154.57 223.235 155.61 220.414C157.347 215.665 151.235 212.47 148.167 214.29Z" fill="#FF5000"/>
<path d="M136.305 247.53L137.04 251.822L133.053 251.245C133.053 251.245 132.235 248.329 134.321 247.327L136.305 247.53Z" fill="#B55B52"/>
<path d="M135.571 254.434L131.982 253.318L133.054 251.245L137.042 251.822L135.571 254.434Z" fill="#B55B52"/>
<path d="M172.305 199.124C172.305 199.562 172.546 199.917 172.837 199.923C173.129 199.929 173.351 199.574 173.345 199.143C173.338 198.712 173.104 198.351 172.812 198.344C172.52 198.338 172.298 198.693 172.305 199.124Z" fill="#263238"/>
<path d="M172.684 198.351L173.742 198.065C173.742 198.065 173.21 198.89 172.684 198.351Z" fill="#263238"/>
<path d="M172.678 199.555C173.086 200.56 173.627 201.504 174.288 202.364C174.062 202.518 173.805 202.622 173.534 202.668C173.264 202.714 172.987 202.701 172.722 202.63L172.678 199.555Z" fill="#A02724"/>
<path d="M172.855 196.227C172.814 196.239 172.77 196.239 172.729 196.227C172.416 196.113 172.082 196.073 171.751 196.112C171.421 196.15 171.104 196.266 170.827 196.449C170.8 196.47 170.769 196.485 170.736 196.494C170.703 196.503 170.669 196.505 170.635 196.5C170.601 196.495 170.569 196.484 170.54 196.466C170.511 196.449 170.485 196.425 170.465 196.398C170.425 196.343 170.407 196.274 170.417 196.207C170.426 196.139 170.462 196.078 170.516 196.036C170.859 195.808 171.251 195.662 171.66 195.61C172.069 195.559 172.485 195.603 172.874 195.738C172.939 195.76 172.992 195.806 173.023 195.867C173.053 195.927 173.059 195.997 173.039 196.062C173.024 196.102 172.999 196.138 172.967 196.166C172.935 196.195 172.897 196.216 172.855 196.227Z" fill="#263238"/>
<path d="M159.383 203.777C159.675 207.055 158.578 212.425 156.105 214.251C156.105 214.251 157.969 217.7 163.942 218.505C170.516 219.386 167.429 215.69 167.429 215.69C163.935 214.359 164.303 211.728 165.191 209.35L159.383 203.777Z" fill="#B55B52"/>
<path d="M171.055 218.239C174.18 219.089 177.464 219.906 180.685 220.636C182.308 220.984 183.931 221.27 185.554 221.618C187.177 221.967 188.807 222.189 190.423 222.398L191.057 222.48L191.476 222.525C191.767 222.525 192.11 222.525 192.427 222.525C193.164 222.474 193.896 222.374 194.62 222.227C196.19 221.903 197.742 221.494 199.268 221.003C202.393 220.027 205.563 218.848 208.664 217.63L210.071 220.274C207.149 222.187 204.081 223.868 200.897 225.302C199.25 226.046 197.555 226.682 195.825 227.204C194.9 227.478 193.957 227.69 193.004 227.838C192.478 227.909 191.949 227.954 191.419 227.971H190.556L189.922 227.92C186.431 227.678 182.958 227.217 179.525 226.538C176.102 225.9 172.716 225.079 169.381 224.078L171.055 218.239Z" fill="#B55B52"/>
<path d="M207.84 218.702L208.759 215.589L212.138 216.857C212.138 216.857 211.365 221.536 208.467 220.242L207.84 218.702Z" fill="#B55B52"/>
<path d="M210.719 213.522L214.168 213.909L212.139 216.857L208.76 215.589L210.719 213.522Z" fill="#B55B52"/>
<path d="M149.684 370.082L155.117 370.482L156.734 358.004L151.3 357.605L149.684 370.082Z" fill="#B55B52"/>
<path d="M109.613 345.895L113.303 349.991L123.612 342.865L119.922 338.775L109.613 345.895Z" fill="#B55B52"/>
<path d="M116.036 352.311C115.971 352.32 115.905 352.32 115.839 352.311C115.205 352.096 114.73 350.872 114.521 350.162C114.514 350.138 114.514 350.112 114.522 350.088C114.529 350.064 114.544 350.043 114.564 350.027C114.583 350.012 114.607 350.002 114.632 350C114.657 349.998 114.683 350.004 114.704 350.016C114.901 350.118 116.651 351.069 116.708 351.766C116.714 351.842 116.7 351.918 116.668 351.987C116.636 352.056 116.586 352.115 116.524 352.159C116.383 352.264 116.211 352.317 116.036 352.311ZM114.863 350.365C115.18 351.303 115.567 351.918 115.922 352.032C115.999 352.054 116.08 352.056 116.158 352.037C116.236 352.018 116.307 351.979 116.366 351.925C116.394 351.906 116.417 351.881 116.432 351.851C116.448 351.821 116.455 351.787 116.454 351.753C116.423 351.386 115.554 350.764 114.863 350.365Z" fill="#FF5000"/>
<path d="M116.246 350.618C115.667 350.607 115.097 350.466 114.579 350.206C114.56 350.194 114.544 350.177 114.533 350.157C114.522 350.137 114.516 350.115 114.516 350.092C114.515 350.069 114.521 350.047 114.534 350.027C114.546 350.008 114.564 349.993 114.585 349.984C114.636 349.953 115.98 349.211 116.722 349.464C116.819 349.495 116.908 349.547 116.982 349.616C117.057 349.685 117.115 349.77 117.153 349.864C117.204 349.954 117.222 350.059 117.203 350.161C117.185 350.263 117.131 350.355 117.052 350.422C116.813 350.576 116.529 350.645 116.246 350.618ZM114.928 350.092C115.562 350.352 116.602 350.472 116.887 350.231C116.931 350.187 116.982 350.124 116.887 349.965C116.863 349.905 116.827 349.85 116.779 349.805C116.732 349.76 116.676 349.726 116.614 349.705C116.026 349.659 115.437 349.794 114.928 350.092Z" fill="#FF5000"/>
<path d="M114.959 349.388L111.915 343.987C111.865 343.893 111.783 343.821 111.684 343.784C111.585 343.747 111.476 343.747 111.377 343.784L106.882 345.508C106.767 345.559 106.664 345.634 106.58 345.728C106.497 345.822 106.434 345.933 106.397 346.053C106.36 346.173 106.349 346.3 106.364 346.424C106.38 346.549 106.422 346.669 106.488 346.776C107.585 348.64 108.2 349.483 109.538 351.848C110.362 353.306 111.63 356.495 112.607 358.594C113.583 360.692 115.65 359.862 115.428 358.911C114.682 356.122 114.578 353.2 115.124 350.365C115.185 350.03 115.126 349.684 114.959 349.388Z" fill="#263238"/>
<path d="M157.481 370.659C156.906 370.647 156.333 370.584 155.769 370.469C155.743 370.463 155.72 370.449 155.702 370.43C155.684 370.411 155.672 370.387 155.667 370.361C155.663 370.334 155.668 370.307 155.68 370.283C155.693 370.259 155.713 370.24 155.737 370.228C155.984 370.101 158.191 368.96 158.844 369.359C158.905 369.393 158.957 369.443 158.994 369.503C159.03 369.563 159.051 369.631 159.053 369.702C159.065 369.82 159.048 369.939 159.004 370.05C158.96 370.16 158.89 370.258 158.799 370.336C158.408 370.588 157.944 370.702 157.481 370.659ZM156.213 370.285C157.411 370.481 158.305 370.431 158.647 370.133C158.705 370.082 158.749 370.018 158.777 369.946C158.804 369.874 158.814 369.797 158.806 369.721C158.806 369.693 158.8 369.665 158.786 369.641C158.773 369.616 158.754 369.596 158.73 369.581C158.356 369.385 157.107 369.854 156.2 370.285H156.213Z" fill="#FF5000"/>
<path d="M155.794 370.469C155.77 370.477 155.743 370.477 155.718 370.469C155.7 370.457 155.685 370.439 155.676 370.419C155.667 370.399 155.664 370.376 155.667 370.355C155.667 370.253 155.927 368.034 157.145 368.034H157.252C157.601 368.066 157.703 368.243 157.728 368.389C157.829 369.023 156.511 370.183 155.826 370.475C155.815 370.475 155.804 370.473 155.794 370.469ZM157.151 368.262C156.365 368.262 156.054 369.53 155.959 370.107C156.638 369.702 157.531 368.782 157.474 368.408C157.474 368.408 157.474 368.294 157.227 368.269L157.151 368.262Z" fill="#FF5000"/>
<path d="M155.459 369.708H149.347C149.241 369.708 149.138 369.746 149.057 369.814C148.976 369.882 148.922 369.977 148.904 370.082L148.086 374.913C148.069 375.034 148.079 375.157 148.115 375.274C148.15 375.391 148.21 375.499 148.29 375.591C148.371 375.683 148.47 375.757 148.581 375.807C148.692 375.857 148.813 375.883 148.935 375.883C151.066 375.845 152.105 375.718 154.781 375.718C156.429 375.718 159.853 375.89 162.129 375.89C164.405 375.89 164.589 373.639 163.644 373.43C159.409 372.517 157.761 371.249 156.359 370.044C156.108 369.829 155.79 369.71 155.459 369.708Z" fill="#263238"/>
<path opacity="0.2" d="M156.733 358.011L155.833 364.947L150.463 364.046L151.293 357.605L156.733 358.011Z" fill="black"/>
<path opacity="0.2" d="M119.917 338.775L123.607 342.871L119.346 345.813L115.523 341.812L119.917 338.775Z" fill="black"/>
<path d="M146.944 246.997L168.931 249.952C177.458 219.082 174.941 218.252 174.941 218.252C173.293 217.48 171.6 216.811 169.869 216.248L169.571 216.153C168.151 215.722 167.853 215.665 165.958 215.234C162.705 214.657 159.687 214.213 155.959 213.896C155.725 213.896 155.484 213.852 155.249 213.839C154.577 213.795 153.912 213.763 153.265 213.738C152.834 213.738 152.396 213.738 151.997 213.738H149.854C149.43 213.747 149.012 213.845 148.628 214.025C148.244 214.205 147.902 214.463 147.623 214.783C147.345 215.103 147.136 215.478 147.01 215.883C146.884 216.288 146.845 216.715 146.893 217.136C148.776 233.347 148.18 238.692 146.944 246.997Z" fill="#FF5000"/>
<path opacity="0.2" d="M169.564 225.232C169.717 226.665 173.026 229.283 174.174 228.58C174.503 226.861 174.744 225.41 174.915 224.243C173.254 224.116 170.002 222.284 169.564 225.232Z" fill="black"/>
<path d="M165.996 218.004C165.837 212.932 178.13 218.518 180.952 219.78L177.807 228.282C177.807 228.282 173.692 228.142 171.074 226.627C169.585 225.717 168.342 224.455 167.456 222.951C166.571 221.447 166.069 219.748 165.996 218.004Z" fill="#FF5000"/>
<path d="M157.519 197.717C157.925 203.08 157.982 205.356 160.759 208.146C164.924 212.337 171.486 210.853 172.703 205.521C173.8 200.722 172.95 192.759 167.631 190.552C166.489 190.041 165.234 189.836 163.988 189.958C162.743 190.08 161.551 190.525 160.53 191.248C159.509 191.971 158.694 192.948 158.166 194.083C157.638 195.217 157.415 196.47 157.519 197.717Z" fill="#B55B52"/>
<path d="M157.988 192.055C152.599 190.705 152.428 195.225 152.542 197.609C152.656 199.993 148.694 201.134 148.694 204.12C148.694 208.013 151.629 210.333 144.49 211.512C138.448 212.508 136.584 220.059 145.524 224.478C155.421 229.359 170.351 222.487 168.538 215.95C165.761 205.863 170.751 205.895 170.199 200.253C169.787 196.157 173.667 195.954 172.272 192.537C170.434 188.067 157.519 184.143 157.988 192.055Z" fill="#263238"/>
<path d="M151.751 199.619C151.009 195.713 151.415 193.126 152.955 191.916C154.94 190.35 157.989 191.706 158.116 191.763L157.856 192.34C157.856 192.34 155.022 191.072 153.342 192.41C152.004 193.469 151.681 195.853 152.372 199.498L151.751 199.619Z" fill="#263238"/>
<path d="M145.658 210.397C144.266 210.353 142.892 210.074 141.594 209.572L141.828 208.983C141.873 208.983 146.146 210.682 148.124 209.04C149.088 208.241 149.36 206.745 148.942 204.602L149.576 204.481C150.045 206.884 149.696 208.59 148.542 209.553C147.708 210.161 146.688 210.46 145.658 210.397Z" fill="#263238"/>
<path d="M168.735 199.878C168.684 200.879 168.943 201.871 169.477 202.719C170.212 203.917 171.207 203.695 171.531 202.681C171.854 201.666 171.797 200.037 170.802 199.168C169.806 198.3 168.836 198.769 168.735 199.878Z" fill="#B55B52"/>
<path d="M163.143 249.172C163.143 249.172 154.597 285.31 150.603 306.036C146.393 327.928 121.439 345.787 121.439 345.787L115.961 340.151C115.961 340.151 132.027 326.089 136.154 305.649C144.529 264.16 138.861 255.804 146.932 246.998L163.143 249.172Z" fill="#263238"/>
<path d="M121.907 346.599L115.066 339.561L116.987 337.495L124.931 344.488L121.907 346.599Z" fill="#FF5000"/>
<path opacity="0.2" d="M158.604 257.021C151.96 262.79 152.676 283.262 153.374 292.487C156.157 279.37 159.511 264.762 161.476 256.311C160.772 255.791 159.821 255.962 158.604 257.021Z" fill="black"/>
<path d="M168.627 249.971C168.627 249.971 172.469 292.848 170.371 309.206C168.19 326.216 157.057 363.229 157.057 363.229L149.277 362.221C149.277 362.221 155.617 325.538 156.778 308.698C158.008 290.312 152.536 247.834 152.536 247.834L168.627 249.971Z" fill="#263238"/>
<path d="M158.755 363.679L147.584 362.233L147.755 358.937L159.877 360.109L158.755 363.679Z" fill="#FF5000"/>
<path d="M146.741 245.672L145.536 247.492C145.447 247.638 145.612 247.815 145.866 247.847L168.931 250.972C169.127 250.972 169.305 250.922 169.33 250.801L169.736 248.899C169.767 248.766 169.603 248.627 169.387 248.595L147.102 245.609C147.041 245.588 146.976 245.583 146.913 245.594C146.85 245.605 146.791 245.632 146.741 245.672Z" fill="#FF5000"/>
<path opacity="0.3" d="M146.741 245.672L145.536 247.492C145.447 247.638 145.612 247.815 145.866 247.847L168.931 250.972C169.127 250.972 169.305 250.922 169.33 250.801L169.736 248.899C169.767 248.766 169.603 248.627 169.387 248.595L147.102 245.609C147.041 245.588 146.976 245.583 146.913 245.594C146.85 245.605 146.791 245.632 146.741 245.672Z" fill="black"/>
<path d="M149.48 248.544L148.884 248.468C148.763 248.468 148.681 248.379 148.7 248.303L149.245 245.799C149.245 245.729 149.372 245.685 149.492 245.697L150.088 245.78C150.209 245.78 150.291 245.869 150.279 245.938L149.727 248.443C149.714 248.519 149.6 248.563 149.48 248.544Z" fill="#263238"/>
<path d="M164.557 250.605L163.961 250.522C163.841 250.522 163.758 250.433 163.771 250.364L164.322 247.859C164.322 247.79 164.449 247.739 164.57 247.758L165.166 247.834C165.286 247.834 165.369 247.923 165.349 247.999L164.804 250.503C164.785 250.573 164.677 250.624 164.557 250.605Z" fill="#263238"/>
</svg>
