<svg width="414" height="896" viewBox="0 0 414 896" fill="none" xmlns="http://www.w3.org/2000/svg">
<g clip-path="url(#clip0_943_2263)">
<rect width="414" height="896" rx="40" fill="#FCF5F2"/>
<path d="M373.8 239.023C362.986 125.747 300.904 101.74 266.089 101.087C220.026 100.223 189.409 86.3675 171.993 77.1895C98.0901 38.2454 71.5064 94.8165 54.5454 124.508C10.0695 222.243 18.5 329.5 140.5 375C260.318 419.686 386.909 376.353 373.8 239.023Z" fill="#FF8730"/>
<path d="M260.261 75.1609C261.246 91.5689 240.787 88.797 232.166 86.2605C226.819 85.131 186.002 74.2081 187.446 64.2539C188.89 54.2997 203.284 55.6879 222.37 55.8087C241.457 55.9295 259.03 54.6509 260.261 75.1609Z" fill="#FF8730"/>
<path d="M280.455 86.6341C276.557 82.3399 271.585 77.106 275.062 73.951C278.538 70.7961 289.146 70.915 293.043 75.2091C296.94 79.5033 297.282 85.5419 293.805 88.6969C290.329 91.8518 284.352 90.9282 280.455 86.6341Z" fill="#FF8730"/>
<path d="M362.634 164.853C371.076 180.231 374.487 185.193 379.377 199.863C384.479 215.164 391.794 210.276 393.264 206.05C412.154 168.246 366.865 146.331 361.591 144.593C356.317 142.855 353.984 149.096 362.634 164.853Z" fill="#FF8730"/>
<circle cx="388.748" cy="224.265" r="4.5" transform="rotate(97.1306 388.748 224.265)" fill="#FF8730"/>
<circle cx="172.447" cy="60.1459" r="4.5" transform="rotate(97.1306 172.447 60.1459)" fill="#FF8730"/>
<path d="M94.4604 377.243C99.5517 380.02 104.754 383.717 102.506 387.838C100.259 391.96 94.3097 393.05 89.2185 390.274C84.1273 387.498 81.8219 381.906 84.0694 377.784C86.3168 373.663 89.3692 374.467 94.4604 377.243Z" fill="#FF8730"/>
<path d="M350.215 355.291C338.089 369.65 334.635 376.603 320.189 379.876C305.743 383.149 312.848 394.178 317.219 394.491C357.54 402.686 368.897 354.583 369.438 349.188C369.979 343.792 361.791 341.582 350.215 355.291Z" fill="#FF8730"/>
<path d="M354 162.5C349.6 152.9 334.5 131.5 324.5 124H343L354.5 136L354 162.5Z" fill="#FCF5F2"/>
<path d="M327 363C338 354.5 348.667 342.167 351.5 338L349 356L327 363Z" fill="#FCF5F2"/>
<path d="M112.5 362.5C96 354.5 70.3333 330.833 60 320L63.5 346L74 357.5L112.5 362.5Z" fill="#FCF5F2"/>
<path d="M65.6846 352.417C52.663 340.201 42.4057 321.373 38.9048 313.487C32.0681 294.8 23.2466 304.056 19.6904 311.019C5.71692 349.628 54.4033 381.499 64.3717 380.551C74.34 379.603 81.9617 367.688 65.6846 352.417Z" fill="#FF8730"/>
</g>
<defs>
<clipPath id="clip0_943_2263">
<rect width="414" height="896" rx="40" fill="white"/>
</clipPath>
</defs>
</svg>
