<svg width="414" height="896" viewBox="0 0 414 896" fill="none" xmlns="http://www.w3.org/2000/svg">
<g clip-path="url(#clip0_916_1693)">
<rect width="414" height="896" rx="40" fill="#FCF5F2"/>
<path d="M352.127 63.701C396.481 88.2103 386.54 137.101 376.025 158.483C358.436 188.354 366.466 222.629 366.466 242.734C367.231 310.135 315.803 356.983 289.993 371.983C168.592 438.043 94.0308 381.557 42.4115 300.178C-9.20773 218.799 61.5298 96.2525 155.209 63.701C248.888 31.1495 296.684 33.0643 352.127 63.701Z" fill="#FE4042"/>
<path d="M360.011 315.78C353.861 336.063 337.545 354.92 330.156 361.814C311.632 376.303 329.317 384.557 340.475 386.873C398.334 392.453 404.12 320.939 395.99 308.635C387.861 296.332 367.698 290.427 360.011 315.78Z" fill="#FE4042"/>
<path d="M96.9384 379.752C82.0668 370.397 68.1809 354.4 63.097 347.571C52.3938 331.155 46.455 341.251 44.8235 348.35C41.0659 386.789 93.412 408.827 102.367 406.335C111.321 403.842 115.528 391.447 96.9384 379.752Z" fill="#FE4042"/>
<path d="M81.9417 67.3518C96.5361 74.4975 88.0227 89.9797 81.9417 96.8276C78.5524 101.294 43.0762 133.449 35.1445 127.197C27.2128 120.944 28.7991 103.973 37.524 86.1091C46.2489 68.245 63.6987 58.4198 81.9417 67.3518Z" fill="#FE4042"/>
<path d="M110.522 72.0135C104.723 72.021 97.5061 72.1944 97.5 67.5C97.4939 62.8056 104.701 55.021 110.5 55.0135C116.299 55.0061 121.005 58.8056 121.011 63.5C121.017 68.1944 116.321 72.006 110.522 72.0135Z" fill="#FE4042"/>
<path d="M35 153.5C30.2934 156.888 24.7088 159.977 21.9664 156.167C19.224 152.356 20.8163 146.522 25.5229 143.134C30.2295 139.746 36.2681 140.089 39.0105 143.899C41.7528 147.709 39.7066 150.112 35 153.5Z" fill="#FE4042"/>
<path d="M401 205.5C401 217.926 393.613 228 384.5 228C375.387 228 372.5 217.926 372.5 205.5C372.5 193.074 375.387 183 384.5 183C393.613 183 401 193.074 401 205.5Z" fill="#FE4042"/>
<circle cx="380.5" cy="243.5" r="4.5" fill="#FE4042"/>
<circle cx="307.5" cy="347.5" r="4.5" fill="#FE4042"/>
<circle cx="58.5" cy="298.5" r="4.5" fill="#FE4042"/>
</g>
<defs>
<clipPath id="clip0_916_1693">
<rect width="414" height="896" rx="40" fill="white"/>
</clipPath>
</defs>
</svg>
