<svg xmlns="http://www.w3.org/2000/svg" viewBox="0 0 303.31 667.66"><defs><style>.cls-1{fill:#fcf5f2;}.cls-2{fill:#e94448;}</style></defs><g id="Livello_2" data-name="Livello 2"><g id="Livello_1-2" data-name="Livello 1"><rect class="cls-1" width="303.31" height="667.66"/><path class="cls-2" d="M27.91,347.23a13.69,13.69,0,0,1,6.69-10.16c6.58-3.84,18.42-8.08,33-1.59,22.59,10.06,18.78,29.92,15.24,34s-19.59,15.78-43.26,5.71C39.54,375.2,25.06,371,27.91,347.23Z"/><path class="cls-2" d="M102.6,100.07a7.59,7.59,0,0,1-1-13.81,15.29,15.29,0,0,1,4.25-1.45c11.51-2.27,13.6,5.44,13.6,5.44s2,8.71-6.71,10.7A17.18,17.18,0,0,1,102.6,100.07Z"/><path class="cls-2" d="M132.25,89.13A16.34,16.34,0,0,1,131.74,78c1.63-5.44,6-12.88,17.9-12.82,18.68.09,19.5,9.21,19.5,9.21s3.9,15.46-10,20.08C147.27,98.39,136.37,98.62,132.25,89.13Z"/><path class="cls-2" d="M295.15,77.46s-15.42-33.37-47.88-34.09S197,70.57,197,70.57c-27.93,57.68-53.5,50.24-92.5,47.89s-40.63-6.35-64.93,24.3c-10.31,13-25.14,13.68-38.82,10.18L0,152.72v150c28.9-4.83,68.7,6.44,122.11,50.23,85.48,70.08,154.77,19.19,168.83,1.6a137.12,137.12,0,0,1,12.37-14.08V86.72A24.6,24.6,0,0,1,295.15,77.46Z"/></g></g></svg>